<?xml version="1.0" encoding="utf-8"?>
<!-- Generator: Adobe Illustrator 25.0.0, SVG Export Plug-In . SVG Version: 6.00 Build 0)  -->
<svg version="1.1" id="Capa_1" xmlns="http://www.w3.org/2000/svg" xmlns:xlink="http://www.w3.org/1999/xlink" x="0px" y="0px"
	 viewBox="0 0 512 512" style="enable-background:new 0 0 512 512;" xml:space="preserve">
<style type="text/css">
	.st0{fill:#F5BD1E;}
</style>
<g>
	<g>
		<path class="st0" d="M448,96v160c0,52.9-43.1,96-96,96H209.8l-70.4,60.3c6.5,2.2,13.4,3.7,20.6,3.7h154.1l107.5,92.2
			c3,2.5,6.7,3.8,10.4,3.8c2.3,0,4.6-0.5,6.7-1.5c5.7-2.6,9.3-8.3,9.3-14.5v-80c35.3,0,64-28.7,64-64V160C512,124.7,483.3,96,448,96
			z"/>
	</g>
</g>
<g>
	<g>
		<path class="st0" d="M352,0H64C28.7,0,0,28.7,0,64v192c0,35.3,28.7,64,64,64v80c0,6.2,3.6,11.9,9.3,14.5c2.1,1,4.4,1.5,6.7,1.5
			c3.7,0,7.5-1.3,10.4-3.8L197.9,320H352c35.3,0,64-28.7,64-64V64C416,28.7,387.3,0,352,0z"/>
	</g>
</g>
</svg>
