<svg xmlns="http://www.w3.org/2000/svg" xmlns:xlink="http://www.w3.org/1999/xlink" viewBox="0 0 1280 1248.94"><defs><style>.cls-1{fill:none;}.cls-2{fill:#191919;}.cls-28,.cls-3{fill:#fff;}.cls-4{fill:#dfe4e5;}.cls-5{fill:#bfc3c4;}.cls-6{fill:#f5b512;}.cls-7{fill:#f6bb25;}.cls-8{fill:#da9f09;}.cls-9{fill:#e9eff2;}.cls-10{fill:#f5fcff;}.cls-11{fill:#9a9ea0;}.cls-12{fill:#d2d6d8;}.cls-13{fill:#f58612;}.cls-14{fill:#c86b08;}.cls-15{fill:#d4d7d8;}.cls-16,.cls-26{fill:url(#Gradiente_sem_nome_34);}.cls-17{opacity:0.97;fill:url(#Gradiente_sem_nome_30);}.cls-18{fill:#fff5da;}.cls-19{fill:#f98585;}.cls-20{fill:#ffefd2;}.cls-21{fill:#fff7eb;}.cls-22{fill:#1f1f1f;}.cls-23{fill:#282828;}.cls-24{clip-path:url(#clip-path);}.cls-25{fill:#fffaec;}.cls-26{opacity:0.1;}.cls-27{fill:#fceabc;}.cls-28{opacity:0.3;}</style><linearGradient id="Gradiente_sem_nome_34" x1="1296.85" y1="83.47" x2="1026.99" y2="550.88" gradientTransform="translate(-145.33 -154.41) rotate(6.08)" gradientUnits="userSpaceOnUse"><stop offset="0" stop-color="#fff0c7"/><stop offset="1" stop-color="#f5b512"/></linearGradient><linearGradient id="Gradiente_sem_nome_30" x1="1101.9" y1="327.92" x2="1101.9" y2="579.81" gradientTransform="matrix(1, -0.09, 0.09, 1, -208.36, 67.62)" gradientUnits="userSpaceOnUse"><stop offset="0" stop-color="#f5b512"/><stop offset="1" stop-color="#493503"/></linearGradient><clipPath id="clip-path"><path class="cls-1" d="M960.06,395.53c-26.87-23.54-18.08-47-10.38-59.14.24-.37.41-.65.51-.82l2.48-4.29-3.07-4c-3-3.84-8.05-7.66-10.8-9.58l-.22-.16-.24-.15c-2.88-1.84-8.35-5.09-13.07-6.4l-4.85-1.36-3.35,3.61-.64.73c-9.19,10.79-28.88,26.2-58.28,10.29-26.65-19.78-17-37.31-11.24-47.88a49.15,49.15,0,0,0,2.45-4.84,35.57,35.57,0,0,0,2.26-17.48l3.59-3.17,3.09.51c7.13,4.48,43.8,27.49,53.77,33.94l.16.1C919,289.94,924.44,300,927,307.26l1.07,3,3,1.4a86.72,86.72,0,0,1,8.14,4.71,91.3,91.3,0,0,1,7.72,5.88l2.43,2.22,3.38,0c8.31-.09,20.62,1.47,27.8,6.22l.17.11c10.61,7.17,50.77,35.05,59,40.73l1.94,3-2,4.74a43.1,43.1,0,0,0-18.76,8.17,50.42,50.42,0,0,0-4.39,4.1C1007.1,400.84,991.66,416.36,960.06,395.53Z"/></clipPath></defs><g id="Camada_2" data-name="Camada 2"><g id="Layer_1" data-name="Layer 1"><g id="Ovelha"><path class="cls-2" d="M1193,880.94c-.68-55.7-.32-82.6-5.35-110.81-4.48-25.23-11.54-63.63-17.34-89.52,51.19-90.09,77.58-138.65,79.06-147.48,2.7-16.07-7.51-41.64-10.71-49.09-3.3-7.72-11-24.06-20.71-34.28,2.51-3.16,5-6.35,7.38-9.62,46.55-63.58,64.21-139.64,49.73-214.17C1247.6,84.6,1110.91-12,957.12,1.21a331.81,331.81,0,0,0-34.65,4.85C843,21.5,773.81,64.75,727.62,127.84,681.07,191.41,663.41,267.47,677.89,342q1,5.25,2.27,10.42l-37.88,26.92L644,392.2c.74,5.63,1.63,11.15,2.65,16.4.18.93.38,1.85.57,2.78h0l-3.52,1.93L612,324.43a22.94,22.94,0,0,0,7.67-8.83,34.86,34.86,0,0,0,3.22-15.83c3.74-5.62,9.36-14.3,15-23.84,19.11-32.26,21.51-45.44,21.34-54.07-.26-13-7.94-28-24.91-48.79-4.3-5.25-8.57-10.09-12.14-14,1.62-5.65,3.44-12.72,4.93-20.3,5.5-28,3.63-48-5.73-61.3-7.19-10.19-18.38-15.8-31.51-15.8C574.8,61.66,563,68.27,554,79a49.42,49.42,0,0,0-3.62-4.14,41.8,41.8,0,0,0-30.43-13,45.86,45.86,0,0,0-7.33.6C499,64.57,488,72.17,481.84,83.76c-7.55,14.11-7.95,33-1.23,57.8.31,1.15.63,2.26.95,3.37-7.74-2.87-17.11-4.7-26.8-2.79a39.37,39.37,0,0,0-23.38,14.39c-9.79,12.3-10.65,23.94-9.64,31.53a41.43,41.43,0,0,0,5.9,16.17,35.49,35.49,0,0,0-20.39,15.22c-10.89,16.69-8.26,30-4.13,38.14,4.52,9,11.92,14.17,17.86,18.34.93.65,1.87,1.31,2.79,2,4.17,3.07,11.82,8.69,21.42,11.63,3.35,15.8,10,28.71,19.62,38.4C454,384.61,465.71,438.08,478,474c15.55,45.47,36.9,84.46,64.51,112,10.72,10.67,30.58,22.84,39.75,28.21q-2.58,8.7-5,17.55c-63.16-31.46-194-93.78-242.55-95.49-29.56-1.05-70.53,29.8-125.27,94.26C181,664,156.35,698,145.06,714c-16.42-12-51.74-34.22-86-31.64-18,1.36-33.21,9.2-45.24,23.29-18.41,21.56-18.43,56.8,0,96.68C28,833.16,52,863.58,79.64,885.83c31.88,25.65,66.21,39.2,99.28,39.2,52.05,0,85.41-38,120.73-78.25l6.33-7.2c31.18-35.34,64.51-72.46,77.46-86.85l51.91,27.14c-6.64,35.29-8.1,78.9-4.31,130,6.27,84.64,25.36,166.53,31.27,190.38-14.54,11.86-51.41,45.2-56.84,82.15A57.86,57.86,0,0,0,417,1227.17c11.88,15.74,32.42,21.77,55.57,21.77,21.47,0,45.19-5.19,66.31-12.63,62.57-22,124.91-70.47,123.11-129-1.11-36.08-6.42-92.35-15.81-167.41,29.31,12.73,88.4,35.88,130.61,35.88a89.9,89.9,0,0,0,14.76-1.12c26.15-4.36,54-10.55,83.88-32.41h0c13.08,9.85,33,22.23,50.75,22.23a30,30,0,0,0,15.75-4.14c18.81-11.36,31.27-26.68,37-34.77,8.84,4,25.69,10,39.75,5.69a27.23,27.23,0,0,0,16.63-14.21c.56-1.11,1.52-2.91,2.82-5.28.39.77.77,1.49,1.13,2.12,7.06,12.56,18.92,22.44,18.92,22.44h0s3.08,27.78-6.06,41.25q-1.8,2.6-3.86,5.52c-14.16,20.27-35.59,50.9-25.17,84.57,4.37,14.16,13.49,25.25,25.64,31.23a49.73,49.73,0,0,0,20.83,5,54.54,54.54,0,0,0,6.29-.24,32.42,32.42,0,0,0,2,12.41,34.67,34.67,0,0,0,11.36,14.88c9.58,7.08,20.37,9.18,30.34,8.94a58.37,58.37,0,0,0,14.53-2.15c1-.26,1.91-.55,2.85-.84a57.38,57.38,0,0,0,33.15,10.93c9.11.2,19.76-1.5,32-6.3,44.09-17.38,69.43-77.92,50.43-157.17C1240.93,936.15,1219.72,896.26,1193,880.94Z"/><g id="Mochila"><path class="cls-3" d="M1175.82,531.11a302.05,302.05,0,0,1-23.74,23.46h0c9,33.14,9.36,57.9,9.65,76.89.16,11.1.3,19.86,2.23,25,.13.34.26.7.39,1.09l.13.37c.09.28.19.56.28.86l.15.46.29,1,.14.44a2.17,2.17,0,0,0,.07.24c37.11-65.51,68.35-122,70.18-130.17,1.32-7.86-2.61-24.44-9.79-41.19-5.19-12.13-11.41-22.66-16.88-28.93q-9.27,10.59-19.44,20.25l-.09.09c-1.28,1.22-2.58,2.42-3.88,3.62l-.45.41c-1.21,1.11-2.43,2.19-3.65,3.28l-.72.64q-2.19,1.93-4.42,3.81l7.17,30Z"/><path class="cls-3" d="M934.68,948.38c23-13.88,35.63-35.12,35.76-35.33l3.47-5.91,6,3.33c5.84,3.24,23.45,10.9,34.67,7.43a13,13,0,0,0,8.21-7.09c1.22-2.44,4-7.55,8.18-14.91h0l-.06-.16c0-.07-.07-.15-.1-.23l-.61-1.5c-.07-.16-.13-.31-.19-.47-.18-.43-.35-.86-.53-1.3l-.22-.55-.51-1.29-.21-.52c-.18-.46-.37-.93-.55-1.4-.06-.14-.12-.29-.17-.43-.48-1.22-1-2.45-1.43-3.68l-.18-.47-.51-1.36c-.08-.21-.16-.41-.23-.61-.16-.42-.32-.83-.47-1.25l-.24-.63c-.16-.42-.31-.84-.47-1.27l-.21-.56-.54-1.49c0-.12-.09-.23-.13-.34-.22-.61-.44-1.21-.65-1.81-.06-.15-.11-.3-.16-.45l-.48-1.32-.22-.64c-.14-.38-.27-.75-.4-1.13-.08-.22-.16-.44-.23-.67s-.26-.72-.38-1.09c-.08-.21-.15-.43-.22-.64-.14-.4-.28-.8-.41-1.2l-.17-.48c-.19-.56-.37-1.11-.55-1.66l0-.13c-.16-.5-.33-1-.49-1.48l-.15-.49c-.12-.36-.24-.72-.35-1.07l-.18-.57-.3-1-.18-.56c-.1-.32-.19-.63-.29-.94l-.15-.51c-.11-.36-.22-.71-.32-1.06l-.09-.31-.38-1.31-.09-.31c-.09-.32-.17-.63-.25-.94,0-.14-.08-.27-.11-.41s-.14-.51-.2-.76-.08-.28-.11-.42-.12-.47-.17-.69l-.09-.39c-.06-.23-.11-.45-.15-.67s0-.21-.07-.31c-.07-.31-.13-.61-.18-.89-.88-4.71-1.24-6.45-2.26-8.64-1.23-2.65-5.62-9.92-9.86-17-7.35-12.19-14.65-24.54-21.21-36.65q-1.38,3.21-2.76,6.35c-.32.75-.65,1.48-1,2.22-.6,1.34-1.19,2.68-1.79,4l-1.26,2.77c-.51,1.11-1,2.23-1.52,3.33s-.95,2-1.42,3.06-.91,2-1.37,2.92-1,2.18-1.56,3.26c-.41.87-.82,1.74-1.24,2.59-.55,1.14-1.1,2.26-1.66,3.38-.38.79-.77,1.58-1.15,2.36l-1.76,3.5-1.07,2.11c-.61,1.22-1.23,2.41-1.86,3.61l-1,1.89-2,3.67-.9,1.7c-.68,1.26-1.35,2.5-2,3.73l-.84,1.53c-.69,1.27-1.39,2.51-2.09,3.75l-.78,1.4-2.17,3.78L948,856c-.75,1.29-1.5,2.55-2.25,3.81-.22.37-.43.74-.65,1.1-.78,1.29-1.55,2.56-2.33,3.83l-.59,1c-.8,1.29-1.6,2.56-2.4,3.83l-.53.85c-.82,1.29-1.64,2.55-2.46,3.82-.16.25-.32.5-.49.75q-1.26,1.92-2.52,3.8c-.15.22-.29.44-.44.65-.86,1.28-1.73,2.54-2.59,3.79l-.38.55c-.89,1.27-1.77,2.52-2.66,3.77-.11.15-.22.31-.34.46q-1.35,1.89-2.72,3.73l-.28.39c-.93,1.25-1.85,2.48-2.78,3.7l-.25.31q-1.41,1.85-2.84,3.65l-.2.25c-1,1.22-1.92,2.41-2.89,3.59-.06.07-.11.14-.17.2-1,1.2-2,2.37-2.94,3.53l-.13.16c-1,1.17-2,2.32-3,3.46l-.1.12q-1.51,1.71-3,3.38l-.07.09q-1.55,1.68-3.09,3.31l0,.05q-1.56,1.63-3.13,3.23l0,0c-1,1.07-2.11,2.11-3.16,3.14l0,0c-1.06,1-2.12,2-3.19,3h0q-3.21,3-6.46,5.79C902.22,944.15,923.09,955.37,934.68,948.38Z"/><path class="cls-4" d="M1003.05,824.53c-7.35-12.19-14.65-24.54-21.21-36.65-29.15,67.88-60.35,115.56-95,145.3,15.38,11,36.25,22.19,47.84,15.2a112.4,112.4,0,0,0,28.37-25.09c4.44-6.48,8.27-12.44,10.86-16.15,3.25-4.66,17.55-30.06,38.12-67.37C1010.2,836.39,1006.58,830.38,1003.05,824.53Z"/><path class="cls-4" d="M1152.08,554.57h0c1.82,6.71,3.27,13.06,4.46,19.1,21.06-39.16,40.8-76,57.15-106.77a66.47,66.47,0,0,0-4.77-6.28,304.45,304.45,0,0,1-32.65,32.1l7.17,30-7.62,8.42A302.05,302.05,0,0,1,1152.08,554.57Z"/><path class="cls-5" d="M990.08,810.46a8.28,8.28,0,0,0-.12-8.07l-.1-.18v0c-2.76-4.78-5.44-9.56-8-14.3-2.18,5.09-4.38,10-6.59,14.92l-.06.15c-.3.64-.59,1.27-.88,1.91-.4.86-.79,1.72-1.18,2.57l-1.55,3.32c-.38.81-.76,1.63-1.15,2.43q-.81,1.71-1.62,3.39c-.36.75-.72,1.51-1.08,2.25-.58,1.2-1.16,2.38-1.74,3.56-.33.66-.65,1.32-1,2l-2,3.94c-.25.49-.5,1-.74,1.47q-1.27,2.49-2.55,4.94c-.07.12-.13.25-.19.37q-4.23,8.07-8.51,15.64l-.35.62c-.83,1.46-1.65,2.9-2.48,4.32l-.51.86c-.78,1.33-1.56,2.66-2.34,4l-.58,1c-.77,1.28-1.53,2.54-2.3,3.79-.2.32-.4.64-.59,1l-2.31,3.69c-.2.3-.39.61-.58.91-.78,1.23-1.57,2.44-2.35,3.65-.19.28-.37.56-.55.84-.81,1.22-1.61,2.43-2.42,3.63l-.48.73c-.84,1.24-1.69,2.47-2.53,3.68l-.39.56q-1.34,1.92-2.67,3.79l-.25.35c-1,1.34-1.93,2.67-2.9,4l0,0q-18.13,24.47-37.59,41.13c1.58,1.13,3.22,2.25,4.9,3.36,10.61.14,31.08-5.27,51.63-41.95C973,841.71,964.93,856.89,990.08,810.46Z"/></g><g id="Bota_Esquerda" data-name="Bota Esquerda"><path class="cls-6" d="M197.2,679.54c-15.29,19.6-29.36,39-40.87,56l-6.8,10-9.17-7.94c-.42-.36-43-36.63-79.72-33.8-12.2.93-22.16,6.09-30.43,15.78-12.53,14.68-11.36,42.22,3.14,73.67,24.62,53.4,84,110.15,145.57,110.15,42.29,0,71.13-32.86,104.53-70.92q3.17-3.6,6.37-7.24c9.45-10.71,19.09-21.58,28.31-31.94C280,735.5,245.2,702.55,197.2,679.54Z"/><path class="cls-7" d="M197.2,679.54c-15.29,19.6-29.36,39-40.87,56l-6.8,10-9.17-7.94c-.42-.36-43-36.63-79.72-33.8-12.2.93-22.16,6.09-30.43,15.78-12.53,14.68-11.36,42.22,3.14,73.67C48.66,826.54,77.43,861,111.8,882.39,172.89,830,221,773.44,244.84,709.1A249.05,249.05,0,0,0,197.2,679.54Z"/><path class="cls-2" d="M179.48,886.55C158.75,828.9,92.83,757,32.53,726.25c0,0,22-10.14,54.11,9.42,33.27,25.81,64.89,59.82,87.35,93.86C193.17,864.79,179.48,886.55,179.48,886.55Z"/><path class="cls-8" d="M179.58,886.38l-.1.17c-10.07-28-30.81-59.38-56.39-87.76l-.22-.23c-13-13.37-24.1-24.29-33.86-33.24-18.19-15.77-37.35-29.25-56-38.82q-3.09-1.14-6.11-2c-8.82,15.44-6.6,40.54,6.45,68.85,24.62,53.4,84,110.15,145.57,110.15,1.85,0,3.66-.08,5.47-.21A165.92,165.92,0,0,0,179.58,886.38Z"/></g><g id="Bota_Esquerda-2" data-name="Bota Esquerda"><path class="cls-6" d="M640.43,1108c-.8-26.06-4-64.39-9.41-112.76-48.32,20.54-96.51,31.36-138.18,31.36a215.24,215.24,0,0,1-24.61-1.37c8.34,44.82,16.52,75.87,16.66,76.41l1.89,7.11-5.94,4.35c-.48.35-48.75,36.19-54.06,72.47a36.56,36.56,0,0,0,7.4,28.61c12.69,16.81,52.8,17.55,97.52,1.79C585.09,1197.18,641.88,1155.37,640.43,1108Z"/><path class="cls-7" d="M509.59,1026q-8.52.57-16.75.57a215.24,215.24,0,0,1-24.61-1.37c8.34,44.82,16.52,75.87,16.66,76.41l1.89,7.11-5.94,4.35c-.48.35-48.75,36.19-54.06,72.47a36.56,36.56,0,0,0,7.4,28.61c12.69,16.81,52.8,17.55,97.52,1.79,5.88-2.07,11.8-4.42,17.67-7C550.19,1156.26,537.21,1073,509.59,1026Z"/><path class="cls-2" d="M483.42,1202.09a242.84,242.84,0,0,1-40.49-.94s5.57-19,39.77-20.6c30.82-2.23,63.29-13.1,97.59-44.43,31.53-29.06,47.4-19.57,47.4-19.57C576.77,1180.3,527.64,1199.06,483.42,1202.09Z"/><path class="cls-8" d="M640.43,1108c-.07-2.39-.17-4.92-.29-7.51-4,5-8.44,10.33-13.07,15.75a4.76,4.76,0,0,1,.62.3c-17.91,22.42-35.6,39.27-52.93,51.84-8,6.26-15.93,11.34-23.29,14.54a168,168,0,0,1-68.05,19.16,219.7,219.7,0,0,1-26.27.13h-.29c-3-.13-8.15-.55-29.44-1.72a38.21,38.21,0,0,0,6.76,13.7c12.69,16.81,52.8,17.55,97.52,1.79C585.09,1197.18,641.88,1155.37,640.43,1108Z"/></g><path id="Cor_do_Braço_Esquerdo" data-name="Cor do Braço Esquerdo" class="cls-9" d="M510.59,161.81s21.48,13.19,23.52,33.61c2,10.82-.74,21.44-7.91,30.7-7.05,9.11-16.16,15-26.34,17a41.31,41.31,0,0,1-5.65.7c.25.94.48,1.9.66,2.88,1.87,10.21-.82,20.66-7.59,29.41A38.63,38.63,0,0,1,467.45,290c4.3,15.06,12.46,24.31,22.13,29.82-2.62,6.62-4.56,17.31-5.19,21.63-13.57,94.11,35.26,191.48,77.73,233.77,9,8.95,19.55,14.94,26.53,18.3q1.77-5.46,3.6-10.86c.42-1.25.86-2.49,1.29-3.74.8-2.33,1.6-4.66,2.42-7l1.62-4.52q1.09-3,2.2-6l1.83-4.91c.69-1.84,1.39-3.68,2.09-5.5s1.34-3.47,2-5.19,1.33-3.37,2-5,1.45-3.64,2.19-5.45q.93-2.28,1.88-4.55c.8-1.93,1.6-3.86,2.42-5.78.55-1.29,1.1-2.57,1.66-3.86.91-2.11,1.82-4.22,2.74-6.31l1.08-2.42q7.76-17.4,16.2-34l.54-1.07c1.31-2.57,2.63-5.11,4-7.65l.83-1.6q2-3.7,4-7.38l.91-1.68c1.34-2.45,2.7-4.88,4.06-7.3l.87-1.54q2.1-3.71,4.24-7.37c.07-.13.14-.26.22-.38h0c-1-3.1-2-6.22-2.94-9.37l-9.68,5.28s-1.33,15-11.38,39.71c2.72-26.35.32-33.68.32-33.68s-10.1,14.91-23.14,17.38c18.75-20.37,19-29.05,19-29.05l-35.24-99c-2.12.78-27.25,8.51-50.8,6.35s-37.12-14.86-39.11-17c39.93,20.51,88.49-3.29,94.26-12.2s4-16.72,4-16.72,37.31-53.61,37-71.72c-.34-16.92-32-56.41-39.35-57.09s-13.69,2.57-21.11,10.78c-5.87,6.49-7.31,13.27-4.29,20.16,4.92,11.2,24.21,38.08,24.21,38.08s-8.89-5.95-32.79-.79-33.69,18.74-33.69,18.74S543.07,228.6,561.9,219a75.76,75.76,0,0,1-8.65-14.24c-10-22.76,3.57-43.59,21.45-54.15,10.57-6.23,21-8.31,29.14-6.3,5.93-24.13,11-61.14-13.93-61.14-35.1,0-38.16,70.65-38.37,77.67.16-7.31,1-83.08-35.51-77.21C477.64,89.82,510.59,161.81,510.59,161.81Z"/><path class="cls-9" d="M1098.84,912.52q3.79-2.35,7.64-4.37Q1102.64,910.16,1098.84,912.52Z"/><path class="cls-9" d="M1129.23,899c2.58-.75,5.12-1.41,7.6-2C1134.35,897.6,1131.81,898.26,1129.23,899Z"/><path class="cls-9" d="M1129,899.07c-2.58.76-5.19,1.61-7.82,2.57C1123.85,900.68,1126.46,899.83,1129,899.07Z"/><path class="cls-9" d="M1098.46,912.77c-1,.65-2,1.32-3.07,2C1096.41,914.09,1097.43,913.41,1098.46,912.77Z"/><path class="cls-9" d="M1091.13,917.79c1.13-.85,2.28-1.66,3.43-2.45C1093.41,916.13,1092.26,916.94,1091.13,917.79Z"/><path class="cls-9" d="M1055.23,899.88l.21.42c1.55,3.27,11.7,9.42,18.66,18.8a37.18,37.18,0,0,1,4.44,7.64s5.92-5,13.5-10.19c25.17-33.68,80.63-39.66,80.63-39.66l.13-3.39s2.85-37.16-3.26-84.56c-6.32-49.06-21.37-113.16-25.76-124.89-.25-.67-.48-1.35-.7-2-.06-.22-.12-.45-.19-.67-.14-.48-.28-1-.4-1.45-.07-.26-.13-.52-.19-.78-.12-.48-.22-1-.33-1.45l-.15-.78c-.11-.54-.2-1.1-.29-1.66,0-.2-.07-.39-.1-.6-.24-1.58-.43-3.21-.58-4.89l0-.36c-.07-.75-.12-1.51-.18-2.28,0-.13,0-.26,0-.39,0-.84-.1-1.69-.14-2.56v0c-.81-17.74.78-41.29-6.84-74.43a324.16,324.16,0,0,1-133.52,59.44c-7.88,1.54-15.85,2.78-23.82,3.73,0,.09-.09.18-.13.27-3.85,1-23.89,2.3-23.89,2.3l.23-.58c-126.3,5.91-239.18-61.87-286.87-166.7h0q-2.55,4.64-5,9.32l-.48.91q-2.45,4.64-4.84,9.34c-.08.14-.15.28-.22.43q-9.66,19-18.39,39.12l-1.09,2.49q-1.73,4-3.41,8.07l-1.53,3.68c-1,2.54-2.08,5.09-3.1,7.65-.57,1.43-1.13,2.88-1.7,4.32-1,2.46-1.92,4.91-2.86,7.39-.64,1.67-1.26,3.36-1.88,5q-2.1,5.63-4.14,11.34c-.83,2.36-1.68,4.71-2.5,7.08-.64,1.86-1.26,3.73-1.9,5.6-.8,2.38-1.6,4.76-2.39,7.16q-.9,2.73-1.77,5.48-1.21,3.79-2.41,7.62l-1.59,5.17q-1.3,4.27-2.56,8.6c-.42,1.45-.85,2.89-1.27,4.34-1.25,4.35-2.48,8.71-3.67,13.11-3.68,15.34-3.61,21.67-3.61,21.67S566.88,649.55,561,646.64c-77.72-38.25-188.24-87.52-227.1-88.89h-.79c-28,0-78.25,50.51-122.19,104.54,47.75,23.93,84.3,58.39,122,114.48,22.6-25.3,39.81-44.36,40.08-44.66,0,0-7.76-8.27-38.18-32.45,33.68,12.23,43.77,26.25,43.77,26.25s4.22-20.81-.85-48.52c14.3,14.67,9.73,53.16,9.73,53.16l52.87,27.64c13.1-46.75,37.55-75.62,72.73-85.82,34.64-10.05,74.39-8,118.13,6,34.26,11,71.11,29.4,109.55,54.67,16.77,11,32.32,22.36,46.18,33.12,31.16,27.2,39.58,57.36,40.68,63-8.06-7.52-20.14-18.4-35.21-30.84C729,746,612.46,666,519.1,693.06c-66.77,19.37-73.05,127.73-66.57,215.23,2.46,33.15,6.92,65.85,11.76,94.68,44.91,6.88,105.44-4.11,164.16-30.07q-2.76-23.4-6.1-49.39c-6.17-48-14.58-120.81-14.58-120.81s26.07,39.48,28.77,62.87c2.54,17.29.66,4.89,6.43,49.31,21.4,9.81,103.17,45.52,145,38.55,44.41-7.4,111.35-18.59,181.14-191.09-7.09-16-11.82-30.91-12.34-43.79-.22-5.62-1.67-32.12,7.38-47.69.73,25.71,13.87,39.73,14.16,46.83,1.36,34.2,47.12,99.69,54.11,114.67,6.42,13.76.48,20.6,22.79,67.52Z"/><path class="cls-9" d="M1106.48,908.15c2.69-1.22,6.34-3,10.65-4.93,1.32-.54,2.64-1,3.95-1.52A122.07,122.07,0,0,0,1106.48,908.15Z"/><path class="cls-9" d="M1163.28,893.91l-2.19,0Z"/><path class="cls-9" d="M1148,895c2.21-.3,4.34-.53,6.4-.71Q1151.31,894.54,1148,895Z"/><path class="cls-9" d="M1169,894.13c.69,0,1.36.11,2,.18C1170.31,894.24,1169.64,894.18,1169,894.13Z"/><path class="cls-9" d="M1137,897c3.71-.84,7.3-1.49,10.73-2C1144.26,895.51,1140.67,896.16,1137,897Z"/><path class="cls-9" d="M1154.86,894.25c1-.08,1.92-.14,2.84-.19C1156.78,894.11,1155.83,894.17,1154.86,894.25Z"/><path class="cls-9" d="M1166.54,894c.64,0,1.25.06,1.85.1C1167.79,894.05,1167.18,894,1166.54,894Z"/><path class="cls-9" d="M1157.79,894.05c1,0,1.9-.08,2.81-.11C1159.69,894,1158.75,894,1157.79,894.05Z"/><path class="cls-9" d="M1163.77,893.91c.82,0,1.62,0,2.38.06C1165.39,893.94,1164.59,893.92,1163.77,893.91Z"/><path id="Luz" class="cls-10" d="M210.94,662.28q2.49,1.25,4.94,2.54l1.41.75,3.55,1.92c.49.27,1,.54,1.46.82q1.81,1,3.6,2l1.18.69c1.44.84,2.86,1.69,4.28,2.55l.39.24q10,6.1,19.37,13.07C282.08,651,302.85,612.06,348,608s125.54,37.17,197.18,58.63a182.08,182.08,0,0,1,21.73-.36h.15q8.82.38,17.95,1.55l.33,0c1.39.18,2.78.38,4.18.59l.45.06,4.45.72h0q4.66.81,9.41,1.81l.14,0c1.45.31,2.92.64,4.38,1l.68.16c1.34.31,2.69.64,4,1l.66.16,4.58,1.2h0l73.75-160.79a269.1,269.1,0,0,1-26.47-45.6c-.53,1-1.07,1.94-1.6,2.92-.88,1.63-1.77,3.26-2.64,4.9s-1.77,3.35-2.65,5-1.74,3.33-2.6,5-1.72,3.38-2.57,5.07-1.7,3.4-2.54,5.11-1.67,3.42-2.5,5.14-1.66,3.45-2.48,5.19-1.62,3.46-2.42,5.2-1.63,3.51-2.43,5.27-1.57,3.52-2.35,5.29-1.58,3.54-2.36,5.33-1.53,3.57-2.29,5.37-1.53,3.58-2.28,5.38-1.5,3.66-2.25,5.49-1.47,3.59-2.19,5.4-1.47,3.76-2.2,5.64-1.41,3.59-2.1,5.4-1.44,3.85-2.16,5.77-1.35,3.6-2,5.41c-.72,2-1.42,4-2.13,6-.63,1.78-1.28,3.56-1.9,5.36-.71,2.05-1.4,4.11-2.1,6.16-.6,1.77-1.21,3.52-1.8,5.29-.71,2.15-1.4,4.31-2.1,6.47-.55,1.7-1.11,3.4-1.65,5.12-.73,2.29-1.43,4.61-2.14,6.92-.49,1.6-1,3.19-1.48,4.8-.79,2.61-1.55,5.25-2.31,7.88-.39,1.33-.79,2.64-1.17,4q-1.71,6-3.34,12c-3.68,15.34-3.61,21.67-3.61,21.67S566.88,649.55,561,646.64c-77.72-38.25-188.24-87.52-227.1-88.89h-.79C305.11,557.74,254.88,608.25,210.94,662.28Z"/><path id="Luz-2" data-name="Luz" class="cls-10" d="M555.23,340.24a101.74,101.74,0,0,1-13.62-.27,67.67,67.67,0,0,1-33-11.93,106.24,106.24,0,0,1-25.11-12.41,44.83,44.83,0,0,0,6.11,4.2c-2.62,6.62-4.56,17.31-5.19,21.63C472.92,421,506,502.91,542.22,551.88c-2.48-5.71-9.73-60.05-8.61-109.89S553.85,344.34,555.23,340.24Z"/><path id="Sombra" class="cls-5" d="M948,697.08c-3.88,33.58,11,69.75,11,69.75S906.6,875.08,862.26,905.09c-49.21,33.32-107.8,38.25-149.22,37,26.86,8.44,55.3,14.57,75,11.3,44.41-7.4,111.35-18.59,181.14-191.09-7.09-16-11.82-30.91-12.34-43.79-.22-5.62-1.67-32.12,7.38-47.69,0,.92.08,1.83.13,2.72a87.36,87.36,0,0,1,2.26-19.73S951.88,663.5,948,697.08Z"/><path id="Luz-3" data-name="Luz" class="cls-10" d="M519.1,693.06c-66.77,19.37-73.05,127.73-66.57,215.23,2.46,33.15,6.92,65.85,11.76,94.68a196.47,196.47,0,0,0,37.8,1.79C491.76,965.5,446,776.4,512.15,735.45c72.64-45,212.63,12.88,238.28,30.53C685,719.13,594.49,671.19,519.1,693.06Z"/><path id="Sombra-2" data-name="Sombra" class="cls-11" d="M631.71,475.75c0-.54.1-1.06.15-1.58,0-.15,0-.31,0-.46,1.79-20.2.28-27.92-.09-29.41,1.61,7.46.79,26-1.83,45.85.55-1.12,1.11-2.23,1.66-3.35.1-.21.2-.41.31-.62q1.81-3.68,3.67-7.33l1.26-2.49q1.32-2.57,2.66-5.12c.68-1.3,1.35-2.6,2-3.89.55-1,1.11-2.07,1.66-3.1q4.93-9.18,10.08-18.12l1.42-2.48c.25-.43.5-.87.75-1.29h0c-1-3.1-2-6.22-2.94-9.37l-9.68,5.28s-1.33,15-11.38,39.71C631.57,477.22,631.64,476.48,631.71,475.75Z"/><path id="Sombra-3" data-name="Sombra" class="cls-11" d="M647,867.87c-5.28-20.07-37.18-62.38-39-64.74,2.79,4.29,26,40.46,28.49,62.44,2.54,17.29.66,4.89,6.43,49.31,3.59,1.65,8.88,4,15.4,6.8C655.23,905.16,650.41,880.76,647,867.87Z"/><path id="Sombra-4" data-name="Sombra" class="cls-11" d="M790.79,769.65c28,26.24,35.79,54.12,36.85,59.52C828.7,818.64,815.26,788,815.26,788s27.83,6.85,76.65,29.32C844.62,790.15,804.93,776.66,790.79,769.65Z"/><g id="Mão_Direita" data-name="Mão Direita"><path class="cls-6" d="M1230.21,989.84c-17.76-67.08-42.88-88-59.26-95.53-11.37-1.27-32.25.16-53.82,8.91-4.31,1.95-8,3.71-10.65,4.93a114.41,114.41,0,0,0-15.35,9.64c.31-.44.65-.85,1-1.29-7.61,5.2-13.56,10.24-13.56,10.24,5.8,13.76,6.62,42.47-7.73,63.58-1.23,1.82-2.6,3.74-4,5.78-12.35,17.64-29.26,41.81-22.12,64.94,2.52,8.12,7.5,14.36,14,17.59,7.44,3.64,17.1,3.48,27.88-.56l.05.12.9-1.12c1.19-1.39,2.27-2.81,3.32-4.25a63.83,63.83,0,0,0,9.29-17.57,29.12,29.12,0,0,0,1.66-8.57,24.5,24.5,0,0,0-.38-4.59,22.94,22.94,0,0,0-1.17-3.73,56.64,56.64,0,0,0-8.19,6.07l-6,5.53c-1,1-2.08,1.94-3.12,3a37.19,37.19,0,0,1-3.46,3,34,34,0,0,1,.58-4.6,35.32,35.32,0,0,1,1.32-4.41,33.71,33.71,0,0,1,4.47-8.11,38.22,38.22,0,0,1,14.69-11.91,40.16,40.16,0,0,1,9.09-2.8,45.09,45.09,0,0,1,9.24-.85,41.69,41.69,0,0,1,17.54,4.15c-6,1.4-11.51,2.21-16.8,3.45-2.64.6-5.23,1.25-7.71,2.07-1.48.51-2.94,1.1-4.34,1.72a23.93,23.93,0,0,1,2.2,1.66,21.75,21.75,0,0,1,4.93,6.16,29.94,29.94,0,0,1,3.41,15.24,44.6,44.6,0,0,1-2.89,14.31,87.5,87.5,0,0,1-5.7,12.47c-1.09,2-2.18,3.89-3.35,5.76l-1.78,2.79c-.39.67-.8,1.28-1.15,1.93a18.74,18.74,0,0,0-2.53,7.07,7.86,7.86,0,0,0,.63,4.74,9.61,9.61,0,0,0,3.32,3.86c3.33,2.62,9,4.39,15,4.69a47.66,47.66,0,0,0,9.32-.48,61.05,61.05,0,0,0,9.51-2.4,104.52,104.52,0,0,0,19.2-8.81c6.53-3.71,13-8.21,20.32-13.11a54.13,54.13,0,0,1-10,24.14,57.76,57.76,0,0,1-7.8,8.83c7.64,2.32,18.72,2.84,33.53-3C1225.39,1108,1246.12,1049.9,1230.21,989.84Z"/><path class="cls-8" d="M1232.28,998.61c-20.7,5.49-63,16.13-80,16.13-9.08,0-16.7-20-21.19-40.65-3.8-21.38-15.9-21.38-15.9-21.38,1.27,12.42,9,74.35,37.09,74.35,18.23,0,60.49-10.53,82-16.24Q1233.55,1004.76,1232.28,998.61Z"/></g><g id="Mão_Esquerda" data-name="Mão Esquerda"><path class="cls-6" d="M483.46,315.62a105.81,105.81,0,0,0,25.15,12.43,41.09,41.09,0,0,1-6.11-5.12c39.93,20.51,88.49-3.29,94.26-12.2s4-16.72,4-16.72,37.31-53.61,37-71.72c-.34-16.92-32-56.41-39.35-57.09s-13.69,2.57-21.11,10.78c-5.87,6.49-7.31,13.27-4.29,20.16,4.92,11.2,24.21,38.08,24.21,38.08s-8.89-5.95-32.79-.79-33.69,18.75-33.69,18.75S543.07,228.6,561.9,219a75.76,75.76,0,0,1-8.65-14.24c-10-22.76,3.57-43.59,21.45-54.15,10.57-6.23,21-8.31,29.14-6.3,5.93-24.13,11-61.14-13.93-61.14-35.1,0-38.16,70.65-38.37,77.67.16-7.31,1-83.08-35.51-77.21-38.39,6.15-5.44,78.14-5.44,78.14s21.48,13.19,23.52,33.61c2,10.82-.74,21.44-7.91,30.7-7.05,9.11-16.16,15-26.34,17a41.31,41.31,0,0,1-5.65.7c.25.94.48,1.9.66,2.88,1.87,10.21-.82,20.66-7.59,29.41A38.63,38.63,0,0,1,467.45,290C470.81,301.77,476.52,310,483.46,315.62Z"/><path class="cls-7" d="M459.2,233.11s-23.18-18.32-33.9-1.89,1.36,22.07,11.24,29.33,23.5,15.56,33.7,2.38S467,237.84,459.2,233.11Z"/><path class="cls-7" d="M509.16,212.93c10.95-14.16-2.71-27.39-14.08-35.47-1.49-1.05-2.93-2-4.27-2.89l0,0-1.86-1.19-.21-.12-1.6-1-.06,0-.09-.07-.07,0-.21-.15,0,0a58.19,58.19,0,0,0-10.1-5.74C468,162.41,456.16,160,448.25,170c-13.61,17.09,1.84,29.91,15.23,39.76S495.34,230.8,509.16,212.93Z"/><path class="cls-8" d="M625.36,194.36c-7.82,45.23-35.34,71.21-67.64,134.57,20.14-4.14,35.91-13.36,39-18.2,5.76-8.91,4-16.72,4-16.72s37.31-53.61,37-71.72C637.59,215.36,632.19,204.65,625.36,194.36Z"/></g><g id="Detalhes"><path class="cls-12" d="M483.43,667.61c8.31-12.62,10.33-29.81,10.21-41.89,4.4,12.42,2.14,29.89-5.19,39.87C487.28,667.17,485.23,667.61,483.43,667.61Z"/><path class="cls-12" d="M467,664.6q14.31-19.71,13.27-48.66c6.31,8.63,3.45,24-.91,34.52C475.8,659.13,471.64,663.89,467,664.6Z"/><path class="cls-12" d="M728.76,898.91c14-27.24,16.77-34.21,22.46-68.43C758.52,862.55,749.76,884.32,728.76,898.91Z"/><path class="cls-12" d="M695.47,910.21c23.66-31.66,37-62.81,40.64-118.38C757.7,817,722.42,909.2,695.47,910.21Z"/><path class="cls-12" d="M1043.16,805.31c-8.22-20.48,81.69-56.61,98-40.31C1122.14,768.26,1068.73,781.27,1043.16,805.31Z"/><path class="cls-12" d="M1024.44,782.93c5.33-34.77,112.85-65.55,121.16-44.18C1124.85,740,1061.45,748.73,1024.44,782.93Z"/><path class="cls-12" d="M589.06,472.82c-21.18,30.44-74.89,25.48-75.7,12.68C526.4,491.18,575.84,486.56,589.06,472.82Z"/><path class="cls-12" d="M525.15,500.15c-1.78,3.55,49.25,20.59,63-12.43C576.66,495.8,556.64,506.66,525.15,500.15Z"/></g><g id="Monitor"><path class="cls-2" d="M897.41,780.86a17.87,17.87,0,0,1-2.54-.17c-15-2-44.69-19.77-61.06-30.15-7.13,8.84-18.61,20.05-32.3,22.31a19.75,19.75,0,0,1-3.32.27c-15.75,0-48.49-18.89-103.39-53.73-7.38-4.69-13.21-8.39-16.67-10.44-20.56-12.19-14.65-41.24-9.57-56.9-45.32-29.26-47.33-33.45-48.83-36.56-8.32-17.26,5.24-54.84,14.83-70.15,2.3-3.67,9.29-14.82,20.37-14.84,7.34,0,15.53,2.8,22.28,5.86,2.34-6.24,5.43-13.94,9.07-21.77,12.87-27.72,25.26-41.65,39-43.84a20.06,20.06,0,0,1,3.16-.24c21.47,0,99.75,41.23,123.23,53.87,26.39,14.2,51,28.42,69.42,40,31.84,20.12,36.11,26.59,37.93,32,2.43,7.17,3.18,19.84-12.71,54.57-3.85,8.42-7.84,16.29-11,22.3,6,3.66,12.72,8.7,16.38,14.66s3.17,13.67-1.51,26.94a194.18,194.18,0,0,1-13.22,28.73C916.07,780.86,902,780.86,897.41,780.86Z"/><path class="cls-6" d="M684.07,554s21.3-67.62,43.13-71.11,214.3,100.2,220.14,117.41-28.87,78.06-28.87,78.06,17.45,7.4,22.71,16-27.32,76.51-44.66,74.16-65.89-34.7-65.89-34.7S815.9,758,799.5,760.7,703,709.37,684.41,698.36s-.84-51.3-.84-51.3-50.51-32.28-52.75-36.91C624,595.87,643.39,542.84,655,542.81S684.07,554,684.07,554Z"/><path class="cls-9" d="M897.24,758.34c-11-2-42-20.35-61-33l-8.79-5.85-5.49,9c-4,6.53-15.06,20.45-23.87,22.13-13.78-1-68.05-35.49-91.26-50.22-7.54-4.79-13.5-8.57-17.26-10.8-7-4.14-2.5-25.38,3.27-38.49l3.5-7.95L689,638.51c-20.16-12.88-43.73-28.75-49.31-33.63-.57-3.21-.14-12.55,4.64-27,4.49-13.57,9.74-22.15,12.29-24.83,6.85.94,17.59,6.69,22,9.48l11.15,7.14,4-12.63c10.08-32,26.56-62.24,34.82-64.1h0c9.59.63,50.5,18,110.13,50,60.6,32.49,93.88,55,99.14,61.26,1.32,8.26-11.55,39.95-28.2,69.17L904,683.27l10.5,4.45c5.39,2.3,13.61,7,17,10.6-.66,4.54-4.7,16.95-13.29,32.67C908.19,749.36,900,757.12,897.24,758.34Z"/><path class="cls-11" d="M697.86,682.21c21.58,20.58,52.71,38.23,92.42,53.24"/><path class="cls-11" d="M697.86,667.57c31.88,23.63,68.95,43.53,110.89,59.91"/><path class="cls-11" d="M699.49,652c33.39,24.75,72.2,45.58,116.12,62.73"/><path class="cls-13" d="M661.93,568.07c-5.55,3.43-12.41,30.5-10.85,34.22s236.22,142,239,140.89,31.42-36.24,21.94-45.53S667.48,564.64,661.93,568.07Z"/><path class="cls-13" d="M722.44,541.31s-16.84,25.35-9.63,31.15,152.48,86.2,169.67,86.2,25.88-45,25.88-45Z"/><path class="cls-14" d="M677.71,583.54c-6.17-7-12.17-3.38-18,10Z"/><circle class="cls-14" cx="667.4" cy="597.47" r="2.52"/><path class="cls-14" d="M673,608.26s9.64-22.82,15.07-19.83,19,17.38,17.93,22-17.65-19-17.65-19Z"/><path class="cls-14" d="M683.44,602.28l-1.93,3.53s10.6,12,14.13,13.59S683.44,602.28,683.44,602.28Z"/><path class="cls-14" d="M714.93,608s-4.08,7.33,0,14.4a103,103,0,0,1,6.79,14.66C725.91,628.77,724.75,619.32,714.93,608Z"/><polygon class="cls-14" points="725.25 613.64 736.93 613.64 732.59 622.52 725.25 613.64"/><path class="cls-14" d="M756.67,622.87c-9.24-5.16-32.95,12.77-22.22,23.09s-3.45-16.51,9.16-8.91,6.19-6.3,6.19-6.3S765.9,628,756.67,622.87Z"/><polygon class="cls-14" points="761.38 632.16 790.28 638.41 775.83 653.35 782.41 640.86 761.38 632.16"/><circle class="cls-14" cx="769.39" cy="644.25" r="2.58"/><polygon class="cls-14" points="748.34 646.83 785.56 669.11 775.83 667.57 749.43 649.82 748.34 646.83"/><path class="cls-14" d="M788.69,658s11.54-17.6,16.7-12.49,6.45,23.45,5.36,22.09-2.37-15.85-8.08-16.93S788.69,658,788.69,658Z"/><path class="cls-14" d="M797,660.69s-5.63,22.81,7.06,28,17.11,0,17.11,0S810.45,687,804,684.59,797,660.69,797,660.69Z"/><path class="cls-14" d="M804.26,665.52s-1.73,10.86,3,10.28S804.26,665.52,804.26,665.52Z"/><path class="cls-14" d="M825.22,670.67s-9.24-10-4.08-12.7,16.12-1.75,20.7,7.55,6.2,37.91,6.2,37.91l-10.37-27.61C833.81,665.52,825.22,670.67,825.22,670.67Z"/><polygon class="cls-14" points="818.66 676.63 837.88 689.47 837.88 697.08 818.66 676.63"/><circle class="cls-14" cx="862.91" cy="679.89" r="2.79"/><path class="cls-14" d="M887.53,689.7s31.39,22.85,15.85,26a79.67,79.67,0,0,1-29.88,0l28.25-5.89Z"/><polygon class="cls-14" points="876.83 724.8 894.76 724.8 888.51 735.45 876.83 724.8"/><polygon class="cls-14" points="882.13 706.46 843.28 712.57 863.93 723.44 863.01 715.2 882.13 706.46"/><path class="cls-14" d="M851.84,685.82c0,5.14-2.91,12.38,8,12.38s25.4-10.42,24.31-12.27-7.06-4.3-13.17.86-6.39,9.1-9.92,6S851.84,680.68,851.84,685.82Z"/></g><g id="Bandeira"><path class="cls-12" d="M1097.8,631.44c17.34,8.65,26,55.43,22.72,59.81s-100.64,36-110,26S989,663.77,992.77,656.1,1080.46,622.8,1097.8,631.44Z"/><path class="cls-6" d="M1097.8,631.44c-12.07-6-56.4,4.57-83.5,14.15,1.93,14.56,5.14,46.57,14.12,49s69.74-17.7,90.29-24.66C1115.18,654.8,1108,636.53,1097.8,631.44Z"/><path class="cls-2" d="M1018.57,673.92l94-23c-3.8-8.86-8.77-16.5-14.81-19.51-12.07-6-56.4,4.57-83.5,14.15C1015.25,652.7,1016.5,664,1018.57,673.92Z"/></g><path class="cls-9" d="M1030.49,561.91a329.17,329.17,0,0,1-34.65,4.85C854.14,579,727,497.88,686.35,374.47l-21,14.94c.66,5,1.46,10,2.44,15.08C695.4,546.73,842.36,637.84,996,608c66.3-12.88,123-46.2,163.83-91.32l-2.24-9.35A321.56,321.56,0,0,1,1030.49,561.91Z"/><path class="cls-15" d="M1036.28,560.71C959.72,595.66,903,604.92,863.53,604.32A300.65,300.65,0,0,0,996,608c66.3-12.88,123-46.2,163.83-91.32l-2.24-9.35A321,321,0,0,1,1036.28,560.71Z"/><path class="cls-10" d="M756.7,485.33a270.24,270.24,0,0,1-70.35-110.86l-21,14.94c.66,5,1.46,10,2.44,15.08a244.12,244.12,0,0,0,26.92,73.32C707.15,485.26,728.52,491.57,756.7,485.33Z"/><ellipse class="cls-16" cx="976.48" cy="283.99" rx="283.41" ry="262.36" transform="translate(-36.24 191.48) rotate(-11)"/><path class="cls-17" d="M1026.53,541.53a300.26,300.26,0,0,0,125.8-56.27c-35.46-96.77-130-170.35-246.53-180C829.88,299,758.68,321,704.18,361.91,742.75,490.3,881.66,569.68,1026.53,541.53Z"/><path class="cls-18" d="M1151.14,390.12c-.52-3.65-8.62-52.6-61.44-69.5a2.64,2.64,0,0,1-.1.3c-.83,2.36-1.76,5-2.83,7.9-.17.46-.35.94-.54,1.43l-.06.79c0,.19,0,.39-.05.61l.57.66c.07.08.13.16.2.23.37.43.73.85,1.08,1.28l.27.34c.37.45.74.91,1.09,1.37l.21.26c.37.49.74,1,1.1,1.48l.14.19,1.11,1.57a.41.41,0,0,0,.07.11c.38.56.75,1.12,1.12,1.69v0c10.32,16,14.53,34.93,17.76,49.5l.64,2.82h0c.14.65.3,1.28.46,1.9.1.37.2.72.3,1.08s.15.52.23.77.23.76.36,1.13c.07.22.14.44.22.67l.39,1.09c.08.22.17.44.26.66s.26.68.4,1,.25.57.37.85.38.83.58,1.24.33.68.5,1,.21.39.31.58.35.64.53.95l.32.54.57.92c.1.17.21.33.32.49s.39.59.59.87l.3.42c.27.37.54.72.81,1.06l.11.15q.48.58,1,1.14l.29.3c.23.26.46.51.7.75l.36.37.65.62.39.36.65.56.4.33c.23.19.47.37.7.54l.35.27c.31.22.61.43.92.63l.14.1c.37.23.74.46,1.11.67l.19.1c.3.17.6.33.91.48l.3.15.81.37.33.13.82.32.29.1.93.29.17.05a17.28,17.28,0,0,0,3.44.57,13.67,13.67,0,0,0,1.81,0h.06a12.66,12.66,0,0,0,1.75-.2h0c7-1.25,11.4-7.55,12.54-16.95,0-.41.09-.83.13-1.25.11-1.26.17-2.57.16-3.93a55.42,55.42,0,0,0-.52-7.18A1.15,1.15,0,0,0,1151.14,390.12Z"/><path class="cls-19" d="M1111.49,393.17h0c.14.65.3,1.28.46,1.9.1.37.2.72.3,1.08s.15.52.23.77.23.76.36,1.13c.07.22.14.44.22.67l.39,1.09c.08.22.17.44.26.66s.26.68.4,1,.25.57.37.85.38.83.58,1.24.33.68.5,1,.21.39.31.58.35.64.53.95l.32.54.57.92.21.32a11.54,11.54,0,0,0,6.66,3.05c6.57.61,12.41-5.86,12-16.56-1.8-43.22-35.76-61.67-48.23-68.65-.35,1-.73,2-1.12,3.09-.23.62-.48,1.27-.72,1.92l.12.3c.17.4.34.83.52,1.27.07.08.13.16.2.23.37.43.73.85,1.08,1.28l.27.34c.37.45.74.91,1.09,1.37l.21.26c.37.49.74,1,1.1,1.48l.14.19,1.11,1.57a.41.41,0,0,0,.07.11c.38.56.75,1.12,1.12,1.69v0c10.32,16,14.53,34.93,17.76,49.5Z"/><path class="cls-18" d="M775.42,234.69a15.72,15.72,0,0,0,1,1.46l0,0a17.29,17.29,0,0,0,1.21,1.36,16.68,16.68,0,0,0,2.69,2.21l.15.1c.27.18.55.35.83.51l.26.15.78.42.32.15.8.37.32.14c.31.13.63.25,1,.36l.21.08q.6.21,1.23.39l.18,0,1.07.28.43.09.87.17.5.08c.28.05.57.09.85.12l.54.07.88.07.53,0,1,0h.43c.49,0,1,0,1.48,0l.19,0c.44,0,.89,0,1.33-.08l.52-.05,1-.12.58-.09,1.07-.17.62-.12c.35-.06.7-.14,1-.22s.44-.09.65-.15.73-.18,1.09-.28l1.31-.38.89-.28,1-.36.67-.24c.36-.13.72-.28,1.08-.42l.65-.27,1.08-.47.73-.34,1-.48c.58-.29,1.15-.58,1.73-.89h0l2.54-1.37c13.11-7.13,30.17-16.4,49-19.11h0c.67-.1,1.35-.18,2-.26l.12,0,1.93-.2.23,0c.61,0,1.22-.1,1.84-.13l.32,0,1.76-.07.42,0,1.69,0h1.17a5.88,5.88,0,0,0,.43-.44c.29-.31.59-.6.88-.9q2.1-2.14,4.06-4.11l3-3a96,96,0,0,0-22.54-10.77c-1.46-.47-2.91-.89-4.34-1.27s-2.87-.72-4.28-1l-2.42-.48a86.82,86.82,0,0,0-15.77-1.38c-1.91,0-3.79.08-5.61.21q-3.66.26-7.07.77l-1.68.27c-1.67.28-3.29.61-4.86,1-.52.11-1,.23-1.54.36-1,.24-2,.5-3,.77l-1.43.41a94.58,94.58,0,0,0-13.23,5l-1.18.57c-.51.25-1,.49-1.45.73l-.69.35-1.33.72c-.56.31-1,.58-1.44.82l-.46.28c-.52.31-.85.53-1,.61a51.37,51.37,0,0,0-7.72,6.12,36,36,0,0,0-3.7,4.19q-.4.53-.75,1.05C773.19,223.51,772.38,229.6,775.42,234.69Z"/><path class="cls-19" d="M798.26,243.13l.37-.06,1.07-.17.62-.12c.35-.06.7-.14,1-.22s.44-.09.65-.15.73-.18,1.09-.28l1.31-.38.89-.28,1-.36.67-.24c.36-.13.72-.28,1.08-.42l.65-.27,1.08-.47.73-.34,1-.48c.58-.29,1.15-.58,1.73-.89h0l2.54-1.37c13.11-7.13,30.17-16.4,49-19.11h0c.67-.1,1.35-.18,2-.26l.12,0,1.93-.2.23,0c.61,0,1.22-.1,1.84-.13l.32,0,1.76-.07.42,0,1.69,0h.3l1.3-.44h0Q879,214,881,212c-12.21-4.28-49.82-19.76-84.81,8.22-8.36,6.69-9.4,15.34-4.63,19.89A11.49,11.49,0,0,0,798.26,243.13Z"/><path class="cls-20" d="M1078.08,307.73a49.09,49.09,0,0,1-7-8.24l-.47.1c-10,1.27-20.56-1.27-29.32-6.17a63.12,63.12,0,0,1-12.06-8.78,53.28,53.28,0,0,1-9.56-11.95,49.23,49.23,0,0,1-5.69-14.47,50.25,50.25,0,0,1-1.17-10.11,1.76,1.76,0,0,0,0-.23c0-1,0-2,.05-3,0-.15,0-.27,0-.42-3.89.86-7.91,1.7-12.07,2.21-9.43,1.25-19.77,1-29.5-2.44a48.29,48.29,0,0,1-7-3.15,59.46,59.46,0,0,1-6.3-4,51.06,51.06,0,0,1-10.83-10.45,36.77,36.77,0,0,1-4.16-7.18,38.85,38.85,0,0,1-28.27-1.19c-.5-.17-1-.39-1.48-.61a52,52,0,0,1-5.46-2.91,43.42,43.42,0,0,1-4.71-3.3c-19.75,19.28-72.82,73.12-98.59,119.32-14.14,25.31-22.1,50.31-23.61,73.16a102.61,102.61,0,0,0,4,37.46,88.38,88.38,0,0,0,10,21.46c10.17,15.94,25.67,29.08,46.32,39.24,1.67.83,3.35,1.63,5,2.39,65.65,29.89,120.75,6,173.07-75C1055.53,373.4,1073.25,322.77,1078.08,307.73Z"/><path class="cls-21" d="M914.68,218.25c-2.48,2.32-5.88,5.51-9.94,9.42-1.17,1.12-2.37,2.31-3.65,3.53-17.53,17.09-44.39,44.68-65.6,72.67-33.85,44.67-53.92,98.06-54.66,100,1.51-22.85,9.47-47.85,23.61-73.16,25.77-46.2,78.84-100,98.59-119.32a43.42,43.42,0,0,0,4.71,3.3,52,52,0,0,0,5.46,2.91C913.7,217.86,914.18,218.08,914.68,218.25Z"/><path class="cls-2" d="M912.68,370.84a16.83,16.83,0,0,1-16.42,1.74,13.6,13.6,0,0,1-2.39-1.38,11.71,11.71,0,0,1-4.52-13.3c3.18-11,17.71-16.85,19.36-17.47a3.77,3.77,0,1,1,2.7,7c-3.27,1.26-11.77,5.61-14.35,11.28a9.77,9.77,0,0,0-.46,1.24,4.28,4.28,0,0,0,1.63,5.09,9.08,9.08,0,0,0,10.09-.39,3.77,3.77,0,0,1,4.36,6.16Z"/><path class="cls-2" d="M977.92,450.07c1.84-9.49-.44-18.45-6.43-25.2-8-9-21.55-13.49-37.26-12.36-2.37.18-4.92.41-7.61.67-16.45,1.54-36.9,3.44-55.73-6.41-13.95-7.29-19.09-16-23.63-23.76-3.51-6-7.13-12.15-14-15.88a24.61,24.61,0,0,0-18.53-3c-4.26,1.08-10.22,4.08-14.43,12.09-5.57,10.65-8.11,32.14-.56,54.16,5.83,17,19.77,40.5,53.1,55.74l.23.1c33.37,15.2,67.45,16.22,93.53,2.81C963.6,480.29,974.73,466.44,977.92,450.07Z"/><path class="cls-22" d="M937,427.45l-1.69.1c-2,.15-4.22.33-6.53.57-.23,0-.49,0-.75.07-6,.55-12.86,1.2-20.14,1.28-2.38,0-4.79,0-7.25-.09a102.57,102.57,0,0,1-14.8-1.67c-2.3-.45-4.64-1-7-1.66A76.66,76.66,0,0,1,865,420.69l-1.11-.57c-1.89-1-3.67-2-5.31-3a67.35,67.35,0,0,1-9.81-7.44,61.11,61.11,0,0,1-5-5.22A82.74,82.74,0,0,1,835,391.85c-.25-.41-.46-.8-.7-1.19-1.18-2-2.19-3.69-3.15-5.12-1.68-2.5-3.2-4.19-5.22-5.23l-.66-.41a6,6,0,0,0-.82-.43,9.67,9.67,0,0,0-6-.75c-.71.19-2.83.73-4.82,4.5a31.44,31.44,0,0,0-2.66,8.57,60.67,60.67,0,0,0-.84,7.76A71.08,71.08,0,0,0,814,425.49v0a68.79,68.79,0,0,0,2.73,6.79,73.86,73.86,0,0,0,11.81,18.06,68.78,68.78,0,0,0,5,5.17,93.32,93.32,0,0,0,25.59,16.89l.21.1q2.84,1.28,5.67,2.41,3.36,1.35,6.74,2.47a106.89,106.89,0,0,0,35.83,5.8c2.44,0,4.83-.18,7.19-.41a70.65,70.65,0,0,0,25-7.16,50.46,50.46,0,0,0,14.11-10.5,38.58,38.58,0,0,0,4.59-6,35,35,0,0,0,4.74-11.91c1-4.93,0-9.06-2.92-12.32C955.7,429.77,947.11,427,937,427.45Z"/><path class="cls-23" d="M918.64,429c-3.44.25-7,.44-10.75.48-2.37,0-4.78,0-7.23-.09-30.91,2.7-56.07,15.17-63,29.82a96.33,96.33,0,0,0,21.41,13.22l.21.1q2.84,1.28,5.67,2.41,3.36,1.35,6.74,2.47a106.89,106.89,0,0,0,35.83,5.8c2.44,0,4.83-.18,7.19-.41a70.65,70.65,0,0,0,25-7.16,50.46,50.46,0,0,0,14.11-10.5,38.58,38.58,0,0,0,4.59-6,35,35,0,0,0,4.74-11.91,17.47,17.47,0,0,0,.3-4.38C954.16,435,937.88,429.87,918.64,429Z"/><path class="cls-19" d="M859.29,472.52q2.84,1.28,5.67,2.41,3.36,1.35,6.74,2.47a106.89,106.89,0,0,0,35.83,5.8c2.44,0,4.83-.18,7.19-.41a70.65,70.65,0,0,0,25-7.16,50.46,50.46,0,0,0,14.11-10.5c.66-.71,1.25-1.45,1.85-2.19-1.23-4.62-4.6-9.26-12-12.82-22.19-10.63-45.32,8.81-55.49,20.6C898.35,451.43,910,449.2,910,449.2s-19.42-10.89-39.94-5.91c-12.74,3.1-22.6,12.48-28.24,19.15a99.78,99.78,0,0,0,17.24,10Z"/><path class="cls-2" d="M1198,212.83a75,75,0,0,0-12-17.46,83,83,0,0,0-16-13.41,95.55,95.55,0,0,0-18.2-9.49,70.24,70.24,0,0,0-20.44-4.57,45.32,45.32,0,0,0-15.34,1.65,32.26,32.26,0,0,0-9.5-14.69A48.17,48.17,0,0,0,1083.32,143a45.07,45.07,0,0,0-2-15.45,57.53,57.53,0,0,0-12.57-22,75,75,0,0,0-9.2-8.47,89.16,89.16,0,0,0-10.29-6.69,90.37,90.37,0,0,0-11-5.24,78.58,78.58,0,0,0-12-3.5,76.57,76.57,0,0,0-24.7-.88,90.83,90.83,0,0,0-12,2.31,108.53,108.53,0,0,0-11.4,3.9,91.8,91.8,0,0,0-10.73,5.25c-1.74,1-3.44,2-5.11,3.12a0,0,0,0,1,0,0A57.65,57.65,0,0,0,953.64,88a64.87,64.87,0,0,0-7.48-4.48,65.57,65.57,0,0,0-8-3.54A64,64,0,0,0,903,78a71.12,71.12,0,0,0-31.42,16,73.58,73.58,0,0,0-11.82,13.33,67.08,67.08,0,0,0-4.59,7.63,66.25,66.25,0,0,0-3.65,8.34,51.11,51.11,0,0,0,.63,37A48.21,48.21,0,0,0,862.78,176a39.79,39.79,0,0,0,16.08,9.91A35.57,35.57,0,0,0,890,187.49a33.67,33.67,0,0,0,1.45,7.2c-45.16-28.15-90.16-14.32-110.28-1.13-23.74,15.6-26.49,35.77-18.68,48.84a32.06,32.06,0,0,0,14.41,12.54c11.35,5.17,26.93,5.31,43.57-3.69l2.58-1.39c10.31-5.6,23.32-12.67,37.08-16.07-23.4,25.25-51.58,58.66-68.84,89.61-18.65,33.42-27.33,65.66-25.73,94.83a115.79,115.79,0,0,0,1.82,15.13,107.1,107.1,0,0,0,3.09,12.5c9.32,29.93,30.86,53.4,64,69.74,1.83.89,3.63,1.76,5.46,2.59q41.79,19,79.45,11.75a112.16,112.16,0,0,0,19-5.46c33.21-12.67,64.2-41.55,93.47-86.79a573.23,573.23,0,0,0,47.51-90.2,71.28,71.28,0,0,1,4.5,7.6c6.47,12.61,9.68,27.07,12.23,38.52l.64,2.86c4.14,18.46,14.48,30.12,25.82,35.29a32.09,32.09,0,0,0,18.92,2.63c15-2.7,28.4-18,24.58-46.16-2-14.94-10.31-37.4-28.72-55.93a41.45,41.45,0,0,0,4.31.13c1.19,0,2.37-.12,3.55-.25a52,52,0,0,0,21.2-7.61,76.53,76.53,0,0,0,16.28-13.72,87.34,87.34,0,0,0,12.21-17A92.5,92.5,0,0,0,1206.39,254,81.46,81.46,0,0,0,1198,212.83ZM815.85,236.62,813.31,238c-17.63,9.53-32.68,5.4-37.89-3.3-5-8.44.47-19.63,14-28.53,1.89-1.25,46.12-29.54,95.28,2.09-2.55,2.57-5.37,5.4-8.37,8.49C853,216.41,831.59,228.06,815.85,236.62ZM1019.24,429.5c-52.32,80.91-107.42,104.85-173.07,75-1.66-.76-3.34-1.56-5-2.39-29.32-14.44-48.25-34.86-56.31-60.7-9.74-31.25-2.78-70.53,19.59-110.62,8-14.28,18.53-29.28,29.92-43.77-3.25,11.85-1.94,27.53,19.72,43.53,41.67,23.09,67.08-10.18,68.93-12.16,4.48,1.26,10.55,5.27,10.89,5.49s6.3,4.33,9.1,8c-1.35,2.35-26,36.69,12,69.71,43.76,29.39,64-2,71.68-8a34.62,34.62,0,0,1,17-6.69l.34.24C1037,400.5,1028.74,414.81,1019.24,429.5Zm31.85-56.29-4.7-7.13s-48.75-33.65-60.75-41.7-30.67-7.75-33-7.71a84.33,84.33,0,0,0-18-11.92c-.75-2.07-6.72-18.42-18.1-25.72-8.63-5.54-36.58-23-49.13-30.81,14.6-16,27.74-29.12,35.6-36.79a43.42,43.42,0,0,0,4.71,3.3,52,52,0,0,0,5.46,2.91c12.48,5.68,23.06,4.12,29.75,1.8a36.77,36.77,0,0,0,4.16,7.18,51.06,51.06,0,0,0,10.83,10.45,59.46,59.46,0,0,0,6.3,4,48.29,48.29,0,0,0,7,3.15c9.73,3.48,20.07,3.69,29.5,2.44,4.16-.51,8.18-1.35,12.07-2.21a52.62,52.62,0,0,0,1.12,13.78,49.23,49.23,0,0,0,5.69,14.47,53.28,53.28,0,0,0,9.56,11.95,63.12,63.12,0,0,0,12.06,8.78c8.76,4.9,19.34,7.44,29.32,6.17l.47-.1a49.09,49.09,0,0,0,7,8.24A498.34,498.34,0,0,1,1051.09,373.21Zm100.07,17.05c2.19,16.07-2.64,27.57-12.31,29.31-10,1.79-23-6.86-27.36-26.4l-.64-2.82c-3.88-17.49-9.16-41.3-24.73-58.7-.1-.11-.2-.21-.29-.32l.94-2.51c1.07-2.9,2-5.54,2.83-7.9a2.64,2.64,0,0,0,.1-.3C1143.37,337.79,1150.87,388.05,1151.16,390.26Zm35.13-137.43a73.14,73.14,0,0,1-2.77,16.23c-.74,2.66-1.61,5.26-2.61,7.85a78.25,78.25,0,0,1-3.45,7.5c-5.11,9.59-12.43,18.67-21.06,24.52a33.86,33.86,0,0,1-13.47,5.78,29.33,29.33,0,0,1-13.94-1.29,52.07,52.07,0,0,1-7.15-2.9,23.05,23.05,0,0,1-5.83-4,21.62,21.62,0,0,1-4.53-6.51c-1.33-2.67-2.45-5.79-4-8.81a42.52,42.52,0,0,0-2.36,9.83,23.54,23.54,0,0,0,0,4.2c-9.15-1.23-15.47-6.76-19.1-11a29.94,29.94,0,0,0,9.37-8.58c-9.37,1.17-17.47,1.4-25,.43a49.36,49.36,0,0,1-20.7-7.13,52.1,52.1,0,0,1-16.15-14.81,32.28,32.28,0,0,1-5.46-20.24l.07-1.38.08-1.41a11.4,11.4,0,0,0-.13-2.08,12.47,12.47,0,0,0-3.92-7.34,12.29,12.29,0,0,0-7.88-3.15,13.12,13.12,0,0,0-2.11.14l-.88.16-.41.08-1.57.32A93.61,93.61,0,0,1,999.18,231,53.94,53.94,0,0,1,977,228.22a48.23,48.23,0,0,1-5-2.08c-.81-.41-1.61-.82-2.47-1.31s-1.69-.92-2.48-1.4a54.59,54.59,0,0,1-8.93-6.61,91.35,91.35,0,0,1-15.94-18.64,19.83,19.83,0,0,0-1.73,6.08c-3.32,1.68-12.7,5-24.91-2.4-10.7-6.5-10.93-15.3-10.52-18.8a21.47,21.47,0,0,0,6.8-6.61c-11.36,1.43-20-.7-27.3-4.73a37.94,37.94,0,0,1-9.8-7.42,31,31,0,0,1-6.33-10.48,32.49,32.49,0,0,1-2-12.06,39.25,39.25,0,0,1,2.33-12.31,51.7,51.7,0,0,1,2.68-6c1.11-2,2.2-4,3.46-5.82a55.55,55.55,0,0,1,8.76-10.29A57.12,57.12,0,0,1,906.93,94a50.12,50.12,0,0,1,26.84-.36A53.09,53.09,0,0,1,946.49,99a46.48,46.48,0,0,1,10.6,8.66A82.94,82.94,0,0,1,965.85,119c2.74,4.16,5.32,8.69,8.27,13.43a43,43,0,0,0-.7-16.59,45,45,0,0,0-2.36-7.15c1.28-.62,2.56-1.24,3.86-1.83,3.05-1.38,6.23-2.55,9.38-3.66a85.43,85.43,0,0,1,9.59-2.65,73.29,73.29,0,0,1,9.69-1.59,84.33,84.33,0,0,1,9.65-.28,77,77,0,0,1,9.49,1.07,75.28,75.28,0,0,1,9.17,2.48,80.32,80.32,0,0,1,9,3.91,68.54,68.54,0,0,1,8.38,5,63.2,63.2,0,0,1,7.33,6,43.84,43.84,0,0,1,10.19,15.29,57.94,57.94,0,0,1,3.44,18.42,61.9,61.9,0,0,1-.57,10,48.76,48.76,0,0,1-2.66,10.61l.07.07a23.39,23.39,0,0,0,9.22-7.79,34.76,34.76,0,0,0,3.55-6.08,32.8,32.8,0,0,1,16.57,8.29c5.57,5.14,5.69,9.73,5.65,10.46l0-.15.36.06a28.35,28.35,0,0,0-7.28,8,103.08,103.08,0,0,1,18.26-2.46,84.86,84.86,0,0,1,16.59.89,57.89,57.89,0,0,1,15.73,4.62,77.86,77.86,0,0,1,14.48,8.71,65,65,0,0,1,12,11.38,60.2,60.2,0,0,1,8.56,13.69,65,65,0,0,1,4.71,15.43A71.83,71.83,0,0,1,1186.29,252.83Z"/><g class="cls-24"><polygon class="cls-3" points="904.11 364 904.44 228.22 914.1 234.36 913.84 350.86 904.11 364"/><polygon class="cls-3" points="894.5 360.07 878.71 348.95 879.14 212.15 894.88 222.15 894.5 360.07"/><polygon class="cls-3" points="904.12 364.01 1045.52 317.85 1034.57 310.89 913.85 350.87 904.12 364.01"/><polygon class="cls-3" points="911.04 371.71 927.35 383.2 1075.26 336.74 1056.58 324.87 911.04 371.71"/></g><path id="Pelo" class="cls-25" d="M1177.46,284.41c-5.11,9.59-12.43,18.67-21.06,24.52a33.86,33.86,0,0,1-13.47,5.78,29.33,29.33,0,0,1-13.94-1.29,52.07,52.07,0,0,1-7.15-2.9,23.05,23.05,0,0,1-5.83-4,21.62,21.62,0,0,1-4.53-6.51c-1.33-2.67-2.45-5.79-4-8.81a42.52,42.52,0,0,0-2.36,9.83,23.54,23.54,0,0,0,0,4.2c-9.15-1.23-15.47-6.76-19.1-11a29.85,29.85,0,0,0,9.37-8.59c-9.37,1.18-17.47,1.41-25,.44a49.36,49.36,0,0,1-20.7-7.13,52.1,52.1,0,0,1-16.15-14.81,32.28,32.28,0,0,1-5.46-20.24l.07-1.38.08-1.41a11.4,11.4,0,0,0-.13-2.08,12.41,12.41,0,0,0-2.16-5.33,12.7,12.7,0,0,0-1.71-1.94.21.21,0,0,1,0-.07,12.29,12.29,0,0,0-7.88-3.15,13.12,13.12,0,0,0-2.11.14l-.88.16-.41.08-1.57.32A93.61,93.61,0,0,1,999.18,231,53.94,53.94,0,0,1,977,228.22a48.23,48.23,0,0,1-5-2.08c-.81-.41-1.61-.82-2.47-1.31s-1.69-.92-2.48-1.4a54.59,54.59,0,0,1-8.93-6.61,91.35,91.35,0,0,1-15.94-18.64,19.83,19.83,0,0,0-1.73,6.08c-3.32,1.68-12.7,5-24.91-2.4-10.7-6.5-10.93-15.3-10.52-18.8a21.47,21.47,0,0,0,6.8-6.61c-11.36,1.43-20-.7-27.3-4.73a37.94,37.94,0,0,1-9.8-7.42,31,31,0,0,1-6.33-10.48,32.49,32.49,0,0,1-2-12.06,39.25,39.25,0,0,1,2.33-12.31,51.7,51.7,0,0,1,2.68-6c1.11-2,2.2-4,3.46-5.82a55.55,55.55,0,0,1,8.76-10.29A57.12,57.12,0,0,1,906.93,94a50.12,50.12,0,0,1,26.84-.36A53.09,53.09,0,0,1,946.49,99a46.48,46.48,0,0,1,10.6,8.66A82.94,82.94,0,0,1,965.85,119c2.74,4.16,5.32,8.69,8.27,13.43a43,43,0,0,0-.7-16.59,45,45,0,0,0-2.36-7.15c1.28-.62,2.56-1.24,3.86-1.83,3.05-1.38,6.23-2.55,9.38-3.66a85.43,85.43,0,0,1,9.59-2.65,73.29,73.29,0,0,1,9.69-1.59,84.33,84.33,0,0,1,9.65-.28,77,77,0,0,1,9.49,1.07,75.28,75.28,0,0,1,9.17,2.48,80.32,80.32,0,0,1,9,3.91,67.79,67.79,0,0,1,8.38,5,63.2,63.2,0,0,1,7.33,6,43.84,43.84,0,0,1,10.19,15.29,57.94,57.94,0,0,1,3.44,18.42,61.9,61.9,0,0,1-.57,10,48.76,48.76,0,0,1-2.66,10.61l.07.07a23.39,23.39,0,0,0,9.22-7.79,34.76,34.76,0,0,0,3.55-6.08,32.8,32.8,0,0,1,16.57,8.29c5.57,5.14,5.69,9.73,5.65,10.46l0-.15.36.06a28.35,28.35,0,0,0-7.28,8,102.09,102.09,0,0,1,18.26-2.45,84.1,84.1,0,0,1,16.59.88,57.89,57.89,0,0,1,15.73,4.62,77.86,77.86,0,0,1,14.48,8.71,65,65,0,0,1,12,11.38,60.2,60.2,0,0,1,8.56,13.69,65,65,0,0,1,4.71,15.43,71.83,71.83,0,0,1,.83,16.27,73.14,73.14,0,0,1-2.77,16.23c-.74,2.66-1.61,5.26-2.61,7.85A78.25,78.25,0,0,1,1177.46,284.41Z"/><ellipse id="Luz-4" data-name="Luz" class="cls-26" cx="976.48" cy="283.99" rx="283.41" ry="262.36" transform="translate(-36.24 191.48) rotate(-11)"/><path id="Luz-5" data-name="Luz" class="cls-27" d="M706.3,344.8C678.66,202.56,780.81,63.05,934.46,33.19c89.32-17.35,176.36,6.17,239,56.85-63.14-55.31-153.87-81.71-247.07-63.6C772.79,56.3,670.63,195.81,698.27,338.05c11.58,59.55,44.08,110.14,89.22,146.64C746.53,448.81,717.17,400.77,706.3,344.8Z"/><path id="Luz-6" data-name="Luz" class="cls-28" d="M793.84,176.32h0a29.6,29.6,0,0,1-4-44.32A263.55,263.55,0,0,1,899.94,63.79,29.67,29.67,0,0,1,938.09,86.4h0a29.6,29.6,0,0,1-19.94,33.85,204.59,204.59,0,0,0-85.56,52.85A29.54,29.54,0,0,1,793.84,176.32Z"/><path id="Luz-7" data-name="Luz" class="cls-28" d="M982,109.77h-.31a16.31,16.31,0,0,1-16.52-14.92l-2.29-26.61A16.34,16.34,0,0,1,978.77,50.5l4.4-.07A16.35,16.35,0,0,1,999.58,67.7l-1.51,26.67A16.32,16.32,0,0,1,982,109.77Z"/><path class="cls-2" d="M1193,880.94c-.68-55.7-.32-82.6-5.35-110.81-4.48-25.23-11.54-63.63-17.34-89.52,51.19-90.09,77.58-138.65,79.06-147.48,2.7-16.07-7.51-41.64-10.71-49.09-3.3-7.72-11-24.06-20.71-34.28,2.51-3.16,5-6.35,7.38-9.62,46.55-63.58,64.21-139.64,49.73-214.17C1247.6,84.6,1110.91-12,957.12,1.21a331.81,331.81,0,0,0-34.65,4.85C843,21.5,773.81,64.75,727.62,127.84,681.07,191.41,663.41,267.47,677.89,342q1,5.25,2.27,10.42l-37.88,26.92L644,392.2c.74,5.63,1.63,11.15,2.65,16.4.18.93.38,1.85.57,2.78h0l-3.52,1.93L612,324.43a22.94,22.94,0,0,0,7.67-8.83,34.86,34.86,0,0,0,3.22-15.83c3.74-5.62,9.36-14.3,15-23.84,19.11-32.26,21.51-45.44,21.34-54.07-.26-13-7.94-28-24.91-48.79-4.3-5.25-8.57-10.09-12.14-14,1.62-5.65,3.44-12.72,4.93-20.3,5.5-28,3.63-48-5.73-61.3-7.19-10.19-18.38-15.8-31.51-15.8C574.8,61.66,563,68.27,554,79a49.42,49.42,0,0,0-3.62-4.14,41.8,41.8,0,0,0-30.43-13,45.86,45.86,0,0,0-7.33.6C499,64.57,488,72.17,481.84,83.76c-7.55,14.11-7.95,33-1.23,57.8.31,1.15.63,2.26.95,3.37-7.74-2.87-17.11-4.7-26.8-2.79a39.37,39.37,0,0,0-23.38,14.39c-9.79,12.3-10.65,23.94-9.64,31.53a41.43,41.43,0,0,0,5.9,16.17,35.49,35.49,0,0,0-20.39,15.22c-10.89,16.69-8.26,30-4.13,38.14,4.52,9,11.92,14.17,17.86,18.34.93.65,1.87,1.31,2.79,2,4.17,3.07,11.82,8.69,21.42,11.63,3.35,15.8,10,28.71,19.62,38.4C454,384.61,465.71,438.08,478,474c15.55,45.47,36.9,84.46,64.51,112,10.72,10.67,30.58,22.84,39.75,28.21q-2.58,8.7-5,17.55c-63.16-31.46-194-93.78-242.55-95.49-29.56-1.05-70.53,29.8-125.27,94.26C181,664,156.35,698,145.06,714c-16.42-12-51.74-34.22-86-31.64-18,1.36-33.21,9.2-45.24,23.29-18.41,21.56-18.43,56.8,0,96.68C28,833.16,52,863.58,79.64,885.83c31.88,25.65,66.21,39.2,99.28,39.2,52.05,0,85.41-38,120.73-78.25l6.33-7.2c31.18-35.34,64.51-72.46,77.46-86.85l51.91,27.14c-6.64,35.29-8.1,78.9-4.31,130,6.27,84.64,25.36,166.53,31.27,190.38-14.54,11.86-51.41,45.2-56.84,82.15A57.86,57.86,0,0,0,417,1227.17c11.88,15.74,32.42,21.77,55.57,21.77,21.47,0,45.19-5.19,66.31-12.63,62.57-22,124.91-70.47,123.11-129-1.11-36.08-6.42-92.35-15.81-167.41,29.31,12.73,88.4,35.88,130.61,35.88a89.9,89.9,0,0,0,14.76-1.12c26.15-4.36,54-10.55,83.88-32.41h0c13.08,9.85,33,22.23,50.75,22.23a30,30,0,0,0,15.75-4.14c18.81-11.36,31.27-26.68,37-34.77,8.84,4,25.69,10,39.75,5.69a27.23,27.23,0,0,0,16.63-14.21c.56-1.11,1.52-2.91,2.82-5.28.39.77.77,1.49,1.13,2.12,7.06,12.56,18.92,22.44,18.92,22.44h0s3.08,27.78-6.06,41.25q-1.8,2.6-3.86,5.52c-14.16,20.27-35.59,50.9-25.17,84.57,4.37,14.16,13.49,25.25,25.64,31.23a49.73,49.73,0,0,0,20.83,5,54.54,54.54,0,0,0,6.29-.24,32.42,32.42,0,0,0,2,12.41,34.67,34.67,0,0,0,11.36,14.88c9.58,7.08,20.37,9.18,30.34,8.94a58.37,58.37,0,0,0,14.53-2.15c1-.26,1.91-.55,2.85-.84a57.38,57.38,0,0,0,33.15,10.93c9.11.2,19.76-1.5,32-6.3,44.09-17.38,69.43-77.92,50.43-157.17C1240.93,936.15,1219.72,896.26,1193,880.94Zm32.79-391.39c7.18,16.75,11.11,33.33,9.79,41.19-1.83,8.16-33.07,64.66-70.18,130.17h0c-.52-1.73-1-3.21-1.45-4.41-1.93-5.18-2.07-13.94-2.23-25-.29-19-.67-43.75-9.65-76.89h0a302.05,302.05,0,0,0,23.74-23.46l7.62-8.42-7.17-30a304.45,304.45,0,0,0,32.65-32.1C1214.39,466.89,1220.61,477.42,1225.8,489.55ZM926.43,26.44c153.65-29.86,300.62,61.25,328.26,203.49C1273,324.19,1234.3,417.25,1161.4,478L1145,489.83c-35.07,25.32-75,42.45-118.61,50.93A310.81,310.81,0,0,1,994,545.29c-131,11.28-249.08-61.74-287.18-177.56l-6.07-18.46c-.9-3.71-1.74-7.44-2.48-11.22C670.63,195.81,772.79,56.3,926.43,26.44Zm-240.08,348c.64,1.95,1.31,3.89,2,5.82.32.91.67,1.81,1,2.71.39,1.08.78,2.16,1.19,3.22s.74,1.9,1.12,2.84.79,2,1.2,3,.8,1.9,1.2,2.86.83,2,1.26,2.93.84,1.9,1.27,2.85.87,1.92,1.31,2.87.89,1.89,1.35,2.83.91,1.88,1.37,2.82.93,1.87,1.4,2.79,1,1.86,1.45,2.79,1,1.84,1.46,2.75,1,1.84,1.51,2.75,1,1.81,1.51,2.71l1.59,2.73c.52.88,1,1.77,1.56,2.64s1.11,1.83,1.67,2.73,1.06,1.72,1.6,2.57,1.19,1.85,1.79,2.77,1.05,1.64,1.59,2.45c.71,1.06,1.43,2.11,2.15,3.16s1.6,2.31,2.41,3.45,1.63,2.29,2.46,3.43c.56.76,1.13,1.5,1.69,2.26s1.35,1.81,2,2.7,1.22,1.56,1.83,2.34,1.33,1.7,2,2.54,1.27,1.56,1.91,2.33,1.36,1.65,2,2.47,1.31,1.53,2,2.3,1.39,1.61,2.09,2.4l2,2.27,2.15,2.35q1,1.13,2.07,2.22c.73.78,1.47,1.55,2.21,2.31s1.4,1.45,2.11,2.17l2.28,2.28c.71.7,1.42,1.41,2.14,2.1s1.57,1.51,2.36,2.26l2.15,2c.83.77,1.66,1.52,2.49,2.27s1.41,1.29,2.12,1.92c.91.81,1.83,1.6,2.75,2.39.65.57,1.3,1.14,2,1.7q2.16,1.83,4.36,3.63l1.87,1.51c1.12.89,2.23,1.79,3.36,2.67l2.12,1.61,2.87,2.18,2.29,1.67c.93.68,1.85,1.35,2.79,2l2.38,1.67,2.78,1.92c.81.55,1.63,1.09,2.45,1.63s1.86,1.24,2.8,1.85l2.49,1.59c.95.61,1.9,1.2,2.85,1.79l2.52,1.54c1,.59,1.94,1.17,2.92,1.74l2.53,1.48c1,.57,2,1.14,3,1.7.84.47,1.67.94,2.52,1.4,1,.57,2.07,1.12,3.11,1.68l2.48,1.31c1.1.58,2.21,1.14,3.32,1.7l2.35,1.18c1.29.64,2.59,1.26,3.9,1.88l1.83.88c1.91.89,3.83,1.77,5.76,2.62.57.26,1.16.5,1.73.75,1.38.6,2.76,1.2,4.15,1.78.78.33,1.57.64,2.36,1,1.19.49,2.39,1,3.59,1.45.85.34,1.71.66,2.57,1,1.15.44,2.29.88,3.45,1.3l2.68,1c1.13.41,2.26.81,3.4,1.2.91.32,1.83.63,2.75.93,1.13.38,2.26.76,3.4,1.12l2.78.88c1.15.36,2.29.71,3.44,1l2.8.83,3.49,1,2.8.76c1.19.32,2.38.62,3.58.93l2.75.69,3.74.88,2.64.6,4.07.87,2.37.49c1.72.34,3.46.67,5.19,1l1.29.25q3.24.57,6.51,1.08c.66.11,1.33.2,2,.29,1.52.23,3,.46,4.57.67l2.56.32,4.06.5,2.78.29c1.29.14,2.59.27,3.88.39l2.9.25,3.81.29,3,.2c1.26.08,2.53.15,3.8.21l3,.14,3.82.13,3,.07c1.28,0,2.58,0,3.87.05,1,0,2,0,3,0l4,0,2.88,0c1.39,0,2.78-.08,4.16-.13l2.72-.09c1.54-.07,3.08-.16,4.62-.25l2.29-.13q3.45-.22,6.92-.52a329.17,329.17,0,0,0,34.65-4.85c2.73-.53,5.44-1.1,8.14-1.69l2.58-.59c1.85-.43,3.7-.86,5.53-1.31,1-.24,2-.5,3-.75q2.6-.66,5.17-1.37c1-.26,2-.53,2.93-.81q2.65-.75,5.3-1.56l2.61-.79c2.1-.65,4.2-1.33,6.28-2l1.51-.5q4-1.35,7.93-2.79l.59-.23c2.37-.88,4.74-1.78,7.09-2.72l1.9-.77c1.93-.78,3.85-1.57,5.76-2.39l2.11-.91q2.82-1.23,5.6-2.5l1.93-.89c2-1,4.09-1.93,6.11-2.93l1.23-.6q7.58-3.78,14.91-7.92l.14-.08c2.33-1.32,4.63-2.67,6.92-4l1.16-.7c2-1.2,3.94-2.42,5.88-3.66l1.33-.85q2.93-1.89,5.82-3.85l1-.7c2.24-1.53,4.46-3.08,6.65-4.67h0l2.24,9.35C1119,561.78,1062.31,595.1,996,608,842.36,637.84,695.4,546.73,667.76,404.49c-1-5-1.78-10.06-2.44-15.08ZM448.25,170c7.91-9.94,19.75-7.54,28.28-3.79a58.19,58.19,0,0,1,10.1,5.74l0,0,.21.15.07,0,.09.07.06,0,1.6,1,.21.12,1.86,1.19,0,0c1.34.87,2.78,1.84,4.27,2.89,11.37,8.08,25,21.31,14.08,35.47-13.82,17.87-32.29,6.63-45.68-3.22S434.64,187,448.25,170Zm-11.71,90.6c-9.88-7.26-22-12.9-11.24-29.33s33.9,1.89,33.9,1.89c7.75,4.73,21.24,16.64,11,29.82S446.42,267.82,436.54,260.55ZM562.12,575.23c-42.47-42.29-91.3-139.66-77.73-233.77.63-4.32,2.57-15,5.19-21.63-9.67-5.51-17.83-14.76-22.13-29.82a38.63,38.63,0,0,0,19.83-13.89c6.77-8.75,9.46-19.2,7.59-29.41-.18-1-.41-1.94-.66-2.88a41.31,41.31,0,0,0,5.65-.7c10.18-2,19.29-7.9,26.34-17,7.17-9.26,9.9-19.88,7.91-30.7-2-20.42-23.52-33.61-23.52-33.61s-32.95-72,5.44-78.14c36.55-5.87,35.67,69.9,35.51,77.21.21-7,3.27-77.67,38.37-77.67,24.9,0,19.86,37,13.93,61.14-8.12-2-18.57.07-29.14,6.3-17.88,10.56-31.45,31.39-21.45,54.15A75.76,75.76,0,0,0,561.9,219c-18.83,9.56-31.19,33.13-31.19,33.13s9.78-13.58,33.69-18.74,32.79.79,32.79.79S577.9,207.34,573,196.14c-3-6.89-1.58-13.67,4.29-20.16,7.42-8.21,13.8-11.45,21.11-10.78s39,40.17,39.35,57.09c.36,18.11-37,71.72-37,71.72s1.74,7.81-4,16.72-54.33,32.71-94.26,12.2c2,2.18,15.57,14.89,39.11,17s48.68-5.57,50.8-6.35l35.24,99s-.23,8.68-19,29.05c13-2.47,23.14-17.38,23.14-17.38s2.4,7.33-.32,33.68c10-24.72,11.38-39.71,11.38-39.71l9.68-5.28c.93,3.15,1.9,6.27,2.94,9.37h0c-26.65,45.58-49,96.21-66.84,151.17C581.67,590.17,571.11,584.18,562.12,575.23ZM289.82,825.32q-3.21,3.63-6.37,7.24c-33.4,38.06-62.24,70.92-104.53,70.92-61.56,0-120.95-56.75-145.57-110.15-14.5-31.45-15.67-59-3.14-73.67,8.27-9.69,18.23-14.85,30.43-15.78,36.77-2.83,79.3,33.44,79.72,33.8l9.17,7.94,6.8-10c11.51-17,25.58-36.43,40.87-56,48,23,82.77,56,120.93,113.84C308.91,803.74,299.27,814.61,289.82,825.32ZM531.7,1216c-44.72,15.76-84.83,15-97.52-1.79a36.56,36.56,0,0,1-7.4-28.61c5.31-36.28,53.58-72.12,54.06-72.47l5.94-4.35-1.89-7.11c-.14-.54-8.32-31.59-16.66-76.41a215.24,215.24,0,0,0,24.61,1.37c41.67,0,89.86-10.82,138.18-31.36,5.4,48.37,8.61,86.7,9.41,112.76C641.88,1155.37,585.09,1197.18,531.7,1216Zm491.07-305.17a13,13,0,0,1-8.21,7.09c-11.22,3.47-28.83-4.19-34.67-7.43l-6-3.33-3.47,5.91c-.13.21-12.77,21.45-35.76,35.33-11.59,7-32.46-4.23-47.84-15.2,34.65-29.74,65.85-77.42,95-145.3,6.56,12.11,13.86,24.46,21.21,36.65,4.24,7,8.63,14.3,9.86,17,1,2.19,1.38,3.93,2.26,8.64,1.52,8.18,9,29.29,15.78,45.78h0C1026.81,903.26,1024,908.37,1022.77,910.81Zm171,209.64c-14.81,5.85-25.89,5.33-33.53,3a57.76,57.76,0,0,0,7.8-8.83,54.13,54.13,0,0,0,10-24.14c-7.29,4.9-13.79,9.4-20.32,13.11a104.52,104.52,0,0,1-19.2,8.81,61.05,61.05,0,0,1-9.51,2.4,47.66,47.66,0,0,1-9.32.48c-6-.3-11.67-2.07-15-4.69a9.61,9.61,0,0,1-3.32-3.86,7.86,7.86,0,0,1-.63-4.74,18.74,18.74,0,0,1,2.53-7.07c.35-.65.76-1.26,1.15-1.93l1.78-2.79c1.17-1.87,2.26-3.8,3.35-5.76a87.5,87.5,0,0,0,5.7-12.47,44.65,44.65,0,0,0,2.89-14.31,29.94,29.94,0,0,0-3.41-15.24,21.75,21.75,0,0,0-4.93-6.16,23.93,23.93,0,0,0-2.2-1.66c1.4-.62,2.86-1.21,4.34-1.72,2.48-.82,5.07-1.47,7.71-2.07,5.29-1.24,10.85-2,16.8-3.45a41.69,41.69,0,0,0-17.54-4.15,45.09,45.09,0,0,0-9.24.85,40.16,40.16,0,0,0-9.09,2.8,38.22,38.22,0,0,0-14.69,11.91,33.71,33.71,0,0,0-4.47,8.11,35.32,35.32,0,0,0-1.32,4.41,34,34,0,0,0-.58,4.6,37.19,37.19,0,0,0,3.46-3c1-1,2.17-2,3.12-3l6-5.53a56.64,56.64,0,0,1,8.19-6.07,22.94,22.94,0,0,1,1.17,3.73,24.5,24.5,0,0,1,.38,4.59,29.12,29.12,0,0,1-1.66,8.57,63.83,63.83,0,0,1-9.29,17.57c-1,1.44-2.13,2.86-3.32,4.25l-.9,1.12-.05-.12c-10.78,4-20.44,4.2-27.88.56-6.53-3.23-11.51-9.47-14-17.59-7.14-23.13,9.77-47.3,22.12-64.94,1.4-2,2.77-4,4-5.78,14.35-21.11,13.53-49.82,7.73-63.58a37.18,37.18,0,0,0-4.44-7.64c-7-9.38-17.11-15.53-18.66-18.8l-.21-.42h0c-22.31-46.92-16.37-53.76-22.79-67.52-7-15-52.75-80.47-54.11-114.67-.29-7.1-13.43-21.12-14.16-46.83-9,15.57-7.6,42.07-7.38,47.69.52,12.88,5.25,27.83,12.34,43.79C899.34,934.84,832.4,946,788,953.43c-41.85,7-123.62-28.74-145-38.55-5.77-44.42-3.89-32-6.43-49.31-2.7-23.39-28.77-62.87-28.77-62.87s8.41,72.86,14.58,120.81q3.35,26,6.1,49.39c-58.72,26-119.25,37-164.16,30.07-4.84-28.83-9.3-61.53-11.76-94.68-6.48-87.5-.2-195.86,66.57-215.23C612.46,666,729,746,792.43,798.33c15.07,12.44,27.15,23.32,35.21,30.84-1.1-5.64-9.52-35.8-40.68-63-13.86-10.76-29.41-22.08-46.18-33.12-38.44-25.27-75.29-43.66-109.55-54.67-43.74-14-83.49-16.07-118.13-6-35.18,10.2-59.63,39.07-72.73,85.82L387.5,730.54s4.57-38.49-9.73-53.16c5.07,27.71.85,48.52.85,48.52s-10.09-14-43.77-26.25C365.27,723.83,373,732.1,373,732.1c-.27.3-17.48,19.36-40.08,44.66-37.71-56.09-74.26-90.55-122-114.48,43.94-54,94.17-104.54,122.19-104.54h.79c38.86,1.37,149.38,50.64,227.1,88.89,5.86,2.91,32.28,16.44,32.28,16.44s-.07-6.33,3.61-21.67c17.2-63.43,40.27-121.53,68.73-173.26h0C714.94,576.53,833.93,645.31,965.39,634a333.38,333.38,0,0,0,34.73-4.87,324.16,324.16,0,0,0,133.52-59.44c10.9,47.37,2.95,75.15,10.14,94.36,4.39,11.73,19.44,75.83,25.76,124.89,6.11,47.4,3.26,84.56,3.26,84.56l-.13,3.39s-56.82,6.13-81.54,40.9c29.06-21.73,63.84-25.26,79.82-23.48,16.38,7.54,41.5,28.45,59.26,95.53C1246.12,1049.9,1225.39,1108,1193.74,1120.45Z"/></g></g></g></svg>