<svg xmlns="http://www.w3.org/2000/svg" viewBox="0 0 445.83 299.27"><defs><style>.cls-1{fill:#ccc;fill-rule:evenodd;}</style></defs><g id="Camada_2" data-name="Camada 2"><g id="Camada_1-2" data-name="Camada 1"><polygon class="cls-1" points="260.75 159.27 244.29 203.38 277.22 203.38 260.75 159.27"/><polygon class="cls-1" points="351.57 159.27 335.11 203.38 368.04 203.38 351.57 159.27"/><polygon class="cls-1" points="260.75 159.27 231.81 81.71 198.88 81.71 244.29 203.38 260.75 159.27"/><polygon class="cls-1" points="289.7 81.71 260.75 159.27 277.22 203.38 306.16 125.83 289.7 81.71"/><polygon class="cls-1" points="289.7 81.71 306.16 125.83 322.63 81.71 289.7 81.71"/><polygon class="cls-1" points="322.63 81.71 306.16 125.83 335.11 203.38 351.57 159.27 322.63 81.71"/><polygon class="cls-1" points="380.52 81.71 357.81 142.55 351.57 159.27 368.04 203.38 390.74 142.55 413.45 81.71 431.35 33.75 402.32 23.31 380.52 81.71"/><polygon class="cls-1" points="402.32 23.31 431.35 33.75 445.83 38.96 427.48 0 388.52 18.35 402.32 23.31"/><polygon class="cls-1" points="31.03 173.07 31.03 81.71 0 81.71 0 204.1 92.96 204.1 92.96 173.07 31.03 173.07"/><polygon class="cls-1" points="122 112.76 122.22 204.1 153.25 204.03 153.04 112.76 183.6 112.76 183.6 81.75 152.96 81.75 152.96 81.71 137.45 81.75 91.81 81.75 91.81 112.76 122 112.76"/><path class="cls-1" d="M54.84,288.88l-6.62-6.7a36.42,36.42,0,0,1-7.63,5.57,19.3,19.3,0,0,1-9.21,2.05,18.34,18.34,0,0,1-7.75-1.63,19,19,0,0,1-6.16-4.49,20.18,20.18,0,0,1-4-6.66A23.1,23.1,0,0,1,12,268.86a22.78,22.78,0,0,1,1.42-8.13,20.12,20.12,0,0,1,4-6.58,19.27,19.27,0,0,1,6.16-4.44,18.49,18.49,0,0,1,7.75-1.63,19.41,19.41,0,0,1,9,2,33,33,0,0,1,7.46,5.28l6.62-7.62A41,41,0,0,0,50,244.06a28.6,28.6,0,0,0-5.11-2.89,30,30,0,0,0-6.08-1.89,37.49,37.49,0,0,0-7.33-.67A30.6,30.6,0,0,0,19.23,241,29.24,29.24,0,0,0,3.44,257.21a32.49,32.49,0,0,0,0,23.71,29.56,29.56,0,0,0,6.24,9.59,29.24,29.24,0,0,0,9.43,6.41A29.79,29.79,0,0,0,31,299.27a36.17,36.17,0,0,0,7.5-.72,26.77,26.77,0,0,0,6.24-2.09,30.61,30.61,0,0,0,5.32-3.27,37.24,37.24,0,0,0,4.74-4.31Zm67.85-20a30.59,30.59,0,0,0-2.26-11.73A29,29,0,0,0,104.51,241a31.35,31.35,0,0,0-12.39-2.39,30.55,30.55,0,0,0-22.12,9,29.38,29.38,0,0,0-6.37,9.68,31.54,31.54,0,0,0,0,23.45,29.12,29.12,0,0,0,15.92,16.13A31.37,31.37,0,0,0,92,299.27a30.93,30.93,0,0,0,12.4-2.43,30.48,30.48,0,0,0,9.71-6.58,29.44,29.44,0,0,0,6.37-9.67,30.67,30.67,0,0,0,2.26-11.73Zm-10.8.16a22.29,22.29,0,0,1-1.47,8.09,20.49,20.49,0,0,1-4.06,6.62,19.07,19.07,0,0,1-6.24,4.44,19.71,19.71,0,0,1-22.37-4.57,20.6,20.6,0,0,1-4.11-6.66,23.12,23.12,0,0,1,0-16.17,20.45,20.45,0,0,1,4.07-6.62A19,19,0,0,1,84,249.71a19.46,19.46,0,0,1,8-1.63,19.4,19.4,0,0,1,14.36,6.2,20.6,20.6,0,0,1,4.11,6.66,22.28,22.28,0,0,1,1.47,8.08Zm64.17,11.15-31.35-40.55h-9.54v58.64h10.22V256.54l32.27,41.72h8.62V239.62H176.06v40.55ZM210,255a6.21,6.21,0,0,1,2.52-5,10.81,10.81,0,0,1,7-2.06,21.63,21.63,0,0,1,8,1.55,35.93,35.93,0,0,1,8,4.49l5.53-7.8a34.37,34.37,0,0,0-9.68-5.48,33.48,33.48,0,0,0-11.6-1.89,25.46,25.46,0,0,0-8,1.22,18.32,18.32,0,0,0-6.29,3.47,16.33,16.33,0,0,0-4.12,5.41,16.13,16.13,0,0,0-1.5,7,16.82,16.82,0,0,0,1.3,7,13.43,13.43,0,0,0,3.79,4.85A21.18,21.18,0,0,0,211,271a69.2,69.2,0,0,0,8.37,2.43c2.73.67,4.95,1.32,6.67,1.93a17.27,17.27,0,0,1,4,2,5.86,5.86,0,0,1,2,2.3,7.17,7.17,0,0,1,.54,2.85,6.36,6.36,0,0,1-2.8,5.45,12.79,12.79,0,0,1-7.59,2,23.78,23.78,0,0,1-9.88-2,35.82,35.82,0,0,1-8.63-5.66l-6.2,7.38A35.64,35.64,0,0,0,209,296.8a37.08,37.08,0,0,0,13,2.3,29,29,0,0,0,8.46-1.17,18.81,18.81,0,0,0,6.58-3.44,16,16,0,0,0,4.29-5.53,17.37,17.37,0,0,0,1.53-7.45,15.6,15.6,0,0,0-1.21-6.41,13.7,13.7,0,0,0-3.58-4.78,20.29,20.29,0,0,0-5.92-3.47,65.53,65.53,0,0,0-8.18-2.6q-4.2-1-6.94-1.93a17,17,0,0,1-4.28-2,6.11,6.11,0,0,1-2.14-2.34,7.13,7.13,0,0,1-.59-3Zm94.25-15.33H294v33.76q0,8.13-4,12.23c-2.64,2.74-6.25,4.11-10.86,4.11s-8.31-1.43-10.95-4.28-4-7-4-12.48V239.62H254.05v33.76a32.32,32.32,0,0,0,1.76,11.18,21.86,21.86,0,0,0,5,8.09,20.82,20.82,0,0,0,7.88,4.9,30.62,30.62,0,0,0,10.3,1.63,31.28,31.28,0,0,0,10.43-1.63,20.59,20.59,0,0,0,7.92-4.94,22.52,22.52,0,0,0,5.07-8.26,33.44,33.44,0,0,0,1.8-11.47V239.62Zm14.16,58.64h41V289H328.61V239.62H318.39v58.64Zm68.27-49.09v49.09H376.27V249.17h-18.6v-9.55h47.59v9.55Z"/></g></g></svg>