<svg xmlns="http://www.w3.org/2000/svg" viewBox="0 0 974.51 604.22"><defs><style>.cls-1{fill:#ccc;}.cls-2{fill:#af7b43;}</style></defs><g id="Camada_2" data-name="Camada 2"><g id="Camada_1-2" data-name="Camada 1"><path class="cls-1" d="M772.86,45c17.26,3.59,9.08-31.61-21.51-40.36-50.14-14.34-167.7,2.25-384.14,87a.6.6,0,0,0,.38,1.14C420.69,78.24,649.51,19.29,772.86,45Z"/><path class="cls-1" d="M190.74,157.61a3.11,3.11,0,0,1-1.07-6.11c68.68-16.1,192-50.51,305.73-72.26C702.11,39.71,773.55,55,783.18,63.11c3.09,2.61,7,11.28.64,12.33,0,0-66.45-15.62-492.35,82.19C266.93,163.26,190.74,157.61,190.74,157.61Z"/><path class="cls-1" d="M303,170.61a55.63,55.63,0,0,0-20.25,9.2c-19.15,13.89-58.17,44.36-69.93,69.84a2.64,2.64,0,0,0,4.13,3.1c18.16-16.07,75.71-57.32,233.3-113a.71.71,0,0,0-.37-1.36C406.64,147.33,357.91,158,303,170.61Z"/><path class="cls-1" d="M4,602.52a2.92,2.92,0,0,1-.91-2.17V544.87A2.9,2.9,0,0,1,4,542.66a3.06,3.06,0,0,1,2.18-.87,3,3,0,0,1,2.23.87,3,3,0,0,1,.87,2.21v55.48a3,3,0,0,1-.87,2.17,3,3,0,0,1-2.23.91A3,3,0,0,1,4,602.52Z"/><path class="cls-1" d="M49.28,602.56a3,3,0,0,1-.87-2.21V544.87a3,3,0,0,1,.87-2.21,3.2,3.2,0,0,1,4.61.23l38,49.57V544.87a2.9,2.9,0,0,1,.91-2.21,3.23,3.23,0,0,1,4.41,0,3,3,0,0,1,.87,2.21v55.48a3,3,0,0,1-.87,2.17,3,3,0,0,1-2.23.91,2.61,2.61,0,0,1-2.3-1l-38-49.57v47.51a3,3,0,0,1-.87,2.17,2.93,2.93,0,0,1-2.22.91A3,3,0,0,1,49.28,602.56Z"/><path class="cls-1" d="M183.84,542.58a2.75,2.75,0,0,1,.75,2,4.6,4.6,0,0,1-.39,1.74l-23.67,55.17a2.9,2.9,0,0,1-2.77,2,3.1,3.1,0,0,1-1.71-.43,3.26,3.26,0,0,1-1.15-1.54L131.31,546.6a5.56,5.56,0,0,1-.47-2.05,2.55,2.55,0,0,1,.83-2,3.12,3.12,0,0,1,2.18-.75,2.87,2.87,0,0,1,2.86,2l21,50,21-49.88a2.89,2.89,0,0,1,3.1-2.13A2.65,2.65,0,0,1,183.84,542.58Z"/><path class="cls-1" d="M218.22,602.52a2.92,2.92,0,0,1-.91-2.17V544.87a2.9,2.9,0,0,1,.91-2.21,3.07,3.07,0,0,1,2.19-.87h37.24a3,3,0,0,1,2.22.87,2.91,2.91,0,0,1,.88,2.13,2.77,2.77,0,0,1-.88,2.09,3.1,3.1,0,0,1-2.22.83H223.5v21.78h24.86a3,3,0,0,1,2.22.87,2.91,2.91,0,0,1,.88,2.13,2.8,2.8,0,0,1-.92,2.13,3.06,3.06,0,0,1-2.18.87H223.5v22h34.15a3.1,3.1,0,0,1,2.22.83,2.77,2.77,0,0,1,.88,2.09,2.89,2.89,0,0,1-.88,2.13,3,3,0,0,1-2.22.87H220.41A3,3,0,0,1,218.22,602.52Z"/><path class="cls-1" d="M301.2,601a18.86,18.86,0,0,1-8.37-8.64,2.55,2.55,0,0,1,.51-3.12,3.31,3.31,0,0,1,2.26-.75,3.36,3.36,0,0,1,1.79.52,3,3,0,0,1,1.23,1.46,13.35,13.35,0,0,0,6.08,5.72,21.37,21.37,0,0,0,9.88,2.17q6.51,0,10.48-3.12a10.45,10.45,0,0,0,4-8.72,10.92,10.92,0,0,0-3.7-8.36c-2.46-2.27-6.15-3.71-11.07-4.35q-9.22-1.1-14.5-5.72a14.47,14.47,0,0,1-5.28-11.32,13.9,13.9,0,0,1,2.58-8.33,16.53,16.53,0,0,1,7.15-5.53A26.5,26.5,0,0,1,314.58,541a21.65,21.65,0,0,1,11,2.76,20.94,20.94,0,0,1,7.47,7.18,3.56,3.56,0,0,1,.55,1.9,2.67,2.67,0,0,1-1.43,2.37,3.16,3.16,0,0,1-1.43.31,3.23,3.23,0,0,1-1.63-.43,3.5,3.5,0,0,1-1.23-1.22q-4.44-6.95-13.42-7-6.42,0-10.16,2.68a8.87,8.87,0,0,0-3.73,7.66q0,9.24,15,11.21,9.84,1.43,14.69,6a15.86,15.86,0,0,1,4.84,12.07,16.71,16.71,0,0,1-2.7,9.55,16.94,16.94,0,0,1-7.39,6.12,25.47,25.47,0,0,1-10.48,2.09A27.3,27.3,0,0,1,301.2,601Z"/><path class="cls-1" d="M413.45,542.58a2.81,2.81,0,0,1,.79,2,2.68,2.68,0,0,1-.79,2,2.8,2.8,0,0,1-2.07.79h-18.9v53a3,3,0,0,1-.87,2.17,3.12,3.12,0,0,1-5.32-2.17v-53H367.47a2.8,2.8,0,0,1-2.07-.79,2.65,2.65,0,0,1-.79-2,2.77,2.77,0,0,1,.79-2,2.8,2.8,0,0,1,2.07-.79h43.91A2.8,2.8,0,0,1,413.45,542.58Z"/><path class="cls-1" d="M447.55,602.52a2.92,2.92,0,0,1-.91-2.17V544.87a2.9,2.9,0,0,1,.91-2.21,3.07,3.07,0,0,1,2.19-.87,3,3,0,0,1,2.22.87,3,3,0,0,1,.87,2.21v55.48a3,3,0,0,1-.87,2.17,2.94,2.94,0,0,1-2.22.91A3,3,0,0,1,447.55,602.52Z"/><path class="cls-1" d="M553.12,542.66a3,3,0,0,1,.88,2.21v55.48a3,3,0,0,1-.88,2.17,2.83,2.83,0,0,1-2.14.91,3.06,3.06,0,0,1-2.26-.91,2.93,2.93,0,0,1-.92-2.17V555.68l-22.07,44.83A3,3,0,0,1,523,602a3,3,0,0,1-2.86-1.89l-22-43.73v44a3,3,0,0,1-.87,2.17,2.93,2.93,0,0,1-2.22.91,3,3,0,0,1-2.19-.91,2.92,2.92,0,0,1-.91-2.17V544.87a2.9,2.9,0,0,1,.91-2.21,3.22,3.22,0,0,1,5,.71l25.41,50.2,24.93-50.2a3.07,3.07,0,0,1,2.78-1.58A2.9,2.9,0,0,1,553.12,542.66Z"/><path class="cls-1" d="M594.06,602.52a2.92,2.92,0,0,1-.91-2.17V544.87a2.9,2.9,0,0,1,.91-2.21,3.06,3.06,0,0,1,2.18-.87h37.24a3,3,0,0,1,2.23.87,2.9,2.9,0,0,1,.87,2.13,2.76,2.76,0,0,1-.87,2.09,3.14,3.14,0,0,1-2.23.83H599.34v21.78h24.85a3,3,0,0,1,2.23.87,2.9,2.9,0,0,1,.87,2.13,2.79,2.79,0,0,1-.91,2.13,3.07,3.07,0,0,1-2.19.87H599.34v22h34.14a3.14,3.14,0,0,1,2.23.83,2.76,2.76,0,0,1,.87,2.09,2.88,2.88,0,0,1-.87,2.13,3,3,0,0,1-2.23.87H596.24A3,3,0,0,1,594.06,602.52Z"/><path class="cls-1" d="M672.23,602.56a3,3,0,0,1-.87-2.21V544.87a3,3,0,0,1,.87-2.21,3.2,3.2,0,0,1,4.61.23l38,49.57V544.87a2.9,2.9,0,0,1,.91-2.21,3.23,3.23,0,0,1,4.41,0,3,3,0,0,1,.87,2.21v55.48a3,3,0,0,1-.87,2.17,3,3,0,0,1-2.23.91,2.61,2.61,0,0,1-2.3-1l-38-49.57v47.51a3,3,0,0,1-.87,2.17,2.93,2.93,0,0,1-2.22.91A3,3,0,0,1,672.23,602.56Z"/><path class="cls-1" d="M802.23,542.58a2.81,2.81,0,0,1,.79,2,2.68,2.68,0,0,1-.79,2,2.8,2.8,0,0,1-2.07.79h-18.9v53a3,3,0,0,1-.87,2.17,3.13,3.13,0,0,1-4.41,0,2.92,2.92,0,0,1-.91-2.17v-53H756.25a2.8,2.8,0,0,1-2.07-.79,2.65,2.65,0,0,1-.79-2,2.77,2.77,0,0,1,.79-2,2.8,2.8,0,0,1,2.07-.79h43.91A2.8,2.8,0,0,1,802.23,542.58Z"/><path class="cls-1" d="M847.81,600.12a29.55,29.55,0,0,1-11.32-11.33,34.13,34.13,0,0,1,0-32.4,29.65,29.65,0,0,1,11.32-11.29,34.27,34.27,0,0,1,32.51,0,29.55,29.55,0,0,1,11.36,11.29,34.13,34.13,0,0,1,0,32.4,29.45,29.45,0,0,1-11.36,11.33,34.27,34.27,0,0,1-32.51,0ZM877.15,595a24.61,24.61,0,0,0,9.17-9.28,27.43,27.43,0,0,0,0-26.2,24.61,24.61,0,0,0-9.17-9.28,27,27,0,0,0-26.21,0,24.61,24.61,0,0,0-9.17,9.28,27.43,27.43,0,0,0,0,26.2,24.61,24.61,0,0,0,9.17,9.28,27,27,0,0,0,26.21,0Z"/><path class="cls-1" d="M937.5,601a18.88,18.88,0,0,1-8.38-8.64,2.51,2.51,0,0,1-.32-1.26,2.41,2.41,0,0,1,.84-1.86,3.29,3.29,0,0,1,2.26-.75,3.41,3.41,0,0,1,1.79.52,3.1,3.1,0,0,1,1.23,1.46,13.33,13.33,0,0,0,6.07,5.72,21.41,21.41,0,0,0,9.89,2.17q6.51,0,10.48-3.12a10.44,10.44,0,0,0,4-8.72,10.91,10.91,0,0,0-3.69-8.36c-2.47-2.27-6.16-3.71-11.08-4.35q-9.21-1.1-14.49-5.72a14.47,14.47,0,0,1-5.28-11.32,13.9,13.9,0,0,1,2.58-8.33,16.5,16.5,0,0,1,7.14-5.53A26.55,26.55,0,0,1,950.88,541a21.58,21.58,0,0,1,11,2.76,20.86,20.86,0,0,1,7.47,7.18,3.48,3.48,0,0,1,.55,1.9,2.66,2.66,0,0,1-1.42,2.37,3.22,3.22,0,0,1-1.43.31,3.18,3.18,0,0,1-1.63-.43,3.35,3.35,0,0,1-1.23-1.22q-4.46-6.95-13.42-7-6.43,0-10.17,2.68a8.87,8.87,0,0,0-3.73,7.66q0,9.24,15,11.21,9.84,1.43,14.69,6t4.84,12.07a16.71,16.71,0,0,1-2.7,9.55,17,17,0,0,1-7.38,6.12,25.54,25.54,0,0,1-10.48,2.09A27.3,27.3,0,0,1,937.5,601Z"/><path class="cls-2" d="M0,522.59A2.56,2.56,0,0,1,2.47,520a30.92,30.92,0,0,0,9.43-1.49,10.65,10.65,0,0,0,6-5.1,22.59,22.59,0,0,0,2.21-9q.33-5.43.34-13.26V321.1q0-7.83-.34-13.27A21.18,21.18,0,0,0,17.86,299a11.61,11.61,0,0,0-6-5.11,28.14,28.14,0,0,0-9.45-1.65A2.55,2.55,0,0,1,0,289.68v0a2.55,2.55,0,0,1,2.56-2.56H94.38a2.55,2.55,0,0,1,2.56,2.56v0a2.55,2.55,0,0,1-2.43,2.55,28.74,28.74,0,0,0-9.3,1.65A11.59,11.59,0,0,0,79.08,299a21,21,0,0,0-2.21,8.84q-.34,5.44-.34,13.27v193a2.56,2.56,0,0,0,2.56,2.56h70.57q8.18,0,12.76-4.08a23.06,23.06,0,0,0,6.63-10.55,56.94,56.94,0,0,0,2.38-14.79q.28-7,.33-14a2.55,2.55,0,0,1,2.55-2.53h5.11a2.56,2.56,0,0,1,2.56,2.56v49.31a2.56,2.56,0,0,1-2.56,2.55H2.56A2.55,2.55,0,0,1,0,522.63Z"/><path class="cls-2" d="M207.15,522.58A2.55,2.55,0,0,1,209.6,520a28.21,28.21,0,0,0,9.45-1.66,11.52,11.52,0,0,0,5.95-5.1,21.46,21.46,0,0,0,2.22-9q.33-5.61.34-13.09V321.1q0-7.83-.34-13.27A21,21,0,0,0,225,299a11.58,11.58,0,0,0-5.95-5.11,28.24,28.24,0,0,0-9.45-1.65,2.55,2.55,0,0,1-2.45-2.55v0a2.55,2.55,0,0,1,2.55-2.56h91.83a2.56,2.56,0,0,1,2.56,2.56v0a2.55,2.55,0,0,1-2.43,2.55,28.86,28.86,0,0,0-9.31,1.65,11.56,11.56,0,0,0-6.12,5.11,20.88,20.88,0,0,0-2.21,8.84q-.34,5.44-.34,13.27V491.17q0,7.49.34,13.09a21.32,21.32,0,0,0,2.21,9,11.5,11.5,0,0,0,6.12,5.1,28.33,28.33,0,0,0,9.31,1.65,2.55,2.55,0,0,1,2.43,2.55v0a2.56,2.56,0,0,1-2.56,2.55H209.7a2.55,2.55,0,0,1-2.55-2.55Z"/><path class="cls-2" d="M785.73,522.58a2.55,2.55,0,0,1,2.46-2.54,28.21,28.21,0,0,0,9.45-1.66,11.56,11.56,0,0,0,6-5.1,21.62,21.62,0,0,0,2.21-9q.33-5.61.34-13.09V321.1q0-7.83-.34-13.27a21.18,21.18,0,0,0-2.21-8.84,11.62,11.62,0,0,0-6-5.11,28.26,28.26,0,0,0-9.46-1.65,2.55,2.55,0,0,1-2.45-2.55v0a2.56,2.56,0,0,1,2.56-2.56H965.15a2.56,2.56,0,0,1,2.56,2.56V339a2.56,2.56,0,0,1-2.56,2.55H960A2.54,2.54,0,0,1,957.5,339q0-6.92-.34-14a56.66,56.66,0,0,0-2.38-14.8,23,23,0,0,0-6.63-10.54q-4.59-4.1-12.75-4.09H864.82a2.56,2.56,0,0,0-2.56,2.56v102a2.56,2.56,0,0,0,2.56,2.56h36.56q5.77,0,8.84-3.23a20.55,20.55,0,0,0,4.6-8.16,40.87,40.87,0,0,0,1.7-10.89c.08-3.1.14-6.17.16-9.21a2.53,2.53,0,0,1,2.54-2.52h5.12a2.55,2.55,0,0,1,2.55,2.55v71.42a2.56,2.56,0,0,1-2.55,2.56h-5.12a2.54,2.54,0,0,1-2.54-2.53c0-3-.08-6.1-.16-9.21a40.86,40.86,0,0,0-1.7-10.88,20.55,20.55,0,0,0-4.6-8.16q-3.06-3.24-8.84-3.24H864.82a2.56,2.56,0,0,0-2.56,2.56V514.12a2.56,2.56,0,0,0,2.56,2.56H942.2q8.16,0,12.75-4.08a23,23,0,0,0,6.64-10.55A56.94,56.94,0,0,0,964,487.26q.28-7,.33-14a2.54,2.54,0,0,1,2.55-2.53H972a2.55,2.55,0,0,1,2.56,2.56v49.31a2.55,2.55,0,0,1-2.56,2.55H788.29a2.56,2.56,0,0,1-2.56-2.55Z"/><path class="cls-2" d="M544.05,287.08H484.54a2.56,2.56,0,0,0-2.56,2.56h0a2.55,2.55,0,0,0,2.53,2.55,127.25,127.25,0,0,1,13.29.67q5.61.69,8.16,3.57c1.7,1.93,2.67,4.82,2.89,8.68s.34,9.18.34,16V430.85a2.55,2.55,0,0,1-4.59,1.54L415,314.29a113.38,113.38,0,0,0-7.31-8.84A67.7,67.7,0,0,0,397,295.92,63.36,63.36,0,0,0,383,288.44a46.33,46.33,0,0,0-17-3.06q-16.32,0-25.17,9.18l-.05.05a7.9,7.9,0,0,0-.55,10.05l44.84,61.82L508.43,529.27a2.54,2.54,0,0,0,2,1h6.38a2.56,2.56,0,0,0,2.56-2.56V321.09q0-10.2.51-16t3.06-8.68q2.55-2.88,8-3.57a122,122,0,0,1,13.12-.67,2.55,2.55,0,0,0,2.53-2.55h0A2.55,2.55,0,0,0,544.05,287.08Z"/><path class="cls-2" d="M391.35,520.07a119.23,119.23,0,0,1-13.11-.67q-5.44-.67-8-3.57c-1.7-1.92-2.72-4.82-3.06-8.67s-.51-9.19-.51-16V362.49l-10.2-15.67V491.17q0,10.2-.34,16c-.23,3.85-1.19,6.75-2.89,8.67s-4.43,3.12-8.17,3.57a124.22,124.22,0,0,1-13.29.67,2.56,2.56,0,0,0,0,5.11h59.52a2.55,2.55,0,0,0,2.55-2.55h0A2.56,2.56,0,0,0,391.35,520.07Z"/><path class="cls-2" d="M753.4,488.43c-.48.61-1,1.24-1.51,1.89a90.29,90.29,0,0,1-15,14.28,98.21,98.21,0,0,1-20.58,12.08,60.82,60.82,0,0,1-24.83,5.1,50.82,50.82,0,0,1-23.3-5.61q-11.06-5.61-19.22-19t-12.92-35.71q-4.77-22.28-4.76-55.28,0-33.33,4.59-55.44t12.41-35.55q7.83-13.42,17.86-19.05a43.2,43.2,0,0,1,14.59-5.1l-6.66-8.81a115.27,115.27,0,0,0-37.52,8,94,94,0,0,0-34.7,24q-14.46,15.83-22.28,38.95t-7.82,53.06q0,29.94,8,53.06t23,38.95a96.63,96.63,0,0,0,36.4,24q21.43,8.16,48.3,8.17a95.92,95.92,0,0,0,30.1-4.43,74.15,74.15,0,0,0,22.79-11.73,54.83,54.83,0,0,0,14.46-16.5,43,43,0,0,0,3.06-6.8A2.56,2.56,0,0,0,753.4,488.43Z"/><path class="cls-2" d="M690.77,282.35a149.58,149.58,0,0,1,17.07,2.18,78.41,78.41,0,0,1,24.83,9,55.08,55.08,0,0,1,18.37,17q7.14,10.54,7.14,26.87c0,.35,0,.71,0,1.08-.9,10.48-14.63,14-21,5.59Z"/><path class="cls-1" d="M0,522.59A2.56,2.56,0,0,1,2.47,520a30.92,30.92,0,0,0,9.43-1.49,10.65,10.65,0,0,0,6-5.1,22.59,22.59,0,0,0,2.21-9q.33-5.43.34-13.26V321.1q0-7.83-.34-13.27A21.18,21.18,0,0,0,17.86,299a11.61,11.61,0,0,0-6-5.11,28.14,28.14,0,0,0-9.45-1.65A2.55,2.55,0,0,1,0,289.68v0a2.55,2.55,0,0,1,2.56-2.56H94.38a2.55,2.55,0,0,1,2.56,2.56v0a2.55,2.55,0,0,1-2.43,2.55,28.74,28.74,0,0,0-9.3,1.65A11.59,11.59,0,0,0,79.08,299a21,21,0,0,0-2.21,8.84q-.34,5.44-.34,13.27v193a2.56,2.56,0,0,0,2.56,2.56h70.57q8.18,0,12.76-4.08a23.06,23.06,0,0,0,6.63-10.55,56.94,56.94,0,0,0,2.38-14.79q.28-7,.33-14a2.55,2.55,0,0,1,2.55-2.53h5.11a2.56,2.56,0,0,1,2.56,2.56v49.31a2.56,2.56,0,0,1-2.56,2.55H2.56A2.55,2.55,0,0,1,0,522.63Z"/><path class="cls-1" d="M207.15,522.58A2.55,2.55,0,0,1,209.6,520a28.21,28.21,0,0,0,9.45-1.66,11.52,11.52,0,0,0,5.95-5.1,21.46,21.46,0,0,0,2.22-9q.33-5.61.34-13.09V321.1q0-7.83-.34-13.27A21,21,0,0,0,225,299a11.58,11.58,0,0,0-5.95-5.11,28.24,28.24,0,0,0-9.45-1.65,2.55,2.55,0,0,1-2.45-2.55v0a2.55,2.55,0,0,1,2.55-2.56h91.83a2.56,2.56,0,0,1,2.56,2.56v0a2.55,2.55,0,0,1-2.43,2.55,28.86,28.86,0,0,0-9.31,1.65,11.56,11.56,0,0,0-6.12,5.11,20.88,20.88,0,0,0-2.21,8.84q-.34,5.44-.34,13.27V491.17q0,7.49.34,13.09a21.32,21.32,0,0,0,2.21,9,11.5,11.5,0,0,0,6.12,5.1,28.33,28.33,0,0,0,9.31,1.65,2.55,2.55,0,0,1,2.43,2.55v0a2.56,2.56,0,0,1-2.56,2.55H209.7a2.55,2.55,0,0,1-2.55-2.55Z"/><path class="cls-1" d="M785.73,522.58a2.55,2.55,0,0,1,2.46-2.54,28.21,28.21,0,0,0,9.45-1.66,11.56,11.56,0,0,0,6-5.1,21.62,21.62,0,0,0,2.21-9q.33-5.61.34-13.09V321.1q0-7.83-.34-13.27a21.18,21.18,0,0,0-2.21-8.84,11.62,11.62,0,0,0-6-5.11,28.26,28.26,0,0,0-9.46-1.65,2.55,2.55,0,0,1-2.45-2.55v0a2.56,2.56,0,0,1,2.56-2.56H965.15a2.56,2.56,0,0,1,2.56,2.56V339a2.56,2.56,0,0,1-2.56,2.55H960A2.54,2.54,0,0,1,957.5,339q0-6.92-.34-14a56.66,56.66,0,0,0-2.38-14.8,23,23,0,0,0-6.63-10.54q-4.59-4.1-12.75-4.09H864.82a2.56,2.56,0,0,0-2.56,2.56v102a2.56,2.56,0,0,0,2.56,2.56h36.56q5.77,0,8.84-3.23a20.55,20.55,0,0,0,4.6-8.16,40.87,40.87,0,0,0,1.7-10.89c.08-3.1.14-6.17.16-9.21a2.53,2.53,0,0,1,2.54-2.52h5.12a2.55,2.55,0,0,1,2.55,2.55v71.42a2.56,2.56,0,0,1-2.55,2.56h-5.12a2.54,2.54,0,0,1-2.54-2.53c0-3-.08-6.1-.16-9.21a40.86,40.86,0,0,0-1.7-10.88,20.55,20.55,0,0,0-4.6-8.16q-3.06-3.24-8.84-3.24H864.82a2.56,2.56,0,0,0-2.56,2.56V514.12a2.56,2.56,0,0,0,2.56,2.56H942.2q8.16,0,12.75-4.08a23,23,0,0,0,6.64-10.55A56.94,56.94,0,0,0,964,487.26q.28-7,.33-14a2.54,2.54,0,0,1,2.55-2.53H972a2.55,2.55,0,0,1,2.56,2.56v49.31a2.55,2.55,0,0,1-2.56,2.55H788.29a2.56,2.56,0,0,1-2.56-2.55Z"/><path class="cls-1" d="M544.05,287.08H484.54a2.56,2.56,0,0,0-2.56,2.56h0a2.55,2.55,0,0,0,2.53,2.55,127.25,127.25,0,0,1,13.29.67q5.61.69,8.16,3.57c1.7,1.93,2.67,4.82,2.89,8.68s.34,9.18.34,16V430.85a2.55,2.55,0,0,1-4.59,1.54L415,314.29a113.38,113.38,0,0,0-7.31-8.84A67.7,67.7,0,0,0,397,295.92,63.36,63.36,0,0,0,383,288.44a46.33,46.33,0,0,0-17-3.06q-16.32,0-25.17,9.18l-.05.05a7.9,7.9,0,0,0-.55,10.05l44.84,61.82L508.43,529.27a2.54,2.54,0,0,0,2,1h6.38a2.56,2.56,0,0,0,2.56-2.56V321.09q0-10.2.51-16t3.06-8.68q2.55-2.88,8-3.57a122,122,0,0,1,13.12-.67,2.55,2.55,0,0,0,2.53-2.55h0A2.55,2.55,0,0,0,544.05,287.08Z"/><path class="cls-1" d="M391.35,520.07a119.23,119.23,0,0,1-13.11-.67q-5.44-.67-8-3.57c-1.7-1.92-2.72-4.82-3.06-8.67s-.51-9.19-.51-16V362.49l-10.2-15.67V491.17q0,10.2-.34,16c-.23,3.85-1.19,6.75-2.89,8.67s-4.43,3.12-8.17,3.57a124.22,124.22,0,0,1-13.29.67,2.56,2.56,0,0,0,0,5.11h59.52a2.55,2.55,0,0,0,2.55-2.55h0A2.56,2.56,0,0,0,391.35,520.07Z"/><path class="cls-1" d="M753.4,488.43c-.48.61-1,1.24-1.51,1.89a90.29,90.29,0,0,1-15,14.28,98.21,98.21,0,0,1-20.58,12.08,60.82,60.82,0,0,1-24.83,5.1,50.82,50.82,0,0,1-23.3-5.61q-11.06-5.61-19.22-19t-12.92-35.71q-4.77-22.28-4.76-55.28,0-33.33,4.59-55.44t12.41-35.55q7.83-13.42,17.86-19.05a43.2,43.2,0,0,1,14.59-5.1l-6.66-8.81a115.27,115.27,0,0,0-37.52,8,94,94,0,0,0-34.7,24q-14.46,15.83-22.28,38.95t-7.82,53.06q0,29.94,8,53.06t23,38.95a96.63,96.63,0,0,0,36.4,24q21.43,8.16,48.3,8.17a95.92,95.92,0,0,0,30.1-4.43,74.15,74.15,0,0,0,22.79-11.73,54.83,54.83,0,0,0,14.46-16.5,43,43,0,0,0,3.06-6.8A2.56,2.56,0,0,0,753.4,488.43Z"/><path class="cls-1" d="M690.77,282.35a149.58,149.58,0,0,1,17.07,2.18,78.41,78.41,0,0,1,24.83,9,55.08,55.08,0,0,1,18.37,17q7.14,10.54,7.14,26.87c0,.35,0,.71,0,1.08-.9,10.48-14.63,14-21,5.59Z"/></g></g></svg>