<svg xmlns="http://www.w3.org/2000/svg" viewBox="0 0 851.41 705.34"><defs><style>.cls-1{fill:#ccc;}</style></defs><g id="Camada_2" data-name="Camada 2"><g id="Camada_1-2" data-name="Camada 1"><polygon class="cls-1" points="216.78 0 290.52 133.73 243.57 167.03 369.61 267.46 299.69 164.68 333.69 134.49 216.78 0"/><polygon class="cls-1" points="634.63 0 560.89 133.73 607.84 167.03 481.8 267.46 551.72 164.68 517.71 134.49 634.63 0"/><polygon class="cls-1" points="455.5 134.74 425.78 236.23 395.73 134.74 425.78 11.98 455.5 134.74"/><path class="cls-1" d="M207.82,333.24c17.22-.49,27.84,12.17,25.67,30.5q-6,49.41-12,98.84c-1.41,11.86-12.32,25.38-25.11,28.94q8.73,30.59,18.4,61.17L211,584q-42.15,1-84.28,2.39-5.1-38.83-9.21-77.69l-16.57.61q-7.4,39.26-14.77,78.52Q43.1,589.41,0,591.44L59.46,338.81Q133.62,335.32,207.82,333.24Zm-86.11,65.82-8.88,47.18q15.78-.58,31.57-1.13l8-47.14Q137,398.48,121.71,399.06Z"/><path class="cls-1" d="M234.66,583.43Q248,457.67,261.35,331.92q79.29-1.68,158.59-1.73-.06,15.6-.11,31.22-6.12,16-12.47,32-37.92.09-75.83.53-.82,14-1.64,28,38.58-.45,77.15-.54-.36,31.41-.71,62.81-40.06.09-80.11.56-1,17.22-2,34.46,47.52-.56,95-.59-.12,31.41-.23,62.81Q326.84,581.47,234.66,583.43Z"/><path class="cls-1" d="M590.06,331.92q28.29,110.47,61.29,221.13l4,31.27q-43.12-1.1-86.26-1.78-4.58-25.35-9-50.71-18.37-.29-36.75-.48-1.26,25.27-2.68,50.56-42.94-.46-85.88-.5l-.15-31.22q18.4-110,32.1-219.9Q528.39,330.62,590.06,331.92Zm-40.72,137q-6.42-37.39-12.53-74.79l-8.46-.11q-1.15,37.29-2.63,74.59Q537.54,468.73,549.34,468.9Z"/><path class="cls-1" d="M643.59,333.24q36.93,1,73.85,2.42L753,524.74q41.81,1.57,83.58,3.54,7.44,31.58,14.87,63.16Q765.21,587.38,679,585Z"/><path class="cls-1" d="M179.49,684q-24.13.91-48.24,2l-5.12,18.83-9.83.45q9.27-33,18.52-66,27.69-1.31,55.38-2.36ZM172.05,675q3.34-14.13,6.68-28.24-18.61.74-37.23,1.59l-7.68,28.28Q152.93,675.72,172.05,675Z"/><path class="cls-1" d="M271.2,681.19q-29,.69-57.93,1.65,4.64-23.52,9.25-47.05,27.71-.91,55.4-1.57ZM263,672q2.15-14.09,4.28-28.16-18.62.46-37.24,1.06-2.66,14.08-5.29,28.18Q243.84,672.5,263,672Z"/><path class="cls-1" d="M362.93,679.65q-29,.29-57.93.82l5.25-46.94q23.08-.43,46.16-.69l1.26-18.72,9.08-.1Q364.85,646.84,362.93,679.65Zm-9-9.3,1.89-28.11q-18.63.19-37.25.52-1.45,14.07-2.9,28.13Q334.77,670.56,353.89,670.35Z"/><path class="cls-1" d="M396.73,679.41l1.26-46.9q27.72-.12,55.42,0c.09,3.13.17,6.26.26,9.4q-23.3-.1-46.59,0L406.57,670q23.93-.08,47.85,0c.08,3.13.17,6.27.25,9.4Q425.71,679.28,396.73,679.41Z"/><path class="cls-1" d="M543.19,652.33l3.15,28.14h.07l-3.15-28.14Z"/><path class="cls-1" d="M485.74,632.74c.18,3.13.37,6.27.55,9.4q23.2.23,46.4.63c.32,3.13.65,6.26,1,9.39q-23.42-.4-46.82-.63.81,14.06,1.63,28.12,28.93.29,57.87.82l-4.2-37.54h.07q-.54-4.71-1.06-9.42Q513.44,633,485.74,632.74Zm50,38.15q-19.14-.33-38.26-.54l-.63-9.32q19,.22,37.93.54Z"/><path class="cls-1" d="M580.21,681.19l-1.35-9.41q23.92.57,47.84,1.32c-.59-3.11-1.17-6.22-1.76-9.34q-23.7-.75-47.41-1.31l-4-28.23q27.71.66,55.41,1.57c.61,3.14,1.23,6.29,1.85,9.43q-23.28-.76-46.58-1.36l1.44,9.41q23.49.6,47,1.37,2.77,14.1,5.54,28.2Q609.18,681.88,580.21,681.19Z"/><path class="cls-1" d="M729.82,686.51q-29-1.37-57.9-2.47-7.5-32.94-15-65.89l9.07.35q2.24,9.4,4.45,18.8,23.07.91,46.13,2,1.33,4.74,2.66,9.46-23.28-1.1-46.56-2Q676,660.86,679.35,675q23.91.94,47.82,2.07Z"/></g></g></svg>