<svg xmlns="http://www.w3.org/2000/svg" viewBox="0 0 327.92 331.59"><defs><style>.cls-1{fill:#ccc;}</style></defs><g id="Camada_2" data-name="Camada 2"><g id="Ebene_1" data-name="Ebene 1"><path class="cls-1" d="M309.47,0H124.16a18.48,18.48,0,0,0-18.45,18.46V199a18.47,18.47,0,0,0,18.45,18.44H230.48v4.16h0l.33,36.66c.06,7.73,4.23,10.27,6,11a8.68,8.68,0,0,0,3.24.62c2.3,0,5.4-.88,8.76-4.23l44.05-44.05h0l4.24-4.16h12.32A18.47,18.47,0,0,0,327.92,199V18.46A18.48,18.48,0,0,0,309.47,0Zm5.46,199a5.49,5.49,0,0,1-5.46,5.47H124.16A5.49,5.49,0,0,1,118.7,199V18.46A5.49,5.49,0,0,1,124.16,13H309.47a5.49,5.49,0,0,1,5.46,5.48Z"/><path class="cls-1" d="M300.33,41.23V36a4.82,4.82,0,0,0-4.81-4.81H253.9A4.82,4.82,0,0,0,249.09,36v5.21Z"/><path class="cls-1" d="M184.38,41.39V36.18a4.82,4.82,0,0,0-4.81-4.81H138a4.81,4.81,0,0,0-4.81,4.81v5.21Z"/><path class="cls-1" d="M242.36,41.23V36a4.82,4.82,0,0,0-4.81-4.81H195.92A4.82,4.82,0,0,0,191.11,36v5.21Z"/><path class="cls-1" d="M192.18,45.06v97.43a4.79,4.79,0,0,0,6,4.66q9.15-2.42,17.94-5.52H195.24v-1.07h23.87q6.06-2.22,11.92-4.74H195.24v-1.07h38.23c2.44-1.09,4.87-2.2,7.26-3.36a4.81,4.81,0,0,0,2.7-4.34v-82Zm2.9,8.51H240.4v1.08H195.08Zm0,5.81H240.4v1.08H195.08Zm0,5.81H240.4v1.08H195.08Zm0,5.81H240.4v1.08H195.08Zm0,5.81H240.4v1.08H195.08Zm0,5.81H240.4V83.7H195.08Zm0,5.81H240.4v1.08H195.08Zm0,5.81H240.4v1.08H195.08Zm0,6.89v-1.08H240.4v1.08ZM240.56,130H195.24v-1.07h45.32Zm0-5.81H195.24v-1.07h45.32Zm0-5.81H195.24v-1.07h45.32Zm0-5.81H195.24v-1.07h45.32Zm0-5.81H195.24V105.7h45.32Z"/><path class="cls-1" d="M249.09,45.06V118.3a4.84,4.84,0,0,0,4.78,4.83h0a4.86,4.86,0,0,0,2.48-.68c2.21-1.31,4.39-2.67,6.55-4.06H252.13v-1.07h12.43q3.53-2.31,6.95-4.74H252.13v-1.07H273q3.21-2.31,6.3-4.74h-27.2V105.7h28.54q2.82-2.25,5.55-4.57H252v-1.08h35.51q2.68-2.33,5.28-4.73H252V94.24h42q2.55-2.4,5-4.88a4.86,4.86,0,0,0,1.39-3.4V45.06Zm48.2,44.45H252V88.43h45.32Zm0-5.81H252V82.62h45.32Zm0-5.81H252V76.81h45.32Zm0-5.81H252V71h45.32Zm0-5.81H252V65.19h45.32Zm0-5.81H252V59.38h45.32Zm0-5.81H252V53.57h45.32Z"/><path class="cls-1" d="M133.14,45.23V150.74a4.82,4.82,0,0,0,4.88,4.83,251.55,251.55,0,0,0,42.48-4.48,4.81,4.81,0,0,0,3.88-4.74V45.23Zm3.32,8.34h45.32v1.08H136.46Zm0,5.81h45.32v1.08H136.46Zm0,5.81h45.32v1.08H136.46Zm0,5.81h45.32v1.08H136.46Zm0,5.81h45.32v1.08H136.46Zm0,5.81h45.32V83.7H136.46Zm0,5.81h45.32v1.08H136.46Zm0,5.81h45.32v1.08H136.46Zm0,5.81h45.32v1.08H136.46Zm45.48,41.58H136.62v-1.07h45.32Zm0-5.81H136.62v-1.07h45.32Zm0-5.81H136.62v-1.07h45.32Zm0-5.81H136.62v-1.07h45.32Zm0-5.81H136.62v-1.07h45.32Zm0-5.81H136.62v-1.07h45.32Zm0-5.81H136.62V105.7h45.32Z"/><path class="cls-1" d="M235.64,141.52q-7.35,3.39-15,6.31h18.88v1.07H217.67q-7.08,2.58-14.42,4.74h36.23v1.07h-40c-1.55.43-3.11.85-4.67,1.25a4.8,4.8,0,0,0-3.65,4.65v26.44a4.83,4.83,0,0,0,4.81,4.81h41.63a4.82,4.82,0,0,0,4.81-4.81V145.89A4.79,4.79,0,0,0,235.64,141.52Zm3.84,48H194.16v-1.08h45.32Zm0-5.81H194.16v-1.07h45.32Zm0-5.81H194.16v-1.07h45.32Zm0-5.81H194.16v-1.07h45.32Zm0-5.81H194.16v-1.07h45.32Zm0-5.81H194.16v-1.07h45.32Z"/><path class="cls-1" d="M298.12,98.39c-.36.35-.73.69-1.08,1h.33v1.07h-1.45c-1.65,1.61-3.33,3.18-5.05,4.74h6.5v1.07h-7.7c-1.8,1.61-3.64,3.19-5.5,4.74h13.2v1.07H282.88q-3,2.41-6,4.74h20.5v1.07H275.43c-2.17,1.62-4.38,3.19-6.62,4.74h28.56v1.07H267.22q-3.6,2.43-7.32,4.74h37.47v1.07H258.19c-2.18,1.32-4.39,2.62-6.63,3.87a4.8,4.8,0,0,0-2.47,4.18v49.45a4.83,4.83,0,0,0,4.81,4.81h41.62a4.83,4.83,0,0,0,4.81-4.81V99.3A1.29,1.29,0,0,0,298.12,98.39Zm-.75,90.45H252.05v-1.08h45.32Zm0-5.81H252.05V182h45.32Zm0-5.81H252.05v-1.07h45.32Zm0-5.81H252.05v-1.07h45.32Zm0-5.81H252.05v-1.07h45.32Zm0-5.81H252.05v-1.07h45.32Zm0-5.81H252.05v-1.07h45.32Zm0-5.81H252.05V147.1h45.32Zm0-5.81H252.05v-1.07h45.32Zm0-7H252.05v-1.08h45.32Z"/><path class="cls-1" d="M180.38,159.45a4.72,4.72,0,0,0-1.3,0Z"/><path class="cls-1" d="M181.86,159.9v.62h-9.17a250.7,250.7,0,0,1-34.64,3.09,4.81,4.81,0,0,0-4.75,4.79v18.65a4.83,4.83,0,0,0,4.81,4.81h41.62a4.83,4.83,0,0,0,4.81-4.81V164.2A4.78,4.78,0,0,0,181.86,159.9Zm0,29.67H136.54v-1.08h45.32Zm0-5.81H136.54v-1.07h45.32Zm0-5.81H136.54v-1.07h45.32Zm0-5.81H136.54v-1.07h45.32Zm0-5.81H136.54v-1.07h45.32Z"/><path class="cls-1" d="M1,231.05a74.59,74.59,0,0,1,11.08-.84c7.49,0,12.82,1.73,16.35,5s5.69,8,5.69,14.49-2,12-5.81,15.69-10,5.81-17.84,5.81A84.06,84.06,0,0,1,1,270.75ZM6.2,266.74a33,33,0,0,0,5.28.3c11.13,0,17.18-6.23,17.18-17.13.06-9.52-5.33-15.57-16.35-15.57a29.62,29.62,0,0,0-6.11.54Z"/><path class="cls-1" d="M46.09,230.51v40.36H40.88V230.51Z"/><path class="cls-1" d="M61.72,258.18l-4.2,12.69H52.13l13.72-40.36h6.29l13.77,40.36H80.34L76,258.18ZM75,254.1l-4-11.61c-.9-2.64-1.5-5-2.1-7.37h-.12c-.59,2.39-1.25,4.85-2,7.31l-4,11.67Zm2.88-32.76-7.61,7H65.91l5.57-7Z"/><path class="cls-1" d="M91.84,231.05a54.14,54.14,0,0,1,10-.84c5.57,0,9.16,1,11.68,3.29a10,10,0,0,1,3.17,7.67,10.6,10.6,0,0,1-7.6,10.3v.18c3.11,1.08,5,3.95,5.93,8.14,1.31,5.63,2.27,9.53,3.11,11.08h-5.39c-.66-1.13-1.56-4.61-2.69-9.64-1.2-5.57-3.36-7.66-8.09-7.84H97.05v17.48H91.84Zm5.21,18.38h5.33c5.57,0,9.1-3.05,9.1-7.66,0-5.21-3.77-7.49-9.28-7.55a21.44,21.44,0,0,0-5.15.48Z"/><path class="cls-1" d="M129.27,230.51v40.36h-5.21V230.51Z"/><path class="cls-1" d="M172.87,250.27c0,13.9-8.45,21.26-18.75,21.26-10.66,0-18.15-8.26-18.15-20.48,0-12.82,8-21.2,18.75-21.2C165.74,229.85,172.87,238.29,172.87,250.27Zm-31.33.66c0,8.62,4.68,16.35,12.88,16.35s12.94-7.61,12.94-16.77c0-8-4.19-16.41-12.88-16.41S141.54,242.07,141.54,250.93Z"/><path class="cls-1" d="M34.71,329.35c-2.18,1.09-6.52,2.17-12.09,2.17C9.71,331.52,0,323.37,0,308.36c0-14.33,9.71-24,23.91-24,5.7,0,9.3,1.22,10.86,2l-1.42,4.82a21.5,21.5,0,0,0-9.24-1.9c-10.73,0-17.86,6.86-17.86,18.88,0,11.21,6.45,18.41,17.59,18.41a23.51,23.51,0,0,0,9.64-1.91Z"/><path class="cls-1" d="M79.8,307.48c0,15.76-9.58,24.11-21.26,24.11-12.09,0-20.58-9.37-20.58-23.23,0-14.53,9-24,21.26-24C71.72,284.32,79.8,293.9,79.8,307.48Zm-35.52.75c0,9.78,5.3,18.54,14.6,18.54s14.67-8.63,14.67-19c0-9.1-4.75-18.61-14.6-18.61S44.28,298.18,44.28,308.23Z"/><path class="cls-1" d="M87.47,330.84V285.07h6.45l14.67,23.16a128.52,128.52,0,0,1,8.22,14.87l.13-.07c-.54-6.11-.67-11.68-.67-18.81V285.07h5.56v45.77h-6l-14.54-23.22a147.15,147.15,0,0,1-8.55-15.28l-.21.06c.34,5.78.48,11.28.48,18.88v19.56Z"/><path class="cls-1" d="M131.34,323.65a20.94,20.94,0,0,0,10.59,3c6,0,9.58-3.19,9.58-7.81,0-4.27-2.45-6.72-8.63-9.1-7.47-2.65-12.09-6.52-12.09-13,0-7.13,5.91-12.43,14.81-12.43a20.85,20.85,0,0,1,10.12,2.24l-1.63,4.83a18.14,18.14,0,0,0-8.69-2.18c-6.25,0-8.63,3.74-8.63,6.86,0,4.28,2.79,6.39,9.1,8.83,7.75,3,11.68,6.72,11.68,13.45,0,7.06-5.23,13.17-16,13.17-4.42,0-9.24-1.29-11.69-2.92Z"/><path class="cls-1" d="M171.54,285.07v27.1c0,10.25,4.55,14.6,10.67,14.6,6.79,0,11.13-4.48,11.13-14.6v-27.1h6v26.69c0,14.06-7.4,19.83-17.32,19.83-9.37,0-16.43-5.36-16.43-19.56v-27Z"/><path class="cls-1" d="M209.57,285.07h5.91v40.82H235v4.95H209.57Z"/><path class="cls-1" d="M244.34,290.09H230.42v-5h33.89v5h-14v40.75h-6Z"/></g></g></svg>