<svg xmlns="http://www.w3.org/2000/svg" viewBox="0 0 331.48 347.82"><defs><style>.cls-1,.cls-2,.cls-3{fill:#ccc;}.cls-2{font-size:59.89px;}.cls-2,.cls-3{font-family:Gotham-Medium, Gotham Medium;font-weight:500;}.cls-3{font-size:67.91px;}.cls-4{letter-spacing:-0.02em;}.cls-5{letter-spacing:-0.09em;}</style></defs><g id="Camada_2" data-name="Camada 2"><g id="Ebene_1" data-name="Ebene 1"><path class="cls-1" d="M313,0H127.72a18.48,18.48,0,0,0-18.45,18.46V199a18.47,18.47,0,0,0,18.45,18.44H234v4.16h0l.33,36.66c.06,7.73,4.23,10.27,6,11a8.62,8.62,0,0,0,3.23.62c2.3,0,5.41-.88,8.77-4.23l44.05-44.05h0l4.24-4.16H313A18.48,18.48,0,0,0,331.48,199V18.46A18.49,18.49,0,0,0,313,0Zm5.47,199a5.49,5.49,0,0,1-5.47,5.47H127.72a5.49,5.49,0,0,1-5.46-5.47V18.46A5.49,5.49,0,0,1,127.72,13H313a5.49,5.49,0,0,1,5.47,5.48Z"/><path class="cls-1" d="M303.89,41.23V36a4.82,4.82,0,0,0-4.81-4.81H257.46A4.82,4.82,0,0,0,252.65,36v5.21Z"/><path class="cls-1" d="M187.93,41.39V36.18a4.82,4.82,0,0,0-4.81-4.81H141.51a4.81,4.81,0,0,0-4.81,4.81v5.21Z"/><path class="cls-1" d="M245.92,41.23V36a4.82,4.82,0,0,0-4.81-4.81H199.48A4.82,4.82,0,0,0,194.67,36v5.21Z"/><path class="cls-1" d="M195.74,45.06v97.43a4.79,4.79,0,0,0,6,4.66q9.15-2.42,17.94-5.52H198.79v-1.07h23.88q6.06-2.22,11.92-4.74h-35.8v-1.07H237c2.44-1.09,4.87-2.2,7.26-3.36a4.81,4.81,0,0,0,2.7-4.34v-82Zm2.89,8.51H244v1.08H198.63Zm0,5.81H244v1.08H198.63Zm0,5.81H244v1.08H198.63Zm0,5.81H244v1.08H198.63Zm0,5.81H244v1.08H198.63Zm0,5.81H244V83.7H198.63Zm0,5.81H244v1.08H198.63Zm0,5.81H244v1.08H198.63Zm0,6.89v-1.08H244v1.08ZM244.11,130H198.79v-1.07h45.32Zm0-5.81H198.79v-1.07h45.32Zm0-5.81H198.79v-1.07h45.32Zm0-5.81H198.79v-1.07h45.32Zm0-5.81H198.79V105.7h45.32Z"/><path class="cls-1" d="M252.65,45.06V118.3a4.83,4.83,0,0,0,4.77,4.83h0a4.8,4.8,0,0,0,2.47-.68c2.22-1.31,4.4-2.67,6.56-4.06H255.69v-1.07h12.43c2.35-1.54,4.67-3.12,6.94-4.74H255.69v-1.07h20.9c2.14-1.54,4.23-3.12,6.3-4.74h-27.2V105.7h28.54q2.82-2.25,5.55-4.57H255.53v-1.08H291q2.7-2.33,5.29-4.73H255.53V94.24h42q2.55-2.4,5-4.88a4.86,4.86,0,0,0,1.39-3.4V45.06Zm48.2,44.45H255.53V88.43h45.32Zm0-5.81H255.53V82.62h45.32Zm0-5.81H255.53V76.81h45.32Zm0-5.81H255.53V71h45.32Zm0-5.81H255.53V65.19h45.32Zm0-5.81H255.53V59.38h45.32Zm0-5.81H255.53V53.57h45.32Z"/><path class="cls-1" d="M136.7,45.23V150.74a4.82,4.82,0,0,0,4.88,4.83,251.43,251.43,0,0,0,42.47-4.48,4.81,4.81,0,0,0,3.88-4.74V45.23ZM140,53.57h45.32v1.08H140Zm0,5.81h45.32v1.08H140Zm0,5.81h45.32v1.08H140ZM140,71h45.32v1.08H140Zm0,5.81h45.32v1.08H140Zm0,5.81h45.32V83.7H140Zm0,5.81h45.32v1.08H140Zm0,5.81h45.32v1.08H140Zm0,5.81h45.32v1.08H140Zm45.48,41.58H140.18v-1.07H185.5Zm0-5.81H140.18v-1.07H185.5Zm0-5.81H140.18v-1.07H185.5Zm0-5.81H140.18v-1.07H185.5Zm0-5.81H140.18v-1.07H185.5Zm0-5.81H140.18v-1.07H185.5Zm0-5.81H140.18V105.7H185.5Z"/><path class="cls-1" d="M239.2,141.52q-7.37,3.39-15,6.31H243v1.07h-21.8q-7.08,2.58-14.42,4.74H243v1.07h-40c-1.55.43-3.11.85-4.68,1.25a4.8,4.8,0,0,0-3.64,4.65v26.44a4.82,4.82,0,0,0,4.81,4.81h41.63a4.83,4.83,0,0,0,4.81-4.81V145.89A4.79,4.79,0,0,0,239.2,141.52Zm3.83,48H197.71v-1.08H243Zm0-5.81H197.71v-1.07H243Zm0-5.81H197.71v-1.07H243Zm0-5.81H197.71v-1.07H243Zm0-5.81H197.71v-1.07H243Zm0-5.81H197.71v-1.07H243Z"/><path class="cls-1" d="M301.67,98.39l-1.07,1h.33v1.07h-1.45c-1.65,1.61-3.34,3.18-5.05,4.74h6.5v1.07h-7.7c-1.8,1.61-3.64,3.19-5.5,4.74h13.2v1.07H286.44q-3,2.41-6,4.74h20.5v1.07H279c-2.17,1.62-4.38,3.19-6.62,4.74h28.56v1.07H270.77q-3.6,2.43-7.31,4.74h37.47v1.07H261.75c-2.18,1.32-4.39,2.62-6.63,3.87a4.8,4.8,0,0,0-2.47,4.18v49.45a4.83,4.83,0,0,0,4.81,4.81h41.62a4.83,4.83,0,0,0,4.81-4.81V99.3A1.3,1.3,0,0,0,301.67,98.39Zm-.74,90.45H255.61v-1.08h45.32Zm0-5.81H255.61V182h45.32Zm0-5.81H255.61v-1.07h45.32Zm0-5.81H255.61v-1.07h45.32Zm0-5.81H255.61v-1.07h45.32Zm0-5.81H255.61v-1.07h45.32Zm0-5.81H255.61v-1.07h45.32Zm0-5.81H255.61V147.1h45.32Zm0-5.81H255.61v-1.07h45.32Zm0-7H255.61v-1.08h45.32Z"/><path class="cls-1" d="M183.93,159.45a4.72,4.72,0,0,0-1.3,0Z"/><path class="cls-1" d="M185.42,159.9v.62h-9.18a250.55,250.55,0,0,1-34.63,3.09,4.81,4.81,0,0,0-4.75,4.79v18.65a4.82,4.82,0,0,0,4.81,4.81h41.62a4.83,4.83,0,0,0,4.81-4.81V164.2A4.78,4.78,0,0,0,185.42,159.9Zm0,29.67H140.1v-1.08h45.32Zm0-5.81H140.1v-1.07h45.32Zm0-5.81H140.1v-1.07h45.32Zm0-5.81H140.1v-1.07h45.32Zm0-5.81H140.1v-1.07h45.32Z"/><text class="cls-2" transform="translate(0 270.87)">DIÁRIO</text><text class="cls-3" transform="translate(1.11 330.84)"><tspan class="cls-4">C</tspan><tspan x="37.96" y="0">ONSU</tspan><tspan class="cls-5" x="206.85" y="0">L</tspan><tspan x="232.93" y="0">T</tspan></text></g></g></svg>