<?xml version="1.0" encoding="utf-8"?>
<!-- Generator: Adobe Illustrator 25.0.0, SVG Export Plug-In . SVG Version: 6.00 Build 0)  -->
<svg version="1.1" id="Camada_1" xmlns="http://www.w3.org/2000/svg" xmlns:xlink="http://www.w3.org/1999/xlink" x="0px" y="0px"
	 viewBox="0 0 900 900" style="enable-background:new 0 0 900 900;" xml:space="preserve">
<style type="text/css">
	.st0{fill:none;}
	.st1{fill:#FFFFFF;}
	.st2{fill:url(#SVGID_1_);}
	.st3{fill:url(#SVGID_2_);}
	.st4{fill:url(#SVGID_3_);}
	.st5{fill:#2A3642;}
	.st6{fill:#FFFFFF;stroke:#000000;stroke-miterlimit:10;}
	.st7{fill:none;stroke:#2A3642;stroke-width:2;stroke-miterlimit:10;}
	.st8{fill:#FFFFFF;stroke:#2A3642;stroke-miterlimit:10;}
	.st9{fill:#F2A01D;}
	.st10{fill:#FFAE1A;}
	.st11{fill:#C9CDD1;}
	.st12{fill:none;stroke:#FFFFFF;stroke-miterlimit:10;}
	.st13{fill:#110809;}
	.st14{fill:#7A483A;}
	.st15{fill:#242E38;}
	.st16{fill:none;stroke:#242E38;stroke-miterlimit:10;}
	.st17{fill:none;stroke:#FFFFFF;stroke-width:2;stroke-miterlimit:10;}
</style>
<pattern  x="-38.8" y="906.8" width="54" height="54" patternUnits="userSpaceOnUse" id="New_Pattern_2" viewBox="0 -54 54 54" style="overflow:visible;">
	<g>
		<rect y="-54" class="st0" width="54" height="54"/>
		<rect y="-54" class="st0" width="54" height="54"/>
		<path class="st1" d="M4.3-4.6C4.2-4.1,4.6-3.5,5.1-3.4c0.5,0.1,1.1-0.3,1.2-0.8c0-0.2,0-0.3,0-0.5C6.1-5.3,5.5-5.6,5-5.4
			C4.6-5.3,4.4-5,4.3-4.6z"/>
		<path class="st1" d="M23.7-4.6c0.1,0.5,0.5,0.9,1,0.9c0.6,0,1-0.5,1-1s-0.5-1-1-1C24.1-5.7,23.7-5.3,23.7-4.6
			C23.7-4.7,23.7-4.6,23.7-4.6z"/>
		<path class="st1" d="M41.2-4.6C41-4.1,41.4-3.5,42-3.4s1.1-0.3,1.2-0.8c0-0.2,0-0.3,0-0.5c-0.2-0.5-0.7-0.8-1.3-0.6
			C41.5-5.3,41.2-5,41.2-4.6z"/>
		<path class="st1" d="M4.3-22c0,0.6,0.5,1,1,1s1-0.5,1-1c0-0.6-0.5-1-1-1c0,0-0.1,0-0.1,0C4.7-22.9,4.3-22.5,4.3-22z"/>
		<path class="st1" d="M23.7-22c0,0.6,0.5,1,1,1c0.6,0,1-0.5,1-1c0-0.6-0.5-1-1-1c0,0-0.1,0-0.1,0C24.1-22.9,23.7-22.5,23.7-22z"/>
		<path class="st1" d="M41.2-22c0.1,0.5,0.5,0.9,1,0.9c0.5,0.1,1.1-0.2,1.2-0.7s-0.2-1.1-0.7-1.2c-0.2-0.1-0.4,0-0.6,0
			C41.5-22.9,41.1-22.5,41.2-22z"/>
		<path class="st1" d="M4.3-39.3c0.2,0.5,0.7,0.8,1.3,0.6c0.3-0.1,0.6-0.4,0.7-0.8C6.4-40,6-40.5,5.5-40.6c-0.5-0.1-1.1,0.3-1.2,0.8
			C4.3-39.7,4.3-39.5,4.3-39.3z"/>
		<path class="st1" d="M23.7-39.3c0.1,0.5,0.5,0.9,1,0.9c0.5-0.2,0.8-0.7,0.6-1.3c-0.1-0.3-0.4-0.6-0.8-0.7
			C24-40.3,23.7-39.9,23.7-39.3z"/>
		<path class="st1" d="M41.2-39.3c0.2,0.5,0.7,0.8,1.3,0.6c0.3-0.1,0.6-0.4,0.7-0.8c-0.2-0.5-0.7-0.8-1.3-0.6
			C41.5-40,41.2-39.7,41.2-39.3z"/>
	</g>
</pattern>
<g id="OBJEKTS">
	
		<linearGradient id="SVGID_1_" gradientUnits="userSpaceOnUse" x1="871.1116" y1="898.5609" x2="217.0588" y2="520.9492" gradientTransform="matrix(0.9902 0.1393 0.1393 -0.9902 -81.3539 964.7883)">
		<stop  offset="0" style="stop-color:#FFAE1A"/>
		<stop  offset="1" style="stop-color:#1D252D;stop-opacity:0"/>
	</linearGradient>
	<polygon class="st2" points="218.6,509.8 384.3,0 894.1,165.7 728.4,675.5 	"/>
	
		<linearGradient id="SVGID_2_" gradientUnits="userSpaceOnUse" x1="885.5893" y1="942.5333" x2="307.3329" y2="608.6697" gradientTransform="matrix(0.8502 0.5265 0.5265 -0.8502 -350.0558 754.8953)">
		<stop  offset="0" style="stop-color:#EBCC22"/>
		<stop  offset="1" style="stop-color:#1D252D;stop-opacity:0"/>
	</linearGradient>
	<polygon class="st3" points="230.8,428.4 546.5,74.9 900,390.7 584.3,744.1 	"/>
	<pattern  id="SVGID_3_" xlink:href="#New_Pattern_2" patternTransform="matrix(2.59 0 0 -2.59 12211.3711 -30078.0801)">
	</pattern>
	<path class="st4" d="M201.9,767.2l-17.6-0.2c-37.9-0.4-78.6-1.6-109.4-23.8C29.2,710.3,16,647.2,34,596.6
		c18.5-52,55.6-93.7,94.3-130.8c44.5-42.7,92.6-81.4,143.8-115.7c52.3-35,108.9-65.6,170-74.4c54.8-7.9,111.6,3.1,160.3,29.3
		c17.6,9.5,35.6,16.9,47.8,32.9c18.5,24.4,35.6,49,57.1,71.1c17.8,18.3,38.5,35.1,52.3,56.7c15.1,23.7,20,51.3,21.5,78.9
		c2.8,52.5-4.4,105-21.3,154.8c-5.6,16.5-12.8,33.3-26.4,44.1c-11.5,9.1-26.3,12.9-40.6,15.7c-62.4,12.3-126.4,11.7-189.9,11
		L201.9,767.2z"/>
	<path class="st5" d="M471.4,800.3c1.5,0,3-0.1,4.5-0.4c6.4-0.9,12.9,0.3,19.4,0.6c3.2,0.2,6.2-0.3,9.3-0.5c2.5-0.1,4.8,0.1,6.9-1.7
		c1.2-0.9,1.8-2.5,1.5-4c-0.6-2.1-3.1-2.8-5.2-3.3l-15.5-3.1c-2.1-0.4-6.1-1.3-6.6-3.9c-0.2-1.2,0.5-3.4,0.6-4.7
		c0.2-1.6,0.3-3.3,0.3-4.9c0.1-3,1.1-5.9-2.7-6.1l-12-0.6c-0.9-0.2-1.9,0.4-2.1,1.3c0,0.2,0,0.3,0,0.5l-1.7,6.6
		c-0.8,3.4-1.7,6.9-2.3,10.4c-0.4,2.5-0.3,5-0.6,7.5c-0.2,1.5-0.6,3.1,0.6,4.3C467.1,799.8,469.2,800.2,471.4,800.3z"/>
	<path class="st5" d="M501.3,813.7c0.1,0.9,0.7,1.8,1.5,2.2c1.6,0.8,4.3,0.7,6.1,1c2.9,0.6,5.8,0.8,8.8,0.6c2.2-0.2,4.3-0.7,6.5-0.8
		c6.2-0.3,12.6,2.1,18.7,0.4c2.1-0.6,5.7-2,6.3-4.4c0.8-3.2-2-5.2-4.6-5.9c-3.4-0.9-6.9-1.4-10.4-1.5c-1.4,0-2.8-0.1-4.2-0.3
		c-3.5-0.8-4.9-3.7-4.1-6.9c1.1-4.4,2.1-8.7,3.1-13.1c-7.2-1-14.5,0.2-21.6,1.4c-0.5,0-0.9,0.2-1.2,0.5c-0.2,0.3-0.3,0.6-0.4,0.9
		c-1.1,4.8-0.6,9.3-2.2,13.8C502.7,803.8,500.5,810.2,501.3,813.7z"/>
	<path class="st6" d="M301.6,540.7c1.4-0.4,2.8-0.8,4.3-1.1c2.7-0.6,4.3-1.9,6.3-3.8c1.1-1.3,2.5-2.3,4.1-3.1
		c5.1-2.2,7.6,2.2,5.7,6.5c-1.4,3.4-3.8,6.9-7.1,8.6c-3.7,1.9-7.5,2-10.9,4.7c-0.8,0.7-9.7,8.1-9.3,8.6c-1.7-2.1-5.3-6.6-5.1-9.3
		c2.5-0.7,4.2-2.5,5.6-4.6s2.7-4.3,4.8-5.6C300.4,541.2,301,540.9,301.6,540.7z"/>
	<rect x="222.7" y="654.2" class="st5" width="3.8" height="84.4"/>
	<path class="st7" d="M191.2,756.3c0-12.5,22-17.7,33.1-17.7c13.1,0,33.1,4.8,33.1,17.7"/>
	<line class="st7" x1="224.6" y1="759.6" x2="224.6" y2="738.9"/>
	<path class="st5" d="M262.7,759.3c0,3-2.4,5.4-5.4,5.4c-3,0-5.4-2.4-5.4-5.4c0-3,2.4-5.4,5.4-5.4c0,0,0,0,0,0
		C260.3,753.9,262.7,756.3,262.7,759.3C262.7,759.3,262.7,759.3,262.7,759.3z"/>
	<path class="st5" d="M229.9,759.3c0,3-2.4,5.4-5.4,5.4c-3,0-5.4-2.4-5.4-5.4s2.4-5.4,5.4-5.4c0,0,0,0,0,0
		C227.5,753.9,229.9,756.3,229.9,759.3C229.9,759.3,229.9,759.3,229.9,759.3z"/>
	<path class="st5" d="M197.1,759.3c0,3-2.4,5.4-5.4,5.4c-3,0-5.4-2.4-5.4-5.4s2.4-5.4,5.4-5.4c0,0,0,0,0,0
		C194.7,753.9,197.1,756.3,197.1,759.3C197.1,759.3,197.1,759.3,197.1,759.3z"/>
	<path class="st8" d="M220.9,625.9v-62.1c0-10.7-8.7-19.4-19.4-19.5H180c-10.7,0-19.5,8.7-19.5,19.5v69.4
		c0,15.4,12.5,27.8,27.9,27.9h69.8c1.8,0,3.3-1.5,3.3-3.3l0,0l0,0c0-1.8-1.5-3.3-3.3-3.3h0h-8.8
		C233.7,654.5,220.9,641.7,220.9,625.9z"/>
	<path class="st8" d="M356.3,742c0.5,0.9,1.1,1.8,1.7,2.7c1.9,2.8,6.2,5.2,9.7,4.7c3.8-0.5,7.4-1.8,11.2-1.6c1.4,0,2.8,0.5,3.9,1.4
		c4.4,4.2-6,8-8.9,8.9l-19.5,5.8c-1.2,0.5-2.5,0.6-3.8,0.5c-2.7-0.4-3.8-2.2-4.6-4.4c-0.9-2.8-2.1-5.6-3.2-8.4
		c-1.8-4.5-3.3-9.2-4.3-14c-0.4-1.3-0.5-2.7-0.2-4c0.6-2,2.5-3.4,4.6-3.5c0.9,0,1.8,0.2,2.6,0.5C351.5,732.5,353.4,736.8,356.3,742z
		"/>
	<path class="st5" d="M319.3,642.2c0.2-4.3-0.5-8.6-1.9-12.6c-2.4-6.3-7.3-11.9-13.7-14.1c-3.6-1.2-7.5-1.4-11.3-1.5l-49.5-1.8
		c-14.3-0.5-31,11.1-30.5,26.9c0.3,9.7,6.9,19.9,17.4,20.2h0.7l47,0.3c11,0.1,25.4,4.6,35.3-1.5c1.4-0.8,2.7-1.9,3.6-3.2
		c1-1.6,1.7-3.4,1.9-5.3C319,647.1,319.3,644.6,319.3,642.2z"/>
	<path class="st5" d="M254.9,636.8c15.2,8.2-12.8,22.4-27.3,22.4l-25.3,0c-14.6,0-26-7.3-26.5-21.8v-43.7l56.1,0.1
		C231.9,593.9,238.4,627.9,254.9,636.8z"/>
	<path class="st5" d="M309.7,643.6c-11.8-7.8-59.3-19.4-65.7-21.9c-12.9-5.2-26.9-7-40.6-5.4c-11.6,1.5-23.8,3.5-26.7,16.6
		c-2.6,11.7,4.8,23.3,16.6,25.9c0.3,0.1,0.5,0.1,0.8,0.1l109.1,21.5c0.2,0.1,0.5,0.1,0.7,0.2c0.6,0.1,1.2,0.2,1.8,0.3
		c8.6,1,15.5-4,17.4-12.6C325,659,319.6,650.2,309.7,643.6z"/>
	<path class="st8" d="M295,747.2c0,3.3,0.5,6.1,3.4,8.9c4.3,4.1,11,4.7,15.5,8.4c0.4,0.3,0.8,0.7,1,1.2c0.3,1,0,2.1-0.8,2.8
		c-4,3.9-13.3,0.1-18-0.8l-17.8-3.2c-1.5-0.3-2.6-1.7-2.3-3.3c0,0,0-0.1,0-0.1l3.4-16.9l0.5-2.5c0.8-4.1,4.8-6.7,8.8-5.9
		c0.1,0,0.1,0,0.2,0c3.6,0.9,6.1,4.1,6,7.8C295,744.9,295,746.1,295,747.2z"/>
	<path class="st8" d="M217.4,517.9c-0.5-2.5,16,8.6,15.6,6.2c1.8,10.6,3.5,21.2,5.1,31.9c1.5,10,2.5,20.2,5.8,29.9
		c1.1,3.3,2.7,9.1,6.4,10.4c4.7,1.7,7.8,1,12.5,1c2,0.1,4.1,0,6.1-0.5c5.5-1.5,9-6.7,11.4-11.9c2.7-5.7,5.4-9.5,10.5-13.2
		c3.6-2.6,7-5.4,10.3-8.3c1.2-1.1,4.2-3,4.8-4.5c0.6-1.7-0.4-2.3-1.6-3.6c-4-4-8.3-7.7-12.1-12L281,553.6l-7.9,7.3
		c-1.3,1.2-8.2,5.8-8.1,7c-0.7-8.3-1.4-16.7-4.3-24.6c-0.4-0.9-0.6-1.8-0.8-2.8c0-1.3,0.1-2.5,0.4-3.8c1.3-6.6,0.4-13.5-2.5-19.6
		c-3-6.4-6.8-10-13.4-12.1c-4-1.3-8.1-2.2-12.3-2.8c-0.7-0.1-6.4-0.3-6.5,0.4c0.1,1,0.2,1.9,0.3,2.9 M237.2,542l0.7-0.1L237.2,542z
		 M236.6,542.2l0.2,0L236.6,542.2z"/>
	<path class="st5" d="M358,737.7c-9.6-19.9-16.5-40.7-23.9-61.5c-3.6-9.9-7.2-20.2-13.8-28.6c-3-3.9-5.8-6.9-10.8-8
		c-4.5-1-9.3-0.4-13.7,0.6c-2.5,0.6-4.7,1.9-7.2,2.4c-3.3,0.8-8.4,0-9.8,4.1c-0.6,1.9-0.3,3.9,0.2,5.8c0.7,3.2,1.7,6.3,3,9.3
		c1.6,3.9,3.7,7.5,5,11.5c1,3,1.7,6.2,2.9,9.1c2,4.7,5.3,8.8,9.5,11.8c2.5,1.8,5.4,3.3,7.2,5.8c1.3,1.9,1.4,3.8,2.2,5.8
		c2,5.3,4.3,11,9.1,14c1.3,0.8,2.7,1.4,3.6,2.5c0.6,0.8,1,1.8,1.3,2.7c1,2.9,2.2,5.8,4.1,8.2c1.7,2.2,4,3.8,5.7,6
		c1.7,2.1,2.3,4.9,3.6,7.4C336.5,747.3,358.1,737.9,358,737.7z"/>
	<path class="st8" d="M213.7,502l-8.5,0.8c-9,0.9-18.6,2.1-25.7,7.8c-8.4,6.8-13.5,18.9-11.7,29.6c1,5.9,2.9,11.6,3.5,17.5
		c2.1,19.8,3.7,39.6,4.7,59.5c9.6-0.4,19.2-0.5,28.8-1c11.8-0.6,25.1-1.1,36.4-5.4c1.3-16.4,5.8-32.6,5.5-49
		c-0.1-8-0.2-16.1-0.4-24.1"/>
	<path class="st5" d="M316.8,694.3c0.2-0.5,0.4-0.9,0.6-1.4c0.4-1,0.8-1.9,1-3c3.1-11.8,7.2-24.5,5.9-37.2
		c-1.1-11.1-1-25.2-11.8-31.9c-9-5.6-21.4-9.3-29.2,0c-1.6,2-2.8,4.3-3.4,6.7c-4.7,17.2,3.2,32,0.9,48.1c-0.6,4-1.1,8.2-0.3,12.2
		c0.3,1.3,0.7,2.6,0.8,4c0.4,3.3-0.6,6.6-1.5,9.8c-1,3.4-1.6,6.9-1.5,10.5c0.2,3.6,1.3,7.2,1.3,10.8c-0.1,2.7-0.4,5.3-1,7.9
		c-0.7,3.4-4,10.2,0.4,11.6c2.7,0.8,5.8,0.7,8.6,1.4c0.9,0.2,7.7,2,11.1,3.2c0.9,0.3,1.8-0.2,2.1-1.1c0-0.1,0.1-0.2,0.1-0.3
		c0.6-4.8,2.9-9.8,4.2-14.3c1.7-6,3.2-11.9,4.6-18c0.7-2.9,1.3-5.8,2.3-8.6C313.4,701,315.3,697.7,316.8,694.3z"/>
	<path class="st8" d="M235.9,479.2l-3.4-20.5l-13.2,3.1c-8.4,2-13.6,10.3-11.7,18.7l1.2,5.1c0.4,2,1.3,3.8,2.5,5.4l-2.7,12.4
		c-1.2,5.7,2.5,11.3,8.2,12.5c5.7,1.2,11.3-2.5,12.5-8.2c0-0.2,0.1-0.4,0.1-0.6l2.1-14.2C235.3,489.4,237,484.2,235.9,479.2z"/>
	<path class="st8" d="M239.4,587.9c6.2,1.4,10.8,3.9,16.3,6.9c4.8,2.5,5.7,7.2-0.6,8.4c-3.4,0.6-7,1.2-10.4,0.5
		c-3.6-0.8-4.6-2.8-6.9-5.1c-2-2-5.3-1-8.1-2.2c-1.2-0.4-2.1-1.2-2.6-2.3c-0.3-1.2-0.1-2.4,0.4-3.4c0.3-1,0.9-2,1.6-2.7
		c1.5-1.4,3.9-1.3,6-0.8C236.5,587.2,238,587.5,239.4,587.9z"/>
	<path class="st5" d="M233.2,462c-2.2,1.7-4.8,2.8-7.6,3.3c-2.5,0.4-5.1,0.4-7.6,1.2c-6.6,2.1-5.7,9.3-5.1,14.9
		c0.2,2-1.6,8.5-4.3,7.5c-1.8,0-2.1-2.7-2.5-3.8c-0.8-2.2-1.7-4.4-2.5-6.6c-0.7-1.5-1.1-3.1-1.1-4.7c0.2-2.4,1.9-4.4,2.4-6.7
		c0.4-1.8,0-3.7,0.3-5.5c0.5-2.5,1.9-4.6,4.1-6c3.1-2,6.7-1.2,9.8-2.9c1.7-0.9,3-2.5,4.5-3.7c2.4-1.7,5.4-2.4,8.3-1.9
		c2.5,0.5,4.8,2,5.7,4.3c0.8,2.1,0.2,4.6-0.9,6.6C235.8,459.5,234.6,460.9,233.2,462z"/>
	<path class="st1" d="M215.7,478.9c0.6,2.4-0.9,4.7-3.3,5.3c-2.4,0.6-4.7-0.9-5.3-3.3c-0.6-2.4,0.9-4.7,3.3-5.3c0,0,0,0,0,0
		C212.8,475.1,215.1,476.6,215.7,478.9C215.7,478.9,215.7,478.9,215.7,478.9z"/>
	<path class="st8" d="M167.8,530.9c-1.1,8.9-1.2,18-1.8,27c-0.6,9.8-0.1,19.8,2.6,29.2c0.8,3,2,5.9,4,8.3c7.3,8.5,25.4,5.1,35.3,5
		h24.6c0.1-0.4,0.2-0.8,0.3-1.2c0.7-3.4,2.8-11.3,3.4-14.7l-15.6-1.3l-13.5-1.1c-3.6-0.3-9.1,0.5-9.7-4.2c-0.2-1.7,0-3.5-0.6-5.1
		c-1-2.3-3.8-3.6-4.4-6c-0.5-1.8,0.3-4.1,0.5-5.9c0.2-2.8,1.5-5.3,2.5-7.8c1.9-4.3,3.3-8.9,4.1-13.6l-0.8-0.1"/>
	<path class="st9" d="M346.2,599.5H251c0-1.8,1.5-3.3,3.3-3.4h91.9V599.5z"/>
	<path class="st10" d="M362.6,596.2h-95.2l17-50.3c0.7-1.8,2.4-2.9,4.3-2.9h85.8c3,0,5.2,2.7,4.3,5.4L362.6,596.2z"/>
	<path class="st9" d="M360.9,599.5h-94v-3.4l95.6-4.4v6C362.6,598.8,361.8,599.5,360.9,599.5z"/>
	<path class="st11" d="M324.3,570.8c-1.9-0.1-3.6-1.6-2.4-3.8c0.6-0.9,1.6-1.5,2.7-1.4h0.2c0.1,0,0.1,0.1,0.2,0.1
		C328.1,566.4,327.8,571,324.3,570.8z"/>
	<path class="st6" d="M265.1,567.4c-0.3,0.7-0.7,1.3-1.2,1.9c-0.4,0.6-0.9,1.2-1.2,1.9c-0.3,0.5-0.6,0.9-0.9,1.4"/>
	<path class="st5" d="M220.9,492.5c2.9,3.6,6.5,6.6,9.1,10.5c0.3-2.4,0.9-9.1,1.2-10.4C227.8,493.5,224.2,493.5,220.9,492.5z"/>
	<path class="st5" d="M225.4,483.3c0.2,1.3,1.1,2.3,2.4,2.5c1.2,0.2,2.5-0.2,3.4-1.1c0.8-0.9,1.3-2.2,1.2-3.4
		c-0.1,0-0.2,0.1-0.1,0.1"/>
	<path class="st5" d="M212,478.3c-0.7-0.1-1.5,0.1-2,0.7c-0.5,0.6-0.6,1.4-0.3,2.1c0.4,0.7,1.1,1,1.9,0.8"/>
	<path class="st12" d="M280.7,687.9c-0.4-4.5-1.4-9.1,0.3-13.3c1.9-4.5,2.6-6.8,1.3-9.4c-1.5-3-1.2-5.9,0-9.2"/>
	<path class="st12" d="M318.6,626.5c10.7,22.2,4.2,39.3-1.1,59.5c-3.5,13.1-8.1,26.1-10.6,39.4"/>
	<path class="st5" d="M176.7,589.7c-0.2,0.8,0,1.6,0.4,2.3c0.2,0.4,0.5,0.7,0.9,1c1,0.4,2.1,0.5,3.1,0.2"/>
	<path d="M225.7,548.5l0.3-0.2"/>
	<path class="st8" d="M626.4,570.2c0,2.2,0.2,3.2-1.8,4s-5,0.6-7.1,1c-4.6,0.8-9.3,2.2-13.2,4.8c-6.9,4.4-15,5.3-22.2,9.9
		c-1.1,0.8-2.4,1.5-3.7,2c-1.7,0.4-3.5,0.4-5.3,0.2c-5.1-0.2-10.6,1.1-14.2,4.7c-1.2,1.2-2.2,3.2-1.4,4.7c0.5,0.8,1.2,1.4,2.1,1.7
		c6.2,2.8,12.8,1,18.8-1.3c5.1-1.9,11.3-2.3,16.7-2.7c9-0.7,18.1-0.2,27-2c4.8-0.9,9.5-2.3,13.9-4.4c4-2,9-4,10.9-8.4
		c0.4-0.9,0.6-1.7,0.8-2.6l5-19.7c1.3-5,1.1-10.2,1-15.4c-0.1-4.3-0.9-8.6-2.2-12.8c-1-3.1-2-7-3.7-9.7c-1.8-2.8-4.8-4.6-8-4.9
		c-6.5-0.7-12.6,3.6-12.2,10.4c0.5,8.4-2.3,16.6-0.4,25c0.3,1,0.4,2,0.5,3c-0.1,1-0.2,2-0.5,2.9C626.6,563.7,626.4,567,626.4,570.2z
		"/>
	<path class="st5" d="M605.2,720.1c2.6,3.9,4.5,7.6,3.8,12.8c-1,7.6-7.3,12.7-8.9,20.1c-0.2,0.7-0.2,1.4-0.1,2.1
		c0.5,1.4,1.6,2.5,3.1,2.8c7.2,1.9,13.5-8.7,17.6-12.8l15.4-15.5c1.4-1.4,1.2-3.9-0.4-5.5l-17.2-17.8l-2.5-2.6
		c-4.2-4.4-10.5-4.9-13.9-1.1c-3,3.3-2.7,8.9,0.3,13.3C603.4,717.4,604.3,718.8,605.2,720.1z"/>
	<rect x="662.6" y="648.5" class="st5" width="3.8" height="84.4"/>
	<path class="st7" d="M698,750.6c0-12.5-22-17.7-33.1-17.7c-13.1,0-33.1,4.8-33.1,17.7"/>
	<line class="st7" x1="664.6" y1="753.9" x2="664.6" y2="733.2"/>
	<path class="st5" d="M626.5,753.6c0,3,2.4,5.4,5.4,5.4c3,0,5.4-2.4,5.4-5.4c0-3-2.4-5.4-5.4-5.4c0,0,0,0,0,0
		C628.9,748.2,626.5,750.6,626.5,753.6z"/>
	<path class="st5" d="M659.2,753.6c0,3,2.4,5.4,5.4,5.4c3,0,5.4-2.4,5.4-5.4c0-3-2.4-5.4-5.4-5.4c0,0,0,0,0,0
		C661.7,748.2,659.2,750.6,659.2,753.6z"/>
	<path class="st13" d="M692,753.6c0,3,2.4,5.4,5.4,5.4c3,0,5.4-2.4,5.4-5.4c0-3-2.4-5.4-5.4-5.4c0,0,0,0,0,0
		C694.4,748.2,692,750.6,692,753.6z"/>
	<path class="st8" d="M668.3,620.2v-62.1c0-10.7,8.7-19.5,19.5-19.5l0,0h21.4c10.7,0,19.5,8.7,19.5,19.4c0,0,0,0,0,0v69.4
		c-0.1,15.4-12.5,27.8-27.9,27.8h-69.8c-1.8,0-3.3-1.5-3.3-3.3l0,0l0,0c0-1.8,1.5-3.3,3.3-3.3l0,0h8.7
		C655.4,648.8,668.2,636,668.3,620.2z"/>
	<path class="st5" d="M599.4,739.9c-0.8,4.6-2.1,8.6-6.2,11.8c-6,4.8-14.1,4.1-20.4,8.3c-0.6,0.4-1.1,0.9-1.5,1.4
		c-0.7,1.3-0.6,2.9,0.2,4.2c3.9,6.4,15.8,3.2,21.6,3l21.8-0.4c1.9,0,3.5-1.9,3.5-4.2v-24.7v-3.7c0-6.1-4.1-10.8-9.3-10.4
		c-4.4,0.3-8.1,4.5-9,9.7C599.9,736.6,599.7,738.3,599.4,739.9z"/>
	<path class="st14" d="M639.9,584.3L639.9,584.3c0-0.1,0-0.2,0.1-0.3L639.9,584.3z"/>
	<polygon class="st14" points="654.5,514.8 654.2,516.1 654.2,516.1 	"/>
	<path class="st14" d="M640.1,583.3c0,0.3-0.1,0.5-0.2,0.8l0.2-1C640.1,583.1,640.1,583.2,640.1,583.3z"/>
	<polygon class="st14" points="625.5,530.2 627.8,511.2 625.6,530.2 	"/>
	<path class="st5" d="M628.5,511.4c1.7-5.1,4.6-9.8,9.5-12.2c1.5-0.7,3-1.3,4.6-1.8c4-1.4,8-2.5,12.2-3.2c0.7-0.1,1.6,0,1.8,0.7
		c0,0.3,0,0.6-0.1,0.8c-0.2,1.1,0.3,2,0.2,3.1c-0.3,1.4-0.6,2.8-1.1,4.2c-0.7,2.8-1.4,5.8-1.1,8.7c0.5,4.4-1.9,8.1-1.9,12.3
		c-0.2,0.7-2.2,10.6-2.2,10.6l-24.8-4.2C626.3,523.8,626.5,517.4,628.5,511.4z"/>
	<path class="st5" d="M566.7,634.2c-0.3-2.7,0.1-5.5,1-8.1c1.8-5.5,7.1-9.3,12.7-10.8c5.6-1.6,11.5-1.5,17.3-1.7
		c11.6-0.4,23.2-4.1,34.8-3.6c3,0.1,5.9,1,8.9,0.8c7.9-0.3,14.4-7,22.3-7.5c2.6-0.1,5.1,0.3,7.6,1.1c4,1.2,8,3.2,10.7,6.4
		c5.4,6.3,4.9,15.9,1.8,23.5c-1.2,3.1-2.9,6-5.2,8.5c-3.3,3.4-7.6,5.4-12,6.8c-5.1,1.7-9.3,1.6-14.6,1.5l-35.3-0.3
		c-8.7-0.1-17.3,1.1-25.9,0.3C580,650.3,567.9,644.9,566.7,634.2z"/>
	<path class="st5" d="M575.4,618c4.3-3.3,9.4-4.8,15.4-2.7c3,1.1,5.6,3,7.7,5.4c10.6,12,12.6,31.8,15.8,46.9
		c1.8,8.8,3.4,17.6,4.8,26.4c0.4,2.5,4.8,25.1,3.4,25.8c-1.5,0.7-25.7,3-25.5,3.5c-4.7-12.1-10.2-24.3-14-36.7
		c-2.1-7-5.6-13.5-8.5-20.2c-3.5-8-6.1-16.4-7.9-25C564.7,631.9,567.7,623.8,575.4,618z"/>
	<path class="st10" d="M640.6,635.6c-0.3,0.4-0.6,0.8-0.8,1.2c-7.4,11.8,12.5,14.7,19.7,14.7l25.3,0c14.6,0,26-7.3,26.5-21.8v-43.7
		l-31.3,0.1c-6.2,0-13.2-0.8-19.4,0c-4.4,0.6-3.9-0.4-5.7,4c-2.3,5.5-1.1,14.2-2.1,20.2c-1.3,7.6-3.7,15.2-8.6,21.1
		C643,632.9,641.7,634.2,640.6,635.6z"/>
	<path class="st10" d="M617.9,672.1c-1.6-0.6-3.7-3.4-5.5-3c-1.6,0.4-3.1,3.5-3.8,4.8c-1.9,3.7-3,7.8-5.7,11
		c-0.2,0.3-0.6,0.6-0.9,0.7c-0.8,0.3-1.7-0.2-2.3-0.8c-5.3-4.7-5.7-14.2-6-20.8c-0.5-11.2,5-21.8,14.3-27.9c3.1-1.9,6.4-3.5,9.8-4.8
		c10.8-4.8,21.2-10.5,31.1-17c4.1-2.7,8.5-4.9,13.1-6.6c8.1-3.2,16.8-4.1,25.4-2.7c10.4,1.7,20.8,3.8,24.1,18.5
		c2.5,11.5-1.9,22.1-9.6,24.9c-0.2,0.1-0.4,0.1-0.5,0.2l-71.8,24c-0.1,0.1-0.3,0.1-0.4,0.2c-0.4,0.1-0.8,0.3-1.2,0.3
		C624.5,673.7,621,673.4,617.9,672.1z"/>
	<path class="st5" d="M641.7,503.9c0.6-1.7,1.6-3.2,2.9-4.5c6.6-6.2,17.1-5.9,25.6-6.2c5.5-0.3,11,0,16.5,0.8
		c5.8,1,10.2,3.2,15.3,5.8c2.9,1.4,5.9,2.9,8.2,5.2c5.4,5.2,6.5,13.3,6.7,20.8c0.2,7.5-6.3,83.8-6,83.8c-9.6-0.4-19.2-0.5-28.8-1
		c-4.9-0.3-9.8-0.5-14.7-1c-2.7-0.3-5.4,0.1-8.1-0.3c-3-0.3-2.7-1.6-4.7-2.9c-1-0.6-1.9-0.1-2.6-1c-0.6-0.7-0.3-3.5-0.3-4.5
		c-0.2-3.2-0.3-6.4-0.7-9.6c-0.4-3.6-1.3-7-1.6-10.7c-0.7-9.1-1-18.2-3-27.1c-1.7-8-4.7-15.7-6.3-23.6c-1.2-5.5-1.4-11.2-0.4-16.8
		C640.2,508.7,640.9,506.2,641.7,503.9z"/>
	<path class="st8" d="M676.9,481.1c1.2-1.5,0.9-1.3,1.4-3.3l4.7-20.2l-28.4-6.6l-3.4,20.5c-1.2,5,0.5,10.3,4.4,13.7l2.1,14.2
		c0.7,5.8,6,9.8,11.8,9.1c5.8-0.7,9.8-6,9.1-11.8c0-0.4-0.1-0.7-0.2-1L676.9,481.1z"/>
	<path class="st5" d="M660,488.7c3.4-0.7,5.7-4.3,5.7-4.3c-2,0.8-4.1,1.2-6.2,1.4c-1.3,0-2.5-0.3-3.6-0.9l0.4,3.3
		C656.3,488.2,656.6,489.4,660,488.7z"/>
	<path class="st5" d="M653.1,455.3c2,0.7,4.1,1.1,6.1,1.7c2.9,0.8,5.9,1.4,8.8,2.2c7.7,2.3,6,9.9,6,16.4c0,1.8,0.2,3.9,1.6,4.9
		c4.1,2.8,5.1-5.9,6.1-7.9c0.5-1.1,1.4-2,1.8-3.1c0.9-2.3,0.1-4.9,0.4-7.4c0.1-1.1,0.5-2.2,0.6-3.4c0.4-4.7-3.9-9.1-7.8-11
		c-3.1-1.5-6.4-3.6-8.3-6.6c-0.3-0.5-0.6-1-1-1.4c-0.3-0.3-0.7-0.5-1.2-0.6c-2.4-0.8-4.9-0.3-6.9,1.1c-0.6,0.5-1.2,1-1.9,1.3
		c-1.1,0.4-2.3,0.1-3.5,0.1c-1.7-0.2-3.5,0.4-4.8,1.5c-1.3,1.2-1.8,3-1.2,4.7c0.4,1,1.2,1.7,1.7,2.6c1,2.2,0.5,3.8,2.9,4.7
		L653.1,455.3z"/>
	<path class="st1" d="M671,472.6c-0.4,1.6,0.6,3.2,2.2,3.6c1.6,0.4,3.2-0.6,3.6-2.2c0.4-1.6-0.6-3.2-2.2-3.6c0,0,0,0,0,0
		C673,469.9,671.4,471,671,472.6z"/>
	<path class="st10" d="M603.6,642.5c-2.5,4.3-4.4,8.9-5.5,13.8c-1.9,7.6-3.8,15.4-2.6,23.1c0.3,2.3,0.9,4.5,1.1,6.7
		c0.2,4.1-1,8.1-1,12.2c0.2,2.9,0.6,5.8,1.3,8.6c1.4,7,1.9,14.2,1.6,21.3c-0.1,2.3-0.2,4.7-0.3,7c-0.1,1.9,0.2,4.5-0.7,6.1
		c2.8,0.4,5.5,0.8,8.3,1.1c5.1,0.7,10.3,1.4,15.5,1.8c1.6,0.1,5.1,1,6.4-0.1c1.1-0.8,1.3-3.6,1.6-4.9c2.4-9.5,4.4-19.5,2.5-29.2
		c-0.3-1.8-0.8-3.5-1-5.3c-0.2-2.2-0.1-4.5,0.3-6.7c1.2-9.2,3.5-18.2,4.7-27.5c1.3-9.7,2.1-19.5,2.8-29.2
		c1.3-17.3-22.4-11.7-30.3-4.5C606.5,638.5,604.9,640.4,603.6,642.5z"/>
	<path class="st13" d="M532,428.1h-0.7C531.3,428.1,532,428,532,428.1z"/>
	<path class="st8" d="M683.9,513.4c-3.1,2.9-7.8,5.2-11.4,7.5c-3.1-2.8-6.8-4.8-10.8-6c-2.2-0.7-4.5-1-6.7-1.8
		c-9.9-3.6-17.5-11-27.7-14.3c-5.1-1.7-10.8-2.9-14.3-6.9c-4.3-5-5.1-12.4-8.3-18.1c-1.2-2.2-3.2-4.1-5.8-1.7
		c-2,1.9-1.3,5.5-0.8,7.9c0.6,3.6,1.4,7.1,2.1,10.7c1.1,5.2,1.7,7,6.4,9.5c4.8,2.5,9.2,5.7,12.9,9.5c2.4,2.5,4.3,5.4,6.5,8
		c8,9.1,19.6,14.3,28.4,22.6c4.3,4,8.8,9.5,15.2,7.7c2.1-0.6,26.7-7.1,25.9-8.5c-2.8-5.1-5.3-10.4-7.3-15.9
		C686.9,520.1,685.1,516.8,683.9,513.4z"/>
	<path class="st12" d="M710.4,528c-2.8,5.4-8.7,9.3-15.2,11.7"/>
	<path class="st6" d="M515.7,442.5c0,0.1,0,0.2,0,0.2"/>
	<path class="st5" d="M617.7,580.1h-107c-1.8,0-3.4-1.3-3.8-3.1l-13.3-61.6c-0.5-2.1,0.9-4.2,3-4.7c0.3-0.1,0.6-0.1,0.8-0.1h107
		c1.8,0,3.5,1.3,3.8,3.1l13.3,61.6c0.4,2.1-0.9,4.2-3,4.6C618.3,580,618,580.1,617.7,580.1z"/>
	<path class="st5" d="M559.2,597.6l2.1-25.3c0.3-2.3-1.3-4.3-3.6-4.6s-4.3,1.3-4.6,3.6c0,0.1,0,0.2,0,0.3l-2.2,26h-15.4v2.6h39.6
		v-2.6H559.2z"/>
	<path class="st1" d="M541,524.7c-0.3-2.6-4.4-2.6-4.1,0l1,8.5c0.3,2.6,4.4,2.6,4.1,0L541,524.7z"/>
	<path class="st1" d="M549.2,524.7c-0.3-2.6-4.4-2.6-4.1,0l1,8.5c0.3,2.6,4.4,2.6,4.1,0C549.9,530.4,549.6,527.5,549.2,524.7z"/>
	<path class="st1" d="M557.5,524.7c-0.3-2.6-4.4-2.6-4.1,0c0.3,2.8,0.7,5.6,1,8.5c0.3,2.6,4.4,2.6,4.1,0L557.5,524.7z"/>
	<path class="st1" d="M565.7,524.7c-0.3-2.6-4.4-2.6-4.1,0l1,8.5c0.3,2.6,4.4,2.6,4.1,0L565.7,524.7z"/>
	<path class="st1" d="M574,524.7c-0.3-2.6-4.4-2.6-4.1,0c0.3,2.8,0.6,5.7,1,8.5c0.3,2.6,4.4,2.6,4.1,0
		C574.6,530.4,574.3,527.5,574,524.7z"/>
	<path class="st5" d="M643,580.6c0.3,1.9,0.3,4.1-1.1,5.4c-0.9,0.7-1.9,1.1-3,1.2"/>
	<path class="st5" d="M663.8,540.3c0.4,2,2.3,3.2,4.2,2.8c0.9-0.2,1.7-0.7,2.3-1.5"/>
	<path class="st13" d="M407.7,453.9c0.6-0.2,1.1-0.6,1.4-1.2C409.2,452.7,407.5,453.9,407.7,453.9z"/>
	<rect x="105.4" y="599.3" class="st5" width="666.5" height="7.4"/>
	<polygon class="st5" points="765,774.3 759.9,774.3 718.5,600.7 723.5,600.7 	"/>
	<polygon class="st5" points="719.1,774.3 714,774.3 672.6,600.7 677.6,600.7 	"/>
	<polygon class="st5" points="114.1,774.3 119.2,774.3 160.7,600.7 155.6,600.7 	"/>
	<polygon class="st5" points="160,774.3 165.1,774.3 206.6,600.7 201.5,600.7 	"/>
	<path class="st5" d="M512.4,672.8c-2.2-10.6-21.3-9.7-29.9-11.2c-11.7-2-23.3-4-35-6.1c-2.6-0.5-5.6-0.8-7.9,0.6
		c-1.3,0.9-2.3,2-3.1,3.4c-3.5,5-6.4,10.5-7.3,16.2s0.5,12,4.8,15.6c3.9,3.4,9.4,4.2,14.6,4.9c3.2,0.4,6.3,1.2,9.4,1.7
		c1.8,0.3,3.6,0.1,5.2,1.1c4.6,3.1,3.3,10.4,2.1,15.2c-1.1,4.5-2.6,9.2-1.5,13.5c0.4,1.1,0.7,2.3,1,3.5c0.1,1.5,0,3.1-0.3,4.6
		c-1.4,8.1-4.3,16.7-1.2,24.4c0.4,0.9,0.8,1.8,1,2.8c0.1,0.8,0.1,1.6-0.1,2.5c-0.6,5.5-1.3,11-1.9,16.4c-0.9,8.2,18.7,0.8,20.2,0.9
		c2.2,0,6.9,0.8,8.9-0.3c3-1.9,3.7-11,4.2-14.3c0.7-4.7,1.1-9.5,2-14.2c1.6-8.5,5.2-16.5,6.7-25c0.8-4.2,0.5-8.7,1.3-12.9
		c0.7-3.5,1.6-7.1,2.2-10.7c1.4-8.7,2.9-17.3,4.3-26c0.4-1.9,0.6-3.9,0.4-5.9C512.5,673.2,512.5,673,512.4,672.8z"/>
	<path class="st10" d="M508.8,721.6l-1.7,4.3c-1.4,3.6-2.8,7.3-3,11.2c-0.2,3.9,0.8,7.7,0.9,11.6c0.1,6.6-3.2,12.3-3.3,18.8
		c0,2.4,0.6,4.7,0.8,7.1c0.1,2.4-0.1,4.9-0.5,7.2c-0.5,3.9-1.1,7.8-1.6,11.7c-0.4,3.2-1.4,5.3,2.2,5.7c9.7,0.9,18.9-0.5,28.5-1.2
		c0.4,0,0.8-0.1,1.1-0.3c0.2-0.2,0.3-0.5,0.4-0.8c3.5-13.5,6.7-26.5,8.4-40.3c0.1-1.2,0.4-2.5,0.8-3.6c0.7-1.4,1.9-2.5,2.9-3.8
		c2.5-3.1,2.5-6.2,3.6-9.8c1.1-3.5,2.3-6.7,3-10.3c1.8-8.5,3.6-17,5.4-25.4c1.5-7,3.2-13.3-0.5-20c-1.3-2.1-3-4-5.1-5.4
		c-17-13.7-38-21.5-59.8-22.3c-8.1-0.3-18.3-0.8-21.3-8.3c-1.1-2.8-0.8-6-1.3-9c-1.3-8.8-15-10.9-22.1-8.6c-9.6,3.1-12.6,15-13.7,25
		c-0.8,8.2-1.4,16.7,0.9,24.6c3.5,11.8,13.4,21,24.6,25.9c8.9,3.9,18.5,5.3,28.1,5.9c7.3,0.4,14.6-1,21.8-1.8
		c5.1-0.6,4.4,0.8,2.7,5.1L508.8,721.6z"/>
	<path class="st6" d="M444.3,503c0.3,1.3,0.5,2.6,0.7,3.8c0.4,2.5,0.7,5.4-1,7.4c-1,1.1-2.5,1.7-3.5,2.8c-1.5,1.6-1.6,4.1-1.3,6.2
		c0.4,2.6,0.4,4.9,0.6,7.4c0.1,2.7,1.3,5.2,1.2,8c-0.2,5.3-4.1,8.8-9.2,8.4c-3-0.2-6.4-0.6-8.2-3c-0.8-1.2-1.3-2.6-1.6-4.1
		c-2.5-10.8-5-22.2-2.2-32.9c1-4,2.3-8.7,4.7-12.1c1.7-2.5,3.6-5.7,6-7.6c2.2-1.7,5.5-2.4,7.8-0.7c1.5,1.1,2.2,3,2.8,4.8
		C442.4,495.2,443.4,499,444.3,503z"/>
	<path class="st8" d="M471.8,547.9c0.6-4.1,3-7.7,6.4-9.8c3.8-2.3,7.8-4.3,11.9-6l1.7-0.6c10.9-3.9,22.4-6.3,33.1-10.7
		c11.9-4.8,23.3-10.6,34.9-16c7.8-3.6,15.4-7.5,22.3-12.7c5.8-4.4,4-13.2,6.8-19.3c1.2-2.6,3.5-5.3,5.6-1.8c2,3.3,1.4,7.6,1.9,11.3
		s1,7.3-0.6,10.8c-1.1,2.4-3.2,4.3-5.2,6.1l-5.8,5.2c-2.2,2-4.4,4.1-6.7,5.9c-7.3,5.5-14.4,11.4-21.2,17.6
		c-6.7,6.1-12.8,12.4-20.5,17.4c-7.5,5-15.8,8.8-24.5,11.2l-0.4,0.1c-8.5,2.3-16.3,5.8-25.4,4.8
		C478.8,560.8,470.4,556.1,471.8,547.9z"/>
	<path class="st5" d="M466.6,635.8c0,0.3-23.4,1.5-25.5,1.6c-4.2,0.3-9.6,1.6-13.8,0.8c-2.6-0.5-3.8-3.3-6.9-2.7
		c-1.9,0.4-4.1,1-5.5-0.3c-0.8-0.8-1-2.2-1.1-3.4c-0.5-8.8-1-17.6-1.4-26.4c-0.4-7.3-9.3-9.3-14.6-12.6l-10.7-6.7
		c6.7-14.4,15.9-26.9,26.9-38.3c11.5-11.9,19.6-13,36.4-13.2c13.6-0.1,27.1-1.9,40.2-5.3c3.1,11.1,6.5,22.3,9.5,33.4
		c-7.7,4.2-17,7.2-25.4,10c-2.5,0.9-5.2,2-6.5,4.3c-1.1,1.8-1.1,4-1.1,6.1L466.6,635.8z"/>
	<line class="st12" x1="758.1" y1="899.8" x2="718.2" y2="899.8"/>
	<path class="st15" d="M727.8,799.4c0-0.4,0.1-0.8,0.1-1.2c0.7-4.3,4.1-7.6,6.4-11.3c2.3-3.6,3.5-7.7,3.7-12
		c0.3-7.9,0.1-18.1,3.5-25.4c3.1-6.6,10.4-10.2,14.1-16.4c2.1-3.4,2.7-7.5,3.6-11.4c1.5-6.2,3.8-12.4,8-17.2
		c3.2-3.8,7.4-6.6,11.6-9.3s8.1-5.4,12.6-7c6-2.1,12.6-2.8,15.4,3.4c2.2,5,1.1,12-1.2,16.7c-2.1,4.1-5.3,7.4-8.4,10.8
		c-5.3,5.9-10.2,12.1-14.5,18.8c-1.2,1.8-2.4,3.8-2.7,6c-0.3,2.2,0.4,4.2,0.6,6.4c1.4,10.8-3.1,19.5-11.4,26.1
		c-6.6,5.2-10.7,8.1-12.3,17.1c-1,5.6-1.5,11.4-4.6,16.2c-1.4,1.9-2.8,3.7-4.4,5.3c-5.6,6.6-9,14.7-9.8,23.3
		c-0.4,4.3-1.3,13.9-8.1,11.9c-8.4-2.4-7.4-26.9-4.9-32.7c1-2.5,2.6-4.7,3.1-7.4C729,806.6,727.6,802.9,727.8,799.4z"/>
	<path class="st10" d="M693.7,813.6c-1.8-1.2-3.3-2.8-4.3-4.7c-2.5-5.4,1.4-9.1,1.7-14.1c0.3-4.6-3.7-7.5-6.2-10.6
		c-3.2-4.1-3.9-9.6-1.8-14.4c0.9-2,2.3-4.1,2-6.3c-0.2-1.6-1.4-2.9-2.2-4.4c-2.4-4.1-2.5-9.2-0.3-13.4c1.3-2.3,3.2-4.3,3.7-6.9
		c0.2-1.8,0.1-3.5-0.3-5.3c-1-5.6-2-11.3-1.7-17.1c0.2-2.5,0.6-5.1,2.1-7.1c1.3-1.8,3.5-3.4,5.8-2.7s2.8,2.6,3.6,4.6
		c2.5,5.7,3.2,10.8,4.2,16.9c0.1,1.1,0.5,2.1,1.1,3c0.8,0.9,1.7,1.7,2.7,2.3c6.4,4.2,11.7,11.1,11.7,18.8c0,4.5-1.8,8.8-1.9,13.3
		c-0.1,1.2,0.2,2.3,0.8,3.3c0.7,0.8,1.6,1.4,2.6,1.8c2.8,1.4,5.4,3.4,6.7,6.3c1.5,3.2,1.1,7,0.1,10.4c-1.1,3.4-2.8,6.5-3.9,9.9
		c-0.3,0.8-0.5,1.7-0.4,2.6c0.2,2.1,1.9,3.1,3.1,4.7c1.1,1.6,1.3,2.7,2,4.6c1.7,4.9,3.4,9,2.6,14.4c-0.3,2.1-1,4.2-1.2,6.4
		c-0.5,4.3,0.7,8.6,1.4,12.9c0.4,2.8,1.5,9.5-1.4,11.5c-2.5,1.7-6.1-1.1-8.2-2.3c-6.6-3.9-11.3-6.9-12.4-14.9
		c-0.8-5.6,0-12.1-3.7-16.9C699.7,817.2,696.4,815.6,693.7,813.6z"/>
	<path class="st10" d="M737.3,817.1c1.6-4.2,3.8-8.2,6.5-11.9c2-2.6,4.2-5.1,6-7.9c2.8-4.5,4.3-9.7,7-14.2
		c4.2-6.9,12.5-10.9,20.2-6.9c2.6,1.5,5.1,3.3,7.2,5.5c2.5,2.2,4.9,4.7,7,7.3c4.2,5.4,6.5,11.8,8.8,18.2l8.2,22.6
		c1.3,3.6,4.3,11.7,1.3,15.3c-3,3.5-9.3-1.5-10.6-4.4c-0.9-1.9-2.2-3.5-3.8-4.8c-2.1-1.6-4.7-2.7-6-4.9c-1.3-2.3-1.1-5.9-3.5-7.1
		c-0.7-0.3-1.5-0.5-2.2-0.7c-2.1-0.7-3.4-2.7-4.5-4.6c-2.6-4.3-4.5-9.1-7.3-13.3c-1.8,0.5-3.3,5.8-4.5,7.5c-1.7,2.4-3.9,4.6-6.3,6.3
		c-3.8,2.6-8.3,4.4-10.8,8.2c-1.4,2.1-1.9,4.7-2.7,7.1c-1.1,3.5-4.3,13.5-9.7,11.8c-3.7-1.2-3.5-7.4-3.6-10.3
		C733.9,829.4,735,823.1,737.3,817.1z"/>
	<path class="st1" d="M765.6,838.3h-78v9.7h6.3l5.1,28.8c2.4,13.4,14,23.2,27.6,23.2l0,0c13.6,0,25.3-9.8,27.6-23.2l5.1-28.8h6.3
		L765.6,838.3z"/>
	<line class="st16" x1="691.7" y1="848.8" x2="761.5" y2="848.8"/>
	<path class="st17" d="M442.7,657.4l18.8,2.2c11.3,1.4,23.5,3.2,31.4,11.5c4.9,5.2,7.3,12.3,8,19.3c0.7,7.1,0,14.2-0.8,21.2"/>
	<rect x="425.9" y="708.8" class="st5" width="3.8" height="84.4"/>
	<path class="st7" d="M394.4,810.9c0-12.5,22-17.7,33.1-17.7c13.1,0,33.1,4.8,33.1,17.7"/>
	<line class="st7" x1="427.8" y1="814.2" x2="427.8" y2="793.5"/>
	<path class="st5" d="M465.9,813.9c0,3-2.4,5.4-5.4,5.4c-3,0-5.4-2.4-5.4-5.4c0-3,2.4-5.4,5.4-5.4c0,0,0,0,0,0
		C463.5,808.5,465.9,810.9,465.9,813.9z"/>
	<path class="st5" d="M433.1,813.9c0,3-2.4,5.4-5.4,5.4c-3,0-5.4-2.4-5.4-5.4s2.4-5.4,5.4-5.4l0,0
		C430.7,808.5,433.1,810.9,433.1,813.9z"/>
	<path class="st5" d="M400.3,813.9c0,3-2.4,5.4-5.4,5.4c-3,0-5.4-2.4-5.4-5.4s2.4-5.4,5.4-5.4l0,0
		C397.9,808.5,400.3,810.9,400.3,813.9z"/>
	<path class="st8" d="M453.7,677v-72.5c0-12.5-11.5-22.7-25.7-22.7h-28.3c-14.2,0-25.7,10.2-25.7,22.7v81
		c0,17.9,16.6,32.5,36.8,32.5h92.2c2.4,0,4.3-1.7,4.3-3.8l0,0c0-2.1-1.9-3.8-4.3-3.8h-11.5C470.7,710.4,453.7,695.5,453.7,677z"/>
	<path class="st6" d="M404.8,482.7c-3.8,0.2-7.7,0.4-11.3,1.7c-7,2.5-10.2,7.7-13.8,13.6s-9.6,9.4-14.1,14.5
		c-8.4,9.4-9.5,24.4-2.5,35c2.3,3.4,5.2,6.4,8.6,8.9c18.4,13.9,48.3,4,59-15.5c5.6-10.3,3.5-23,1.2-34.5c-1.3-6.3-0.5-11.3,6-14.6
		c1.7-0.8,3.6-1.4,5.1-2.4c3.8-2.5,5.2-8,3.5-12.3c-1.7-4.3-6.1-7.2-10.7-7.7c-2-0.3-4,0-5.9,0.8c-4.4,1.8-6.8,6.5-10.7,9.2
		C415.1,482.1,410,482.4,404.8,482.7z"/>
	<path class="st5" d="M525.9,542.3c-0.2,0.1-0.1,0.4,0,0.6c0.9,1.2,2.4,1.9,3.9,1.8c1.5-0.2,2.9-0.8,4-1.9"/>
	<path class="st8" d="M86.2,791.2c5.6-0.5,11.3,0,16.8,1.5c0-9.5-0.3-19-0.8-28.7c-0.3-6.3-2.7-12.1-10-13.4
		c-4.4-0.8-7.8,0.7-9.2,4.4C79.7,764,83.9,781.1,86.2,791.2z"/>
	<path class="st5" d="M64,715.6c0.6,6.1-0.4,13-0.6,19.1c-0.3,7.1,3.1,12.5,3.9,19.3c0.7,6.5,0.9,13,0.7,19.6c0,0.3,0.2,0.5,0.5,0.5
		c0,0,0,0,0,0h41.2c0.3,0,0.5-0.2,0.5-0.5c0.4-4.2,0.8-7.9,0.8-7.9c0.6-6.1,0.8-11-0.9-16.8c-0.7-2.4-1.3-4.9-1.8-7.5
		c-0.8-4-1.2-8.1-1.6-12.1c-0.6-6.1-0.6-12.2-1.1-18.3c-0.5-5.9-1.5-11.8-2.5-17.7c-3.1-17.8-6.2-35.5-10.4-53
		c-2.1-8.8-4.6-17.6-7.5-26.1c-3.4-10.2-7.8-20-13.1-29.3c-3.3-5.6-7.2-11.8-13.8-13.8c-5.2-1.6-11-2.4-16.2-0.2
		c-6.9,2.9-12.3,8.6-18,13.3c-0.8,3.8-1.6,7.6-2.3,11.5c-1.9,9.1,0.6,19.5,5,27.5c1.6,3,3.6,5.8,4.9,8.9c2,4.7,2.3,9.9,3.9,14.7
		c1.5,4.8,4,9.1,6.4,13.5C50.8,676.9,61.9,696.5,64,715.6z"/>
	<path class="st8" d="M123.9,575.6c0.9,4,0.3,9,2.8,12.5c2.6,3.5,10.2,4.6,14.2,6c0.9,0.2,1.7,0.7,2.4,1.3c1.5,1.7,0.2,4.5-1.9,5.4
		c-2,0.9-4.4,0.4-6.6-0.1l-15.4-3.4c-1.1-0.2-2.1-0.5-3.1-1c-2.6-1.5-3.5-4.8-3.9-7.7c-2.9-21.3-22.8-35.4-29.6-55.3
		c-1.6-5.1-2.9-10.4-3.9-15.7c-1.5-7.7-3-15.5-4.6-23.2c-1.2-5.5-4.3-10.5-1-16c2.5-4.2,8.3-6.1,12.9-4.3c7.4,2.7,10,11,12.3,17.7
		c3.2,9.3,5.8,17.7,5.3,27.7c-0.1,2.6-0.5,5.4,0.5,7.9c1,2.8,3.4,4.8,5.3,7.1c6.4,7.6,7.4,17.9,9.7,27.2c1.2,4.7,3.4,9.1,4.6,13.7
		L123.9,575.6z"/>
	<path class="st8" d="M11.5,800.2c5.5-0.5,11,0,16.4,1.4c2.4-9.1,4.7-18.3,6.7-27.5c1.3-6.1,0.5-11.6-6.5-12.8
		c-4.2-0.7-8,0.7-10.3,4.2C12.2,774.1,11.9,790.5,11.5,800.2z"/>
	<path class="st5" d="M55.7,811.7c-3.9,2.5-8.7,2.7-13.1,2.6h-1.4c-7,0-14-0.3-21.1-0.8c-2.9-0.2-6.1-0.5-8.5-2.2
		c-2.8-2-2.4-5.5-1.7-8.6c0.6-2.6,1-5.3,1.1-8c3.3,1,7,2.1,10.4,1.7c1.9-0.2,3.8-0.7,5.6-1.5c0.9-0.4,1.7-0.9,2.4-1.4
		c0.4-0.3,1.6-1.7,2.1-1.6c0.5,0.1,0.8,1.3,1,1.7c0.5,0.8,1.2,1.6,1.9,2.3c1.4,1.3,3.1,2.3,4.9,3c1.7,0.5,3.4,0.9,5.1,1.2
		c2.5,0.4,4.9,1,7.3,1.6c1.5,0.3,3,0.9,4.3,1.7c1.3,0.8,2.2,2.2,2.4,3.8c0,1.7-0.9,3.4-2.4,4.3L55.7,811.7z"/>
	<path class="st10" d="M128.3,801.1c-0.4,2-2.8,3.4-4.9,4.1c-9.4,2.8-19.5,0.1-29.3,0.9c-2.4,0.2-4.9,0.6-7.2,0
		c-5.4-1.3-5.2-8-4-12.3c0.6-2,1.6-4,1-6c4.3,0.9,8.8,1,13.2,0.3c1.7-0.2,3.3-0.7,4.7-1.6c0.6-0.4,1.2-1,1.9-0.7
		c0.5,0.2,0.7,0.6,1,1c2.1,3.4,4.9,4.6,8.3,6.3c1.3,0.8,2.7,1.4,4.1,1.9c1.9,0.5,3.9,0.9,5.9,1.3c2.2,0.5,4.9,1.4,5.4,3.6
		C128.4,800.2,128.4,800.6,128.3,801.1z"/>
	<path class="st10" d="M60.7,656.2c-1-10-1.4-20.1-1.9-30.3c-0.6-9.6-1.6-19.2-3.2-28.8c-0.6-3.5-0.1-6.7-1.3-10.1
		c-1.4-4.5-3.3-8.8-5.7-12.9c-3.6-5.9-8.7-11-15.2-13.4c-4.4-1.6-9.4-1.6-13.4,0.8s-6.2,6.2-8.2,10.3c-1.2,2.4-2.4,4.8-3.6,7.3
		c-2.6,5.3-5.2,10.6-6.8,16.3c-1.6,5.7-2.1,11.8-0.4,17.4c1.1,3.6,3.2,5.6,4.9,8.7c2.1,3.9,3.4,8.3,3.6,12.7
		c0.1,3.2-0.3,6.4-0.5,9.6c-0.3,7.2,1.1,14.3,3,21.3c0.9,2.7,1.4,5.5,1.7,8.4c0,2.3-0.1,4.7-0.4,7c-0.4,6.3,0.8,12.6,1.2,18.9
		c0.3,6.5-1,11.7-3.4,17.6c-1.6,3.8-2.4,7.8-2.4,11.9c0,6.2,1,12.6-0.8,18.7c-0.6,1.8-1.4,3.6-2.1,5.4c-3.1,7.7-4.4,15.9-5.6,24.1
		c-0.1,0.4,0.2,0.8,0.7,0.9c0,0,0,0,0,0c2.9,0.4,12.6,2.3,13.5,2.4c8.9,1,17.1-2,25.8,0c0.4,0.1,0.8-0.1,0.9-0.5
		c6.7-18.4,11.8-37.4,15.4-56.7c1-5.6,0.3-10.9,0.5-16.4c0.2-2.4,0.6-4.8,1.3-7.1c3.2-11,5.7-21.3,3.8-32.7
		C61.6,663.6,61.1,659.9,60.7,656.2z"/>
	<path class="st5" d="M74.3,470c-4.1-3.6-9.2-6.1-14.6-7.1c-1.9-0.5-3.9-0.4-5.8,0.1c-1.2,0.4-2.4,1-3.5,1.8
		c-8,5.1-14.9,11.9-18.9,20.7c-3.3,7.2-5,14.9-6.5,22.7c-0.8,4.5-9.1,59.9-11.8,59.1c3.2,0.9,6.5,1.6,9.7,2.8
		c4.5,1.7,9,3.5,13.5,5.4c8.9,3.8,17.5,7.8,27,10.1c1.3-1,2.4-2.3,3-3.8c2.2-4.9,3.8-10.1,4.7-15.4c3-19.2,4.4-39.7,9.3-58.4
		c2.3-8.5,3.8-18.1,1.3-26.7C80.3,476.9,77.7,473,74.3,470z"/>
	<path class="st8" d="M68.2,574.7c2.4,1.1,4.8,2.1,7.3,3.3c11.3,5.2,22,11.7,31.8,19.4c-2.9,2.7-5.5,6.1-5.7,10.1
		c-0.2,4,2.8,8.2,6.7,8c2.3-2.5,2.6-6.3,4.2-9.3c2.1-3.9,8.6-3.8,10-6.7c1.5-3.1-1.9-7.3-3.7-9.5c-4.9-6.3-12.5-10-17.5-16.2
		c-1.8-2.2-3-4.8-4.6-7.1c-2.5-3.8-5.9-7-9.7-9.5c-7.6-4.8-10.2-11.5-13.9-19.4c-1.2-2.4-2.2-4.9-2.9-7.5c-0.8-3.4-0.8-6.9-1.3-10.3
		c-0.9-4.9-2.5-9.6-4.7-14c-1.9-4-4.1-8.1-7.4-11.1s-7.8-5-12.2-4.3c-5.5,0.9-9.6,5.8-11.2,11.2s-1.1,11-0.5,16.5
		c0.6,5.3,1.4,10.7,3.9,15.5c2.4,4.5,5.9,8.4,8.4,12.9c2.4,4.2,3.7,8.8,5.8,13.3C54.8,567.9,61.1,571.5,68.2,574.7z"/>
	<path class="st5" d="M64.9,467c-1.2,1.5-2,3.2-2.5,5.1c-2.6,9.6,1.1,21.3,5.1,30c1.5,3.2,2.1,8.6,5.6,10.2c2.4,1.1,4.2-0.6,6.2-1.7
		c2.4-1.2,4.9-2.2,7.3-3.4c5.4-2.8,10.7-5.8,15.8-9c-2.8-13.1-9.1-26.4-20.7-32.9c-3.7-2.1-8.3-3.4-12.3-1.9
		C67.6,464.3,66.1,465.5,64.9,467z"/>
	<path class="st8" d="M50.6,457.9c1.1-3.5,1.9-7.1,2.2-10.7c0.4-4.2,0.4-8.6,1.9-12.6c2.4-6.1,11-10.1,17.3-8.6
		c8.8,2.1,6.2,17,5.4,23.6c-0.4,3.2-2.8,5.5-4.6,8.2c-2.9,4.5-3.3,11.8-3.7,17c0.2,1.3-0.7,2.4-2,2.6c-0.1,0-0.2,0-0.3,0
		c-3.5,0.9-7.2,1.4-10.8,1.5c-4.8-0.1-12.4-1.8-10.1-8C47.5,466.4,49.3,462.2,50.6,457.9z"/>
	<path class="st5" d="M74.9,415c-2.7-0.2-5.3,0.7-7.4,2.5c-0.7,0.9-1.6,1.6-2.6,2.1c-0.5,0.2-1.1,0.3-1.7,0.4
		c-5.2,0.9-9.8,4-12.6,8.5c-0.7,1-1.1,2.1-1.3,3.2c-0.1,0.9,0,1.9,0.2,2.8c0.3,2.1,0.7,4.3,1.2,6.4c0.3,0.9,0.5,1.9,0.6,2.9
		c-0.1,0.8,0,1.6,0.2,2.4c1,3.3,4.1,1.8,5.4-0.4c1-1.8,1.8-3.6,2.5-5.5c0.9-2.4,2.1-4.8,4.2-6.4c2-1.5,4.5-2,6.9-2.4
		c2.6-0.4,6.3-0.8,8.2-2.8c2.1-2.2,3.7-5.1,3.5-8.3c0-0.8-0.3-1.5-0.6-2.2c-0.5-0.7-1.1-1.3-1.8-1.8C78.2,415.6,76.6,415.1,74.9,415
		z"/>
	<path class="st1" d="M62.1,439.3c-0.9-1.9-3.2-2.6-5-1.7c0,0-0.1,0-0.1,0.1c-2.2,1.1-3.4,4.2-2.9,6.5c0.4,2.1,2.5,3.6,4.4,2.4
		c0.9-0.2,1.7-0.7,2.3-1.4C62.3,443.6,63.1,441.3,62.1,439.3z"/>
	<path class="st5" d="M58.6,441.7c-0.2-1.1-1.7-0.6-1.6,0.4c0,0.8,0.2,1.6,0.7,2.2c0.3,0.3,0.7,0.2,0.9,0c0.1-0.1,0.1-0.2,0.2-0.3
		C59,443.3,58.9,442.4,58.6,441.7z"/>
	<path class="st5" d="M58.1,559.4c-0.3,0.7-0.3,1.4-0.1,2c0.4,1.1,1.2,1.9,2.3,2.4c0.2,0.1,0.5,0.2,0.8,0.2c0.6,0,1.3-0.2,1.8-0.6"
		/>
	<path class="st5" d="M28,503.1c-0.3,1.8-0.4,3.7-0.3,5.6c0.4,7.6,2.1,15,3.8,22.4c4.2-4,9.9-5.8,15.4-7.5l17.4-5.4
		c1.7-0.5,3.5-1.3,4-2.9c0.1-0.6,0.1-1.2,0-1.8c-1.1-10.9-9.1-30.8-23.2-28.4c-4.3,0.8-7.8,3.6-10.8,6.7
		C30.9,495.4,28.8,498.9,28,503.1z"/>
	<path class="st1" d="M56,488.4c-0.3-0.3-0.7,0.3-0.4,0.6c3.3,3.4,6,7.3,8.1,11.5c2.3,4.8,3.4,10,5.4,15c0.1,0.2,0.3,0.3,0.5,0.2
		c0.1-0.1,0.2-0.2,0.2-0.4C68.1,505.8,64,494.3,56,488.4z"/>
	<path class="st5" d="M65.9,453.6c0.2,0.3,0.5,1.1,0.6,1.2c0.4,0.8,0.7,1.5,1,2.3c1.2,3.2,2.4,6.4,2.4,9.8c0-2.4,1.3-4.3,2.1-6.5
		c0.9-2.2,2-4.2,3.4-6.2c0.5-0.9,0.9-1.8,1.2-2.8c-1.1,1.3-2.7,2.2-4.5,2.5c-2.1,0.3-4.2,0.1-6.2-0.6
		C65.8,453.4,65.8,453.5,65.9,453.6z"/>
	<path class="st5" d="M69.5,444.4c-0.1,0.4,0,0.7,0.2,1c0.4,0.6,0.9,1.1,1.5,1.5c0.6,0.4,1.4,0.4,2.1,0.2c0.9-0.4,1.5-1.1,1.8-2
		c0.1-0.2,0.1-0.4-0.1-0.5"/>
	<path class="st10" d="M161.6,811.2c0.2-3.4,0.5-6.2,0.5-7.8c0.1-3.1,0-6.1-0.4-9.2c-0.7-4.2-2.4-8.2-3.9-12.2
		c-3.3-8.9-5.5-18.5-3.5-27.8c1.4-6.2,4.6-11.9,5.9-18.2c0.9-4.5,0.8-9.2,1.7-13.7c0.7-3.7,5.4-15.9,11.1-11.4
		c0.9,0.8,1.6,1.9,1.9,3.1c1.6,4.3,2.5,8.8,4.8,12.9c2.3,4.3,6,7.8,7.9,12.4c1.8,4.4,1.6,9.3,1.1,14c-1.8,16.3-7.3,32-5.1,48.7
		c0.4,2.8,1.2,26.1-3,26.1c-1.4,3.8-3.7,9.6-8.2,10.6C160.4,841.3,160.8,822.9,161.6,811.2z"/>
	<path class="st15" d="M119.7,839.6c-4.8,4.5-8.3,10.1-15.3,11.2c-8.9,1.4-13.4-6.9-10.2-14.7c2.1-5.1,6.4-8.9,10.2-13
		c4.2-4.5,7.8-9.6,10.8-15.1c2.2-4.1,4.1-8.5,7.8-11.2c2.4-1.8,5.4-2.6,8.3-3.5c5.7-1.6,11.9-3.3,17.5-1.4c3.5,1.2,6.5,3.6,9.1,6.3
		c15.4,15.4,14.3,35.4,10.7,55.3c-0.3,1.8-0.8,3.9-2.4,4.7c-2.6,1.4-5.6-1.5-6.5-4.3c-2.2-6.8-0.9-12.8-5.4-18.9
		c-3.6-4.9-10.2-8.8-12.2-14.6c-0.6-1.8-0.8-3.7-2-5.2s-3.8-1.9-4.8-0.4c-0.4,0.9-0.5,1.9-0.3,2.9c0.4,6.4-2.5,12.5-7.6,16.3
		c-2.1,1.5-4.5,2.6-6.4,4.2C120.6,838.8,120.2,839.2,119.7,839.6z"/>
	<path class="st10" d="M170.6,819.2c0-0.9,0-1.8,0.1-2.7c1-9.4,14.1-10.7,20.6-15c6.2-4,10-12.4,18-4.2c3.8,4,6.4,11.1,7.2,16.5
		c1.5,10.3,2.9,20.7,4.3,31c0.3,2.3,0.6,4.8-0.5,6.9c-2,3.8-7.8,4.2-11.3,1.6c-4.9-3-6.6-11.1-8.5-16c-0.8-2.3-1.8-4.7-1.6-7.2
		c0.2-3,2-5.9,1.6-8.9c-0.2-0.9-0.8-2-1.8-1.9c-0.3,0.1-0.6,0.2-0.8,0.4c-4.3,2.8-5.7,7.1-8.4,11.2c-2.8,4.3-5,3.8-8.2,6.7
		c-6.7,6.1-4.6,19.8-7.1,28c-0.6,2.1-2.7,4.6-4.5,3.4c-0.7-0.6-1.1-1.4-1.2-2.3c-2.2-9.2-2.2-18.7,0.1-27.9c1-3.9,2.3-7.7,2.4-11.6
		C171.2,824.6,170.7,821.9,170.6,819.2z"/>
	<path class="st1" d="M199.8,849h-63.9v8h5.1l4.2,23.6c1.9,11,11.5,19,22.7,19l0,0c11.2,0,20.7-8,22.6-19l4.2-23.6h5.1V849z"/>
	<line class="st16" x1="139.2" y1="857.7" x2="196.5" y2="857.7"/>
	<line class="st12" x1="154.5" y1="900" x2="214.7" y2="900"/>
	<path class="st5" d="M673.9,471.3c0.5-0.1,1,0.2,1.3,0.6c0.3,0.4,0.2,1-0.1,1.4c-0.3,0.3-0.6,0.5-1,0.7c0,0-0.1,0-0.1,0"/>
	<path class="st5" d="M653.2,474.5c-0.1,0.4,0,0.8,0.3,1.1c0.4,0.6,0.9,1,1.5,1.3c0.8,0.3,1.6,0.3,2.4,0c0.7-0.3,1.3-0.9,1.7-1.7
		h-0.1"/>
</g>
</svg>
