<svg xmlns="http://www.w3.org/2000/svg" xmlns:xlink="http://www.w3.org/1999/xlink" viewBox="0 0 1242.72 452.34"><defs><style>.cls-1{fill:#303030;}.cls-2{fill:#f4f4f4;}.cls-3{fill:url(#Gradiente_sem_nome_83);}.cls-4{fill:url(#Gradiente_sem_nome_83-2);}.cls-5{fill:url(#Gradiente_sem_nome_83-3);}.cls-6{fill:url(#Gradiente_sem_nome_83-4);}.cls-7{fill:url(#Gradiente_sem_nome_83-5);}</style><linearGradient id="Gradiente_sem_nome_83" x1="-133.38" y1="175.52" x2="676.03" y2="605.15" gradientUnits="userSpaceOnUse"><stop offset="0" stop-color="#ffae1a"/><stop offset="1" stop-color="#ebcc22"/></linearGradient><linearGradient id="Gradiente_sem_nome_83-2" x1="-81.85" y1="78.44" x2="727.56" y2="508.07" xlink:href="#Gradiente_sem_nome_83"/><linearGradient id="Gradiente_sem_nome_83-3" x1="-31.13" y1="-17.11" x2="778.28" y2="412.52" xlink:href="#Gradiente_sem_nome_83"/><linearGradient id="Gradiente_sem_nome_83-4" x1="17.79" y1="-109.28" x2="827.2" y2="320.35" xlink:href="#Gradiente_sem_nome_83"/><linearGradient id="Gradiente_sem_nome_83-5" x1="64.11" y1="-196.55" x2="873.52" y2="233.08" xlink:href="#Gradiente_sem_nome_83"/></defs><g id="Camada_2" data-name="Camada 2"><g id="Camada_1-2" data-name="Camada 1"><g id="Escrita"><path class="cls-1" d="M177.86,0c-30.59,0-51.3,4.66-67.15,15.1C88.29,29.87,81.22,52.67,77.84,68.6L0,452.34H1044.69l11.87-56.7h46.81c28.05,0,50.59-2,69.39-11.55,21.26-10.83,34.46-29.64,40.37-57.51,0,0,9.72-48.51,9.72-56,0-21.62-9.73-39.27-27-49.64L1242.72,0Z"/><path class="cls-2" d="M85,208.88l9.23-44.3H231.13c6.07,0,9.23-2.64,10.81-9.49l.53-2.64a15.32,15.32,0,0,0,.26-3.16c0-4.22-2.11-5.81-7.12-5.81H147.54c-29,0-43.51-10.28-43.51-27.95a32.18,32.18,0,0,1,1-8.44l6.59-31.38c6.33-29.8,19.78-41.13,66.19-41.13H317.62l-9.49,44.3H182.61c-7.12,0-10,3.16-11.34,9.49L170.74,91a20.9,20.9,0,0,0-.52,3.69c0,3.69,2.37,5.27,7.91,5.27h86.75c30.07,0,43.25,10.81,43.25,30.06a60,60,0,0,1-1.32,11.34l-5.53,25.85c-6.07,28.48-22.42,41.66-63.29,41.66Z"/><path class="cls-2" d="M391.19,152.19l-11.87,56.69H312.61l36.91-174.3H491.13c42.46,0,59.86,5,59.86,27.16a81.17,81.17,0,0,1-1.84,14.5L542,110.52c-7.39,34.81-26.64,41.67-75.95,41.67Zm88.87-61.71a20.67,20.67,0,0,0,.52-4c0-5.27-3.16-7.64-11.33-7.64h-62.5l-6.33,30.32h62.5c10.28,0,14-3.16,15.82-12.13Z"/><path class="cls-2" d="M658.84,183.57H592.92l-13.45,25.31H506.42L614,34.58h84.91l33.75,174.3H662Zm-42.72-42.72h37.19l-6.86-55.91Z"/><path class="cls-2" d="M805.46,208.88c-42.46,0-60.13-5.27-60.13-27.69a76,76,0,0,1,1.85-14l19.25-91c7.12-34,25.84-41.66,76-41.66h134l-9.5,44.3h-115c-14,0-19.78,4-21.36,11.86l-13.19,62a11,11,0,0,0-.26,2.9c0,6.07,5.54,9,16.62,9h115l-9.23,44.3Z"/><path class="cls-2" d="M961.56,208.88l36.92-174.3H1200l-9.5,44.3H1056l-4.49,21.88h70.94l-9,41.67h-70.93l-4.75,22.15h134.49l-9.23,44.3Z"/><path class="cls-3" d="M42.52,417.76l9.23-44.3H188.61c6.07,0,9.23-2.63,10.81-9.49l.53-2.64a15.32,15.32,0,0,0,.26-3.16c0-4.22-2.11-5.8-7.12-5.8H105c-29,0-43.51-10.29-43.51-28A32.16,32.16,0,0,1,62.56,316l6.59-31.39c6.33-29.79,19.78-41.13,66.19-41.13H275.1l-9.49,44.3H140.09c-7.12,0-10,3.16-11.34,9.49l-.53,2.64a21,21,0,0,0-.52,3.69c0,3.69,2.37,5.28,7.91,5.28h86.75c30.07,0,43.25,10.81,43.25,30.06a60.19,60.19,0,0,1-1.32,11.34l-5.53,25.84c-6.07,28.48-22.42,41.66-63.29,41.66Z"/><path class="cls-4" d="M412.75,417.76l13.71-65.13H350.78l-13.71,65.13h-67L307,243.46h67l-13.71,64.87H436l13.72-64.87h66.71l-36.91,174.3Z"/><path class="cls-5" d="M504.78,417.76l36.91-174.3H743.16l-9.49,44.3H599.18l-4.48,21.89h70.93l-9,41.66H585.73L581,373.46H715.47l-9.23,44.3Z"/><path class="cls-6" d="M727.33,417.76l36.92-174.3H965.72l-9.49,44.3H821.74l-4.48,21.89h70.93l-9,41.66H808.29l-4.75,22.15H938l-9.23,44.3Z"/><path class="cls-7" d="M1028.48,361.07l-11.87,56.69H949.89l36.92-174.3h141.61c42.45,0,59.86,5,59.86,27.16a80.26,80.26,0,0,1-1.85,14.5l-7.12,34.28c-7.38,34.81-26.63,41.67-75.94,41.67Zm88.86-61.71a19.93,19.93,0,0,0,.53-3.95c0-5.28-3.17-7.65-11.34-7.65H1044l-6.33,30.33h62.5c10.29,0,14-3.17,15.82-12.14Z"/></g></g></g></svg>