<?xml version="1.0" encoding="utf-8"?>
<!-- Generator: Adobe Illustrator 25.0.0, SVG Export Plug-In . SVG Version: 6.00 Build 0)  -->
<svg version="1.1" id="Camada_1" xmlns="http://www.w3.org/2000/svg" xmlns:xlink="http://www.w3.org/1999/xlink" x="0px" y="0px"
	 viewBox="0 0 512 512" style="enable-background:new 0 0 512 512;" xml:space="preserve">
<style type="text/css">
	.st0{fill:#F5BD1E;}
</style>
<path class="st0" d="M323.9,188.1c37.5,37.5,37.5,98.3,0,135.8s-98.3,37.5-135.8,0s-37.5-98.3,0-135.8S286.4,150.6,323.9,188.1"/>
<path class="st0" d="M512,224h-34.6C463.3,126.1,385.9,48.7,288,34.6V0h-64v34.6C126.1,48.7,48.7,126.1,34.6,224H0v64h34.6
	c14.1,97.9,91.6,175.3,189.4,189.4V512h64v-34.6c97.9-14.1,175.3-91.6,189.4-189.4H512V224z M256,416c-88.2,0-160-71.8-160-160
	S167.8,96,256,96s160,71.8,160,160S344.2,416,256,416z"/>
</svg>
