<svg xmlns="http://www.w3.org/2000/svg" viewBox="0 0 437.12 92.01"><defs><style>.cls-1{fill:none;stroke:#fff;stroke-miterlimit:10;stroke-width:3px;}</style></defs><g id="Camada_2" data-name="Camada 2"><g id="Camada_1-2" data-name="Camada 1"><path class="cls-1" d="M1.06,86a15.39,15.39,0,0,1,21.75,0,15.37,15.37,0,0,0,21.75,0,15.39,15.39,0,0,1,21.75,0,15.37,15.37,0,0,0,21.75,0"/><path class="cls-1" d="M88.06,86a15.39,15.39,0,0,1,21.75,0,15.37,15.37,0,0,0,21.75,0,15.39,15.39,0,0,1,21.75,0,15.37,15.37,0,0,0,21.75,0"/><path class="cls-1" d="M175.06,86a15.39,15.39,0,0,1,21.75,0,15.37,15.37,0,0,0,21.75,0,15.39,15.39,0,0,1,21.75,0,15.37,15.37,0,0,0,21.75,0"/><path class="cls-1" d="M262.06,86a15.39,15.39,0,0,1,21.75,0,15.37,15.37,0,0,0,21.75,0,15.39,15.39,0,0,1,21.75,0,15.37,15.37,0,0,0,21.75,0"/><path class="cls-1" d="M349.06,86a15.39,15.39,0,0,1,21.75,0,15.37,15.37,0,0,0,21.75,0,15.39,15.39,0,0,1,21.75,0,15.37,15.37,0,0,0,21.75,0"/><path class="cls-1" d="M1.06,70a15.39,15.39,0,0,1,21.75,0,15.37,15.37,0,0,0,21.75,0,15.39,15.39,0,0,1,21.75,0,15.37,15.37,0,0,0,21.75,0"/><path class="cls-1" d="M88.06,70a15.39,15.39,0,0,1,21.75,0,15.37,15.37,0,0,0,21.75,0,15.39,15.39,0,0,1,21.75,0,15.37,15.37,0,0,0,21.75,0"/><path class="cls-1" d="M175.06,70a15.39,15.39,0,0,1,21.75,0,15.37,15.37,0,0,0,21.75,0,15.39,15.39,0,0,1,21.75,0,15.37,15.37,0,0,0,21.75,0"/><path class="cls-1" d="M262.06,70a15.39,15.39,0,0,1,21.75,0,15.37,15.37,0,0,0,21.75,0,15.39,15.39,0,0,1,21.75,0,15.37,15.37,0,0,0,21.75,0"/><path class="cls-1" d="M349.06,70a15.39,15.39,0,0,1,21.75,0,15.37,15.37,0,0,0,21.75,0,15.39,15.39,0,0,1,21.75,0,15.37,15.37,0,0,0,21.75,0"/><path class="cls-1" d="M1.06,54a15.39,15.39,0,0,1,21.75,0,15.37,15.37,0,0,0,21.75,0,15.39,15.39,0,0,1,21.75,0,15.37,15.37,0,0,0,21.75,0"/><path class="cls-1" d="M88.06,54a15.39,15.39,0,0,1,21.75,0,15.37,15.37,0,0,0,21.75,0,15.39,15.39,0,0,1,21.75,0,15.37,15.37,0,0,0,21.75,0"/><path class="cls-1" d="M175.06,54a15.39,15.39,0,0,1,21.75,0,15.37,15.37,0,0,0,21.75,0,15.39,15.39,0,0,1,21.75,0,15.37,15.37,0,0,0,21.75,0"/><path class="cls-1" d="M262.06,54a15.39,15.39,0,0,1,21.75,0,15.37,15.37,0,0,0,21.75,0,15.39,15.39,0,0,1,21.75,0,15.37,15.37,0,0,0,21.75,0"/><path class="cls-1" d="M349.06,54a15.39,15.39,0,0,1,21.75,0,15.37,15.37,0,0,0,21.75,0,15.39,15.39,0,0,1,21.75,0,15.37,15.37,0,0,0,21.75,0"/><path class="cls-1" d="M1.06,38a15.39,15.39,0,0,1,21.75,0,15.37,15.37,0,0,0,21.75,0,15.39,15.39,0,0,1,21.75,0,15.37,15.37,0,0,0,21.75,0"/><path class="cls-1" d="M88.06,38a15.39,15.39,0,0,1,21.75,0,15.37,15.37,0,0,0,21.75,0,15.39,15.39,0,0,1,21.75,0,15.37,15.37,0,0,0,21.75,0"/><path class="cls-1" d="M175.06,38a15.39,15.39,0,0,1,21.75,0,15.37,15.37,0,0,0,21.75,0,15.39,15.39,0,0,1,21.75,0,15.37,15.37,0,0,0,21.75,0"/><path class="cls-1" d="M262.06,38a15.39,15.39,0,0,1,21.75,0,15.37,15.37,0,0,0,21.75,0,15.39,15.39,0,0,1,21.75,0,15.37,15.37,0,0,0,21.75,0"/><path class="cls-1" d="M349.06,38a15.39,15.39,0,0,1,21.75,0,15.37,15.37,0,0,0,21.75,0,15.39,15.39,0,0,1,21.75,0,15.37,15.37,0,0,0,21.75,0"/><path class="cls-1" d="M1.06,22a15.39,15.39,0,0,1,21.75,0,15.37,15.37,0,0,0,21.75,0,15.39,15.39,0,0,1,21.75,0,15.37,15.37,0,0,0,21.75,0"/><path class="cls-1" d="M88.06,22a15.39,15.39,0,0,1,21.75,0,15.37,15.37,0,0,0,21.75,0,15.39,15.39,0,0,1,21.75,0,15.37,15.37,0,0,0,21.75,0"/><path class="cls-1" d="M175.06,22a15.39,15.39,0,0,1,21.75,0,15.37,15.37,0,0,0,21.75,0,15.39,15.39,0,0,1,21.75,0,15.37,15.37,0,0,0,21.75,0"/><path class="cls-1" d="M262.06,22a15.39,15.39,0,0,1,21.75,0,15.37,15.37,0,0,0,21.75,0,15.39,15.39,0,0,1,21.75,0,15.37,15.37,0,0,0,21.75,0"/><path class="cls-1" d="M349.06,22a15.39,15.39,0,0,1,21.75,0,15.37,15.37,0,0,0,21.75,0,15.39,15.39,0,0,1,21.75,0,15.37,15.37,0,0,0,21.75,0"/><path class="cls-1" d="M1.06,6A15.39,15.39,0,0,1,22.81,6,15.37,15.37,0,0,0,44.56,6,15.39,15.39,0,0,1,66.31,6,15.37,15.37,0,0,0,88.06,6"/><path class="cls-1" d="M88.06,6a15.39,15.39,0,0,1,21.75,0,15.37,15.37,0,0,0,21.75,0,15.39,15.39,0,0,1,21.75,0,15.37,15.37,0,0,0,21.75,0"/><path class="cls-1" d="M175.06,6a15.39,15.39,0,0,1,21.75,0,15.37,15.37,0,0,0,21.75,0,15.39,15.39,0,0,1,21.75,0,15.37,15.37,0,0,0,21.75,0"/><path class="cls-1" d="M262.06,6a15.39,15.39,0,0,1,21.75,0,15.37,15.37,0,0,0,21.75,0,15.39,15.39,0,0,1,21.75,0,15.37,15.37,0,0,0,21.75,0"/><path class="cls-1" d="M349.06,6a15.39,15.39,0,0,1,21.75,0,15.37,15.37,0,0,0,21.75,0,15.39,15.39,0,0,1,21.75,0,15.37,15.37,0,0,0,21.75,0"/></g></g></svg>